<?xml version="1.0" encoding="utf-8"?>
<!-- Generator: Adobe Illustrator 23.0.0, SVG Export Plug-In . SVG Version: 6.00 Build 0)  -->
<svg version="1.1" id="Layer_1" xmlns="http://www.w3.org/2000/svg" xmlns:xlink="http://www.w3.org/1999/xlink" x="0px" y="0px"
	 viewBox="0 0 350 275" style="enable-background:new 0 0 350 275;" xml:space="preserve">
<style type="text/css">
	.st0{fill:#281E21;}
	.st1{fill:#CC0033;}
</style>
<g>
	<g>
		<g>
			<path class="st0" d="M251.7,255.1c0,0,0.1,0.7,0.9,1.2c0.4,0.3,1.1,0.4,1.8,0.3c0.7-0.1,1.6-0.5,2-1.2c0.4-0.7,0.3-1.9-0.5-2.6
				c-0.8-0.7-2-1.2-3.3-1.3c-1.3-0.2-2.7-0.2-4.1,0.3c-0.8,0.2-1.5,0.5-2.2,0.8s-1.4,0.7-2.2,1.1c-2.9,1.6-5.8,4.1-9.4,5.9
				c-1.8,0.9-3.8,1.6-6,1.6c-1.1,0-2.3-0.2-3.2-0.9c-0.9-0.8-1.5-1.8-1.8-2.9c-0.1-0.6-0.2-1.2,0-1.8c0.2-0.6,0.8-1.1,1.4-1.2
				c0.3,0,0.6-0.1,0.9-0.1c0.2,0,0.6,0.1,0.9,0.3c0.6,0.3,0.9,0.8,1.1,1.4c0.5,1.1,0.6,2.2,0.6,3.3s-0.1,2.4-0.9,3.3
				c-0.2,0.5-0.8,0.9-1.2,1.3c-0.5,0.3-0.9,0.7-1.5,0.9c-1,0.6-2.1,0.9-3.3,1.1c-1.1,0.2-2.3,0.5-3.4,0.5c-1.1,0.1-2.3-0.1-3.5-0.2
				c-4.6-0.8-8.7-2.9-13-3.9c-1-0.3-2.1-0.4-3.2-0.6c-1.1-0.2-2.2-0.4-3.3-0.5c-1.1-0.1-2.1-0.3-3.2-0.4c-1.1,0-2.1-0.1-3.2-0.1
				c-1.1-0.1-2.1,0.1-3.1,0.1l-1.5,0.1c-0.2,0-0.5,0-0.7,0.1c-0.2,0.1-0.5,0.1-0.7,0.2c-1.7,0.5-3.4,1.7-4.5,3.1
				c-1.2,1.4-1.9,3.1-1.7,4.7c0,0.8,0.4,1.6,0.8,2.2c0.1,0.2,0.3,0.4,0.4,0.5l0.4,0.3c0.3,0.2,0.6,0.4,1,0.6c1.4,0.7,3,1,4.5,1
				c1.4,0,3-0.2,3.7-1.1c0.8-0.8,0.5-2.2,0-3.1c-0.6-0.8-1.6-1.3-2.5-1.3s-1.8,0.4-2.1,0.9c-0.2,0.3,0,0.5,0.2,0.7s0.5,0.2,0.8,0.3
				c1,0.1,1.5-0.3,1.5-0.3l0.1,0.1c0,0-0.5,0.4-1.6,0.4c-0.3,0-0.6-0.1-0.9-0.2c-0.3-0.1-0.7-0.6-0.4-1.1c0.5-0.8,1.4-1.2,2.5-1.3
				c1.1,0,2.3,0.3,3.2,1.5l0.2,0.4c0.1,0.2,0.1,0.3,0.2,0.5c0.1,0.3,0.3,0.6,0.3,1c0,0.4,0.1,0.7-0.1,1.1c-0.1,0.2-0.1,0.4-0.2,0.6
				l-0.4,0.5c-0.2,0.4-0.6,0.5-0.9,0.8c-0.4,0.2-0.7,0.4-1.1,0.5c-0.8,0.2-1.6,0.3-2.4,0.3c-1.6,0-3.3-0.3-5-1
				c-0.4-0.2-0.8-0.4-1.2-0.7l-0.6-0.5c-0.2-0.2-0.3-0.3-0.4-0.5c-0.6-0.9-1-1.8-1.1-2.9c-0.3-2.1,0.6-4.2,2-5.8s3.1-2.9,5.3-3.6
				c0.3-0.1,0.5-0.1,0.8-0.2c0.3-0.1,0.5-0.1,0.8-0.1l1.6-0.1c1.1-0.1,2.2-0.2,3.2-0.1c1.1,0.1,2.2,0.1,3.3,0.2
				c1.1,0.1,2.2,0.3,3.3,0.5c1.1,0.1,2.2,0.4,3.3,0.6s2.2,0.4,3.3,0.7c4.4,1.2,8.5,3.4,12.8,4.4c1.1,0.2,2.2,0.4,3.3,0.3
				c1.2,0,2.2-0.1,3.3-0.3c1.1-0.3,2.2-0.5,3.2-1s1.9-1.1,2.5-2c0.7-0.8,0.8-2,0.8-3.1c0-1.1-0.2-2.2-0.6-3.1
				c-0.2-0.5-0.5-0.9-0.9-1.1c-0.2-0.1-0.4-0.2-0.7-0.2c-0.2,0-0.5,0-0.7,0.1c-1,0.2-1.1,1.3-0.8,2.2s0.9,1.8,1.6,2.4
				c0.7,0.5,1.7,0.7,2.7,0.6c1.9-0.1,3.8-0.8,5.5-1.6c3.4-1.8,6.3-4.2,9.3-5.8c0.8-0.4,1.5-0.8,2.3-1.1c0.8-0.3,1.6-0.6,2.3-0.8
				c0.4-0.1,0.8-0.2,1.2-0.3c0.4-0.1,0.8-0.1,1.2-0.1c0.8,0,1.5,0.1,2.2,0.2c1.4,0.3,2.8,0.8,3.7,1.7c1,1,1.1,2.5,0.4,3.5
				c-0.7,1-1.7,1.3-2.5,1.3s-1.5-0.2-2-0.5c-0.9-0.7-0.8-1.5-0.9-1.4L251.7,255.1z"/>
			<path class="st0" d="M230.2,263.7c0,0-0.1,0.2-0.3,0.5s-0.4,0.8-0.8,1.3c-0.4,0.6-0.9,1.2-1.6,1.9c-0.7,0.7-1.5,1.3-2.6,1.9
				c-1,0.6-2.2,1.1-3.5,1.4s-2.8,0.4-4.2,0.3c-2.9-0.2-5.9-0.8-8.8-1.8c-2.9-1-5.6-2.4-8.2-3.5c-1.3-0.6-2.5-1.1-3.7-1.5
				c-1.2-0.4-2.3-0.8-3.4-1.1c-2.1-0.5-4-0.5-5.3-0.4c-0.7,0-1.1,0.2-1.5,0.3c-0.3,0.1-0.5,0.1-0.5,0.1l-0.1-0.1
				c0,0,0.2-0.1,0.5-0.2c0.3-0.1,0.8-0.4,1.5-0.6c1.3-0.4,3.3-0.7,5.6-0.3c2.3,0.3,4.9,1.2,7.5,2.5c1.3,0.6,2.6,1.3,3.9,2
				c1.3,0.7,2.6,1.5,3.9,2.1c1.3,0.6,2.8,1.2,4.2,1.5s2.9,0.4,4.3,0.3c1.4-0.1,2.7-0.4,3.9-0.7c1.2-0.4,2.3-0.7,3.3-1.3
				c1-0.5,1.8-1,2.5-1.6c0.7-0.5,1.3-1.1,1.8-1.5c0.5-0.4,0.8-0.9,1.1-1.1c0.2-0.3,0.4-0.4,0.4-0.4L230.2,263.7z"/>
		</g>
		<g>
			<path class="st0" d="M98.3,255.1c0,0-0.1,0.7-0.9,1.2c-0.4,0.3-1.1,0.4-1.8,0.3c-0.7-0.1-1.6-0.5-2-1.2c-0.4-0.7-0.3-1.9,0.5-2.6
				s2-1.2,3.3-1.3c1.3-0.2,2.7-0.2,4.1,0.3c0.8,0.2,1.5,0.5,2.2,0.8s1.4,0.7,2.2,1.1c2.9,1.6,5.8,4.1,9.4,5.9c1.8,0.9,3.8,1.6,6,1.6
				c1.1,0,2.3-0.2,3.2-0.9c0.9-0.8,1.5-1.8,1.8-2.9c0.1-0.6,0.2-1.2,0-1.8c-0.2-0.6-0.8-1.1-1.4-1.2c-0.3,0-0.6-0.1-0.9-0.1
				c-0.2,0-0.6,0.1-0.9,0.3c-0.6,0.3-0.9,0.8-1.1,1.4c-0.5,1.1-0.6,2.2-0.6,3.3s0.1,2.4,0.9,3.3c0.2,0.5,0.8,0.9,1.2,1.3
				c0.5,0.3,0.9,0.7,1.5,0.9c1,0.6,2.1,0.9,3.3,1.1c1.1,0.2,2.3,0.5,3.4,0.5c1.1,0.1,2.3-0.1,3.5-0.2c4.6-0.8,8.7-2.9,13-3.9
				c1-0.3,2.1-0.4,3.2-0.6c1.1-0.2,2.2-0.4,3.3-0.5c1.1-0.1,2.1-0.3,3.2-0.4c1.1,0,2.1-0.1,3.2-0.1c1.1-0.1,2.1,0.1,3.1,0.1l1.5,0.1
				c0.2,0,0.5,0,0.7,0.1c0.2,0.1,0.5,0.1,0.7,0.2c1.7,0.5,3.4,1.7,4.5,3.1c1.2,1.4,1.9,3.1,1.7,4.7c0,0.8-0.4,1.6-0.8,2.2
				c-0.1,0.2-0.3,0.4-0.4,0.5l-0.4,0.3c-0.3,0.2-0.6,0.4-1,0.6c-1.4,0.7-3,1-4.5,1c-1.4,0-3-0.2-3.7-1.1c-0.8-0.8-0.5-2.2,0-3.1
				c0.6-0.8,1.6-1.3,2.5-1.3s1.8,0.4,2.1,0.9c0.2,0.3,0,0.5-0.2,0.7s-0.5,0.2-0.8,0.3c-1,0.1-1.5-0.3-1.5-0.3l-0.1,0.1
				c0,0,0.5,0.4,1.6,0.4c0.3,0,0.6-0.1,0.9-0.2c0.3-0.1,0.7-0.6,0.4-1.1c-0.5-0.8-1.4-1.2-2.5-1.3c-1.1,0-2.3,0.3-3.2,1.5l-0.2,0.4
				c-0.1,0.2-0.1,0.3-0.2,0.5c-0.1,0.3-0.3,0.6-0.3,1c0,0.4-0.1,0.7,0.1,1.1c0.1,0.2,0.1,0.4,0.2,0.6l0.4,0.5
				c0.2,0.4,0.6,0.5,0.9,0.8c0.4,0.2,0.7,0.4,1.1,0.5c0.8,0.2,1.6,0.3,2.4,0.3c1.6,0,3.3-0.3,5-1c0.4-0.2,0.8-0.4,1.2-0.7l0.6-0.5
				c0.2-0.2,0.3-0.3,0.4-0.5c0.6-0.9,1-1.8,1.1-2.9c0.3-2.1-0.6-4.2-2-5.8s-3.1-2.9-5.3-3.6c-0.3-0.1-0.5-0.1-0.8-0.2
				c-0.3-0.1-0.5-0.1-0.8-0.1l-1.6-0.1c-1.1-0.1-2.2-0.2-3.2-0.1c-1.1,0.1-2.2,0.1-3.3,0.2c-1.1,0.1-2.2,0.3-3.3,0.5
				c-1.1,0.1-2.2,0.4-3.3,0.6s-2.2,0.4-3.3,0.7c-4.4,1.2-8.5,3.4-12.8,4.4c-1.1,0.2-2.2,0.4-3.3,0.3c-1.2,0-2.2-0.1-3.3-0.3
				c-1.1-0.3-2.2-0.5-3.2-1s-1.9-1.1-2.5-2c-0.7-0.8-0.8-2-0.8-3.1c0-1.1,0.2-2.2,0.6-3.1c0.2-0.5,0.5-0.9,0.9-1.1
				c0.2-0.1,0.4-0.2,0.7-0.2c0.2,0,0.5,0,0.7,0.1c1,0.2,1.1,1.3,0.8,2.2c-0.3,0.9-0.9,1.8-1.6,2.4c-0.7,0.5-1.7,0.7-2.7,0.6
				c-1.9-0.1-3.8-0.8-5.5-1.6c-3.4-1.8-6.3-4.2-9.3-5.8c-0.8-0.4-1.5-0.8-2.3-1.1c-0.8-0.3-1.6-0.6-2.3-0.8
				c-0.4-0.1-0.8-0.2-1.2-0.3c-0.4-0.1-0.8-0.1-1.2-0.1c-0.8,0-1.5,0.1-2.2,0.2c-1.4,0.3-2.8,0.8-3.7,1.7c-1,1-1.1,2.5-0.4,3.5
				c0.7,1,1.7,1.3,2.5,1.3s1.5-0.2,2-0.5c0.9-0.7,0.8-1.5,0.9-1.4L98.3,255.1z"/>
			<path class="st0" d="M119.8,263.7c0,0,0.1,0.2,0.3,0.5c0.2,0.3,0.4,0.8,0.8,1.3c0.4,0.6,0.9,1.2,1.6,1.9s1.5,1.3,2.6,1.9
				c1,0.6,2.2,1.1,3.5,1.4s2.8,0.4,4.2,0.3c2.9-0.2,5.9-0.8,8.8-1.8c2.9-1,5.6-2.4,8.2-3.5c1.3-0.6,2.5-1.1,3.7-1.5
				c1.2-0.4,2.3-0.8,3.4-1.1c2.1-0.5,4-0.5,5.3-0.4c0.7,0,1.1,0.2,1.5,0.3c0.3,0.1,0.5,0.1,0.5,0.1l0.1-0.1c0,0-0.2-0.1-0.5-0.2
				c-0.3-0.1-0.8-0.4-1.5-0.6c-1.3-0.4-3.3-0.7-5.6-0.3c-2.3,0.3-4.9,1.2-7.5,2.5c-1.3,0.6-2.6,1.3-3.9,2c-1.3,0.7-2.6,1.5-3.9,2.1
				c-1.3,0.6-2.8,1.2-4.2,1.5s-2.9,0.4-4.3,0.3c-1.4-0.1-2.7-0.4-3.9-0.7c-1.2-0.4-2.3-0.7-3.3-1.3c-1-0.5-1.8-1-2.5-1.6
				c-0.7-0.5-1.3-1.1-1.8-1.5c-0.5-0.4-0.8-0.9-1.1-1.1c-0.2-0.3-0.4-0.4-0.4-0.4L119.8,263.7z"/>
		</g>
	</g>
	<g>
		<path class="st0" d="M99.4,40C99.5,40,99.5,40,99.4,40c1.1,0,2.7-0.8,3.2-1.1c1-0.5,2.5-1.9,2.7-2.6c0-0.1,0.1-0.2,0-0.3
			c-0.2-0.1-0.4,0-1.3,0.8c-0.4,0.3-0.8,0.6-1.2,1c-1.2,0.9-2,1.3-3.1,1.5l0,0C99,39.5,99,39.7,99,39.8C99,40,99.3,40,99.4,40z"/>
		<path class="st0" d="M89,46.5c0.1,0,0.3,0,0.5,0c0.6,0,2-0.4,3.3-0.7c1-0.2,1.9-0.4,2.5-0.5c1.3-0.2,3-0.1,4.1,0.3s2.2,0.7,3,0.9
			c0.3,0.1,0.5,0.1,0.6-0.1c0.1-0.1-0.1-0.3-0.2-0.4l0,0c-1.1-0.4-5.1-1.8-7.4-1.3c-0.8,0.2-1.7,0.4-2.5,0.6
			c-1.4,0.3-2.7,0.6-3.5,0.7s-0.9,0.2-0.9,0.4C88.5,46.4,88.6,46.5,89,46.5z"/>
		<path class="st0" d="M51.8,42.6c0.1,1.2,0.2,2.5,0.7,3.3c0.6,0.8,1,2.5,1.1,3.6c0,0.4,0.2,0.7,0.4,0.8h0.1c0.1,0,0.1,0,0.2-0.1
			c0.2-0.1,0.2-0.5,0.2-0.9L54.4,49l-0.1,0.1c-0.1-0.3-0.2-0.9-0.4-1.6c-0.1-0.9-0.6-1.7-0.9-2.3c-0.1-0.2-0.2-0.4-0.3-0.5
			c-0.2-0.5-0.3-2.1-0.4-3.2c0-0.5,0-0.9-0.1-1.2c-0.1-1.1-0.1-1.2-0.3-1.2l0,0c-0.2,0-0.2,0.2-0.2,0.4c0,0.1,0,0.3,0,0.4
			c-0.1,0.5-0.1,1.1,0,2.1C51.8,42.2,51.8,42.4,51.8,42.6z"/>
		<path class="st0" d="M56.1,60C56.2,60,56.2,60,56.1,60c0.3,0,0.3-0.4,0.4-0.5c0.1-0.6,0.5-1.7,1.3-3.7c0.8-1.9,2-4.1,2.7-4.8
			c0.2-0.2,0.6-0.5,1-0.8c0.8-0.5,1.7-1.2,2.2-2.1l3.8-6.7c0.2-0.3,0.2-0.5,0.1-0.7c-0.1-0.1-0.1-0.1-0.3-0.1
			c-0.2,0-0.4,0.2-0.6,0.5c-0.1,0.1-1.7,3-2.8,4.8c-1.1,1.9-2.9,3.6-3.6,4.2c-0.8,0.6-2,2.6-2.4,3.5c-0.4,0.8-2,4.9-2.1,5.8
			C55.9,59.9,56,60,56.1,60z"/>
		<path class="st0" d="M96.5,217.7L96.5,217.7c0,0-0.7-0.5-1.1-0.9c-0.5-0.4-0.7-0.9-1.1-2c-0.3-0.8-1.1-2-2.3-3.5
			c-0.7-0.9-2.5-2.1-3.3-2.5c-0.5-0.2-0.8-0.2-0.9-0.1c-0.1,0.2,0,0.4,0.4,0.6c0.2,0.1,0.3,0.2,0.5,0.4c0.4,0.3,0.9,0.7,1.9,1.4
			c1.4,0.9,2.5,2.8,3,4.1c0.5,1.2,2.2,2.8,2.8,3.3c0.2,0.2,0.4,0.2,0.5,0.2s0.2,0,0.2-0.1C97.2,218.4,96.9,218,96.5,217.7z"/>
		<path class="st0" d="M37.6,110.2c-0.1,0.4-0.2,0.8-0.2,1.1c-0.1,0.7-0.3,1.2-0.5,1.5c-0.1,0.2-0.2,0.4-0.2,0.5
			c-0.1,0.3,0.1,0.4,0.1,0.4s0,0,0.1,0c0.2,0,0.3-0.2,0.5-0.6c0.3-0.6,1.2-3.7,1.3-5.3c0.1-1.7,0.4-3.2,0.8-4
			c0.2-0.4,0.6-1.2,1.1-2.1c0.7-1.2,1.4-2.5,1.8-3.3c0.1-0.2,0.2-0.4,0.3-0.6c0.7-1.4,1.5-3.2,1.6-5.4c0.2-2.4,0.2-5.1,0.2-5.2l0,0
			c-0.1-0.5-0.2-0.8-0.4-0.8s-0.3,0.2-0.3,0.9c0.1,1-0.1,4.2-0.3,5.5c-0.2,1.4-1.4,4.5-2.4,6.3c-0.2,0.4-0.5,0.8-0.7,1.3
			c-1,1.6-2.1,3.5-2.1,5.4C38.1,107.6,37.8,109.1,37.6,110.2z"/>
		<path class="st0" d="M65.4,184.8c-0.3-0.6-0.6-1.1-0.9-1.4c-0.2-0.3-0.4-0.6-0.5-0.8s-0.2-0.3-0.4-0.3c-0.1,0-0.2,0.1-0.3,0.2
			c-0.1,0.2,0,0.4,0.1,0.7c0.4,0.6,1.2,2,1.6,3.3c0.1,0.4,0.2,0.7,0.3,1c0.2,0.5,0.2,0.8,0.3,1.4c0,0.1,0.1,0.4,0.3,0.4l0,0
			c0.1,0,0.3-0.1,0.5-0.7l0,0l0,0C66.5,188.3,65.9,185.8,65.4,184.8z"/>
		<path class="st0" d="M114.1,228.7c0,0-1.1-1.8-1.9-3c-0.9-1.3-1.6-2.1-3-3.1s-3.2-2.6-3.9-3.7c-0.4-0.6-1.2-2.1-1.8-3.3
			c-0.5-0.9-0.9-1.6-1.1-1.9c-0.2-0.4-0.4-0.5-0.6-0.5c-0.2,0.1-0.2,0.4,0.1,1c0.4,0.9,1.4,2.7,2.2,4.4c1.1,2,2.4,3.2,4.8,4.8
			c1.8,1.2,3.1,3.5,4,5c0.3,0.5,0.5,0.9,0.7,1.1c0.3,0.4,0.5,0.5,0.7,0.5h0.1C114.6,229.8,114.4,229.2,114.1,228.7L114.1,228.7z"/>
		<path class="st0" d="M22.7,159.1c0,0-0.8-0.9-1.3-1.8c-0.5-0.9-0.8-1.9-1.2-3.4c-0.4-1.4-1.2-2.6-2.3-4l-0.1-0.1
			c-1.1-1.5-2.3-2.6-3.1-3.1s-2.4-2.1-2.6-2.5c-0.2-0.3-0.5-0.5-0.8-0.5c-0.1,0-0.2,0.1-0.3,0.2c-0.1,0.2,0.1,0.5,0.4,0.8
			c0.3,0.3,0.5,0.6,0.7,0.8c0.5,0.6,0.9,1.1,1.6,1.5c0.5,0.3,0.8,0.6,1.2,1c0.3,0.3,0.7,0.7,1.2,1.2c1.4,1.2,2.8,3.5,3.2,5
			c0.3,1.6,1.9,4.8,2.7,5.5c0.3,0.3,0.6,0.4,0.7,0.4s0.1,0,0.2-0.1C23.2,159.9,23.2,159.7,22.7,159.1L22.7,159.1z"/>
		<path class="st0" d="M35.8,123.7L35.8,123.7c0.2,0,0.3-0.2,0.4-0.4c0.3-0.7,1.2-2.2,2.3-4c1.2-2,2.5-3,5.6-4.2
			c2.9-1.1,5.8-3.3,7.1-5.2c1.1-1.7,3.2-3.2,4.3-4c0.3-0.2,0.4-0.4,0.4-0.5s-0.1-0.2-0.1-0.2c-0.2-0.1-0.7,0-1.2,0.4
			c-0.1,0.1-1.1,0.6-2.4,1.9c-0.9,0.9-1.3,1.5-1.8,2.1c-0.2,0.4-0.5,0.7-0.8,1.1c-1,1.2-3,2.7-5.3,3.5c-2.2,0.7-3.9,1.8-5.3,3.2
			c-1.1,1.1-2.5,3.8-3.1,5l-0.2,0.3c-0.2,0.4-0.3,0.8-0.2,0.9C35.7,123.7,35.7,123.7,35.8,123.7z"/>
		<path class="st0" d="M25.5,129.5c-0.4-0.5-0.7-1.3-1.1-2.2c-0.2-0.5-0.5-1.1-0.7-1.6c-0.3-0.7-0.5-1.6-0.6-2.6
			c-0.1-0.9-0.3-1.7-0.5-2.5c-0.6-1.7-2.3-3.7-3.7-4.8c-1.4-1.1-3.4-4.3-3.7-4.9c-0.1-0.1-0.2-0.4-0.3-0.6c-0.4-0.8-1-2-1.4-2.6
			c-0.3-0.4-0.6-0.6-0.8-0.6c-0.1,0-0.2,0.1-0.2,0.2c-0.1,0.2,0,0.4,0.3,0.8c0.7,0.9,1.2,1.9,1.7,3.2s3.8,4.9,5.6,6.8l0.4,0.4
			c1.3,1.4,1.7,3.4,2.1,5.4c0.1,0.3,0.1,0.6,0.2,1c0.4,2.2,2.6,6.1,3.2,6.8c0.3,0.3,0.5,0.4,0.7,0.4c0.1,0,0.1,0,0.2-0.1
			s0.2-0.3-0.2-0.8C26.7,131.3,26.1,130.3,25.5,129.5z"/>
		<path class="st0" d="M53.2,172.2L53.2,172.2c0.2,0,0.3-0.2,0.4-0.9c0.3-1.3,1.2-4.5,2-6.8c0.8-2.4,2.1-4.2,3.1-5.1
			c0.8-0.7,1.3-2.5,1.6-3.5c0.1-0.3,0.1-0.5,0.2-0.6c0.1-0.4,0.1-0.7-0.1-0.8c-0.2-0.1-0.4,0.1-0.6,0.6l0,0c0,0-0.2,0.7-0.5,1.8
			s-1.4,2.3-2.1,3.2c-0.7,0.9-1.8,2.8-2.4,4.5c-0.6,1.7-1.6,5.8-1.7,6.6C53,171.6,53,172.1,53.2,172.2
			C53.1,172.2,53.2,172.2,53.2,172.2z"/>
		<path class="st0" d="M73.9,207.3c-0.8-1.1-1.5-2.2-2.3-2.7c-0.7-0.5-1.7-2.9-2.6-5v-0.1c-0.8-1.7-0.9-3.9-1-5.1
			c0-0.3,0-0.6-0.1-0.8c0-0.3-0.1-0.7-0.4-0.7l0,0c-0.3,0-0.4,0.6-0.3,1.1c0,0.6,0.1,1.4,0.3,2.2c0.1,0.4,0.1,0.9,0.2,1.3
			c0.2,1.3,2.3,6.9,3.5,7.6c0.9,0.5,2.2,2.8,2.9,4c0.2,0.4,0.4,0.7,0.5,0.9c0.2,0.2,0.3,0.3,0.5,0.3c0.1,0,0.1,0,0.2-0.1
			c0.2-0.1,0.2-0.5-0.1-0.9C75,209.3,74.5,208.3,73.9,207.3z"/>
		<path class="st0" d="M45.4,217.8L45.4,217.8c-0.6-0.2-2.8-0.6-3.2-0.6c-0.8-0.1-2,0.2-3.1,0.5c-0.3,0.1-0.7,0.2-1,0.2
			c-1.4,0.3-1.7,0.3-2.4,0.2c-0.5-0.1-1,0.2-1.2,0.4c-0.1,0.1-0.1,0.2,0,0.3c0.1,0.1,0.3,0.1,0.5,0.1c0.3,0,0.6,0,0.8,0
			c0.1,0,0.3,0.1,0.5,0.1s0.3,0,0.6-0.1c0.5-0.2,1.2-0.3,2.1-0.4c0.5-0.1,1.2-0.2,1.8-0.3c1.2-0.2,3,0.1,4.1,0.3
			c0.5,0.1,0.8,0.1,1,0.1l0,0c0.4,0,0.4-0.1,0.4-0.3C46.4,218,45.9,217.9,45.4,217.8z"/>
		<path class="st0" d="M61.6,221.2c-0.2,0-3.6,0-6.1-0.5c-2.6-0.6-5.3-1.7-6-2c-0.5-0.2-0.8-0.2-0.9,0c-0.1,0.1,0,0.4,0.5,0.7
			c0.8,0.4,1.7,0.8,4.6,1.8c2,0.7,4.3,0.9,6.2,0.9c0.8,0,1.4,0,1.9-0.1c0.8-0.1,0.9-0.3,1-0.4c0-0.1,0-0.2,0-0.2
			C62.5,221.2,62,221.2,61.6,221.2z"/>
		<path class="st0" d="M42.4,202.9c-0.1-0.1-1.3-1.1-2.4-2c-0.6-0.5-1.2-0.9-1.9-1.4c-0.6-0.4-1.2-0.8-2.1-1.5
			c-1.2-0.9-1.6-1.6-2-2.3c-0.2-0.3-0.3-0.6-0.5-0.9c-0.4-0.5-0.6-1-0.8-1.5s-0.5-1.1-1-1.8c-0.3-0.4-0.5-0.8-0.8-1.3
			c-0.6-0.9-1.1-1.8-1.8-2.6c-1-1.2-1.6-3.7-1.7-4.3c0-0.2-0.1-0.7-0.4-0.6c-0.3,0-0.2,0.5-0.2,0.8c0.1,0.9,0.6,3.4,1.8,4.7
			c1.1,1.2,2.8,4.2,4,6.7c0.9,2,2.6,3.7,5.1,5.1c1.3,0.8,2.5,1.8,3.4,2.6c0.6,0.5,0.9,0.8,1.2,1c0.1,0.1,0.3,0.2,0.4,0.2
			c0.1,0,0.1,0,0.2-0.1C43.1,203.4,42.5,203,42.4,202.9z"/>
		<path class="st0" d="M30.2,158.1c0.2-0.8,0.8-1.6,1.6-2.7c0.2-0.3,0.4-0.6,0.7-0.9c1.1-1.5,3-3.7,4.9-5.3c2-1.6,3.2-2.9,4.3-5.1
			c1-2,3.9-4.2,5.3-4.7c1.4-0.4,3.3-1.4,3.8-2.2c0.1-0.1,0.4-0.5,0.1-0.7c-0.3-0.2-0.8,0.3-0.9,0.5c-0.1,0.1-0.5,0.3-0.8,0.5
			c-0.1,0.1-0.5,0.2-0.9,0.4s-1,0.4-1.7,0.7l-0.2,0.1c-1.3,0.6-2.4,1.1-4.1,3.1c-1.6,1.8-2.4,3.1-3,4.2c-0.1,0.2-0.2,0.4-0.3,0.6
			c-0.3,0.5-1,1-1.8,1.7c-1,0.8-2.2,1.8-3.4,3.2c-2.2,2.5-3.8,4.9-4.2,6c-0.2,0.5-0.2,0.9-0.1,1.1c0,0,0.1,0.1,0.2,0.1
			c0,0,0,0,0.1,0C29.8,158.8,30,158.8,30.2,158.1z"/>
		<path class="st0" d="M48.6,153.8c-0.1,0-0.2,0.1-0.3,0.5c0,0.2-0.1,0.5-0.2,0.8c-0.1,0.6-0.3,1.4-0.6,2.9c-0.4,2.3-0.1,4.6,0.1,6
			c0.1,0.8-0.3,2.1-0.7,3.5c-0.3,1.2-0.7,2.4-0.6,3c0.1,0.6,0.1,1.4,0.2,2.2c0.1,0.7,0.1,1.3,0.2,1.8c0.1,0.4-0.2,1.4-0.4,2.4
			c-0.3,1.4-0.7,3-0.6,4c0.2,1.8,1.1,5.2,1.6,6.1c0.3,0.4,0.4,0.6,0.6,0.6H48c0.1-0.1,0.3-0.2,0-1.1l0,0c0,0-0.6-1.3-1.1-2.8
			c-0.4-1.2-0.4-2.3-0.5-3.2c0-0.2,0-0.4,0-0.6c0-0.8,0.2-2.1,0.5-3.3c0.1-0.4,0.2-0.8,0.3-1.2c0.3-1.3,0.1-2.2,0-3.4
			c0-0.3-0.1-0.6-0.1-1c-0.2-1.7,0.5-3.7,0.8-4.5c0.4-1,0.4-2.3,0.3-3.1c-0.1-0.6-0.2-1.9-0.2-3c0-0.4,0-0.7,0-1
			c-0.1-1,0.6-3.9,0.9-4.5c0.2-0.4,0.1-0.7,0-0.9C48.8,153.9,48.7,153.8,48.6,153.8z"/>
		<path class="st0" d="M338.6,143.7c-0.2,0-0.6,0.2-0.8,0.5c-0.3,0.5-1.9,2-2.6,2.5s-1.9,1.6-3.1,3.1l-0.1,0.1
			c-1.1,1.5-1.9,2.6-2.3,4c-0.4,1.5-0.7,2.5-1.2,3.4s-1.3,1.8-1.3,1.8l0,0c-0.5,0.6-0.5,0.8-0.4,0.9c0,0,0.1,0.1,0.2,0.1
			c0.2,0,0.4-0.1,0.7-0.4c0.8-0.6,2.4-3.8,2.7-5.5c0.3-1.5,1.8-3.8,3.2-5c0.6-0.5,0.9-0.9,1.2-1.2c0.4-0.4,0.7-0.7,1.2-1
			c0.7-0.4,1.1-0.9,1.6-1.5c0.2-0.3,0.4-0.5,0.7-0.8c0.4-0.4,0.5-0.7,0.4-0.8C338.8,143.8,338.7,143.7,338.6,143.7z"/>
		<path class="st0" d="M314.1,122.3c-0.6-1.1-2-3.8-3.1-4.9c-1.4-1.4-3.2-2.5-5.3-3.2c-2.3-0.8-4.3-2.3-5.3-3.5
			c-0.3-0.4-0.6-0.7-0.8-1.1c-0.4-0.6-0.8-1.3-1.8-2.1c-1.4-1.3-2.4-1.9-2.4-1.9c-0.5-0.4-1-0.5-1.2-0.4c-0.1,0-0.1,0.1-0.1,0.2
			c0,0.2,0.1,0.3,0.4,0.5c1.2,0.8,3.3,2.3,4.3,4c1.2,2,4.1,4.1,7.1,5.2c3.1,1.2,4.4,2.2,5.6,4.2c1.1,1.9,2,3.3,2.3,4
			c0.1,0.3,0.3,0.4,0.4,0.4l0,0c0.1,0,0.2,0,0.2-0.1c0.1-0.2,0.1-0.5-0.2-1L314.1,122.3z"/>
		<path class="st0" d="M288.2,222c0.5,0.1,1.1,0.1,1.9,0.1c1.8,0,4.2-0.2,6.2-0.9c2.9-1,3.9-1.4,4.6-1.8c0.5-0.3,0.6-0.5,0.5-0.7
			s-0.5-0.2-0.9,0c-0.7,0.3-3.4,1.4-6,2c-2.5,0.5-5.9,0.5-6.1,0.5c-0.4-0.1-0.9,0-1.1,0.1c-0.1,0.1-0.1,0.1,0,0.2
			C287.3,221.7,287.5,221.9,288.2,222z"/>
		<path class="st0" d="M284,189.1C284,189.1,284.1,189.1,284,189.1c0.2,0,0.3-0.3,0.3-0.4c0.1-0.6,0.1-0.8,0.3-1.4
			c0.1-0.3,0.2-0.6,0.3-1c0.3-1.3,1.1-2.7,1.6-3.3c0.2-0.2,0.2-0.5,0.1-0.7c-0.1-0.1-0.2-0.2-0.3-0.2l0,0c-0.2,0-0.3,0.1-0.4,0.3
			s-0.3,0.5-0.5,0.8c-0.3,0.4-0.6,0.9-0.9,1.4c-0.5,1-1.1,3.5-1.1,3.6l0,0l0,0C283.8,189.1,283.9,189.1,284,189.1z"/>
		<path class="st0" d="M304.1,218.6c0.2,0,0.5-0.1,1-0.1c1.2-0.2,2.9-0.5,4.1-0.3c0.7,0.1,1.3,0.2,1.8,0.3c0.9,0.1,1.7,0.2,2.1,0.4
			c0.2,0.1,0.4,0.1,0.6,0.1s0.3,0,0.5-0.1c0.2,0,0.4-0.1,0.8-0.1c0.2,0,0.4,0,0.5-0.1c0,0,0.1-0.1,0-0.3c-0.2-0.2-0.7-0.5-1.2-0.4
			c-0.6,0.1-1,0.1-2.4-0.2c-0.3-0.1-0.6-0.1-1-0.2c-1.1-0.3-2.3-0.6-3.1-0.5c-0.4,0-2.6,0.4-3.2,0.6l0,0c-0.5,0-1,0.2-1,0.5
			C303.6,218.4,303.7,218.6,304.1,218.6z"/>
		<path class="st0" d="M275,210.4c0.1,0,0.3-0.1,0.5-0.3c0.1-0.1,0.3-0.4,0.5-0.9c0.7-1.2,2.1-3.5,2.9-4c1.2-0.7,3.4-6.3,3.5-7.6
			c0.1-0.4,0.1-0.9,0.2-1.3c0.1-0.8,0.2-1.6,0.3-2.2c0-0.5,0-1-0.3-1.1c-0.3,0-0.4,0.4-0.4,0.7c0,0.2,0,0.4-0.1,0.8
			c-0.1,1.3-0.3,3.4-1,5.1v0.1c-0.9,2.1-1.9,4.4-2.6,5c-0.8,0.6-1.5,1.6-2.3,2.7c-0.7,1-1.2,1.9-1.2,2c-0.3,0.5-0.3,0.8-0.1,0.9
			C274.8,210.3,274.9,210.4,275,210.4z"/>
		<path class="st0" d="M253.2,218.8c0.1,0,0.3-0.1,0.5-0.2c0.6-0.4,2.3-2,2.8-3.3s1.7-3.2,3-4.1c1-0.7,1.5-1.1,1.9-1.4
			c0.2-0.1,0.3-0.3,0.5-0.4c0.3-0.2,0.5-0.4,0.4-0.6c-0.1-0.2-0.4-0.2-0.9,0.1c-0.8,0.4-2.6,1.6-3.3,2.5c-1.2,1.5-2,2.7-2.3,3.5
			c-0.4,1.1-0.6,1.5-1.1,2c-0.5,0.4-1.1,0.9-1.1,0.9l0,0c-0.4,0.3-0.7,0.7-0.5,1C253,218.7,253.1,218.8,253.2,218.8z"/>
		<path class="st0" d="M346.5,135.3c-0.6-0.4-2.5,0.5-4.8,1.6c-0.2,0.1-0.4,0.2-0.6,0.3s-0.5,0.2-0.8,0.4c0-0.7,0.1-1.8,0.2-2.8
			c0.1-0.4,0.2-0.9,0.3-1.5c0.3-1.4,0.6-2.7,0.1-3.1c-0.9-0.7-4.6,2.7-7.6,5.6c-4.2,4.1-7.1,7.7-7.9,12.1c-0.2,1-0.4,2-0.6,3
			c-0.7,3.6-1.3,7.4-1.7,8.4c-0.2,0.6-0.5,1.1-0.6,1.4c0-0.7-0.5-2.9-1-5.1c-0.2-0.9-0.4-1.8-0.5-2.5c-0.2-1.3-0.8-2.7-1.8-4.7
			c0.8-6.4,1.1-8.3,1.2-8.8c0.2-1,1.2-3.2,3.5-4.9s7.4-7.2,8.7-9.1c0.3-0.5,0.8-1,1.2-1.5c1.3-1.6,3-3.5,3.7-6.6
			c0.8-4,1.6-5.6,2-6.3l0,0c0.4-0.7,0.6-2.6,0.7-3.6c0.1-0.4,0.3-1.4,0.5-2.4c0.2-1.1,0.5-2.1,0.6-2.7c0.1-0.6-0.1-0.9-0.3-1
			c-0.4-0.3-1-0.3-1.7,0s-2.4,1.7-3.9,3c-0.8,0.7-1.6,1.3-2,1.6s-0.8,0.6-1.1,0.9c-0.2,0.1-0.4,0.3-0.5,0.4c0-0.4-0.1-1.7-0.2-3.2
			c-0.1-1.4-0.2-2.9-0.2-3.6c0-1.5-0.7-5.5-1-6.6c-0.1-0.6-0.5-1-0.9-1.1c-0.6-0.1-1.2,0.3-2,1.3c-0.8,1.1-1.7,3.3-2.5,5.1
			c-0.6,1.3-1.1,2.6-1.5,3.3c-1.1,1.7-1.7,4.9-2,6.6c-0.1,0.8-0.4,2.5-0.8,4.3c-0.4,2.1-0.9,4.5-1.1,5.8c-0.2,1.7,0.1,3.9,0.3,5.4
			c0.1,0.7,0.2,1.3,0.2,1.7c0,0.5,0.1,1.2,0.2,1.8c0.1,0.9,0.2,1.9,0.2,2.4c-0.1,0.5,0,1,0,1.3v0.1c-0.1,0.3-0.2,0.4-0.2,0.4
			s-0.1-0.1-0.1-0.4c0-0.7-0.1-4.6-0.5-6.2c-0.2-0.7-0.2-1.9-0.2-3.3c0-1.6-0.1-3.5-0.4-4.6c-0.5-1.7-1.6-5.7-2.2-6.7
			c-0.3-0.5-0.5-0.9-0.7-1.1c0.1-1.2,0.2-2.6,0.2-4.2c0-2.4,0-4.2,0.1-4.7c0-0.3,0.1-0.8,0.1-1.2c0.6-1.1,1.8-3,2.8-4.1
			c1.6-1.8,2.8-6.5,3.1-8.7c0.1-0.5,0.1-1.3,0.2-2.1c0.2-2.9,0.5-7.3,1.7-9.9c1.5-3.2,1.3-6.5,1.2-8.1v-0.4c0-0.7-0.2-1.5-0.7-1.7
			c-0.4-0.1-0.8,0.2-1.2,0.8c-1.5,2-3.4,4.7-4.4,5.5s-3.7,3.4-4.9,6.3c-0.5,1.2-0.9,2.8-1.3,4.4c-0.5,2-1,3.8-1.5,4.3
			c-0.5,0.6-1,0.9-1.2,1.1c-0.7-1.3-1.6-3-1.9-3.5c-0.4-0.7-1.3-2.7-1.6-3.5c0-0.1-0.1-0.2-0.1-0.3c-0.3-0.6-0.5-1.2-0.8-1.3
			c-0.1,0-0.2,0-0.3,0c-0.1,0.1-0.2,0.1-0.3,0.1h-0.1c-1.5-2-2.4-3.4-2.5-3.7c-0.1-0.2-0.2-0.4-0.4-0.7c0.1,0,0.1,0,0.2,0
			c0.7,0.1,1.5,0,2.1-0.5c0.6-0.4,1-1.1,1-1.8c0.2-1.5-0.9-3-2.4-3.2c-1.1-0.2-2.2,0.3-2.8,1.3c-0.4-1.9-1.2-5.2-1-6.6
			c0.2-1.8,0.8-6.5,1.6-10.4c0.2-1,0.4-1.9,0.6-2.8c0.6-2.6,1.2-5.1,0.8-7.9c-0.2-1.1-0.4-1.9-0.5-2.6c-0.3-1.5-0.5-2.3-0.3-4.1
			c0.3-2.7,0.1-4.5-0.2-5.1c-0.2-0.4-0.4-0.5-0.7-0.6c-0.3,0-0.7,0.1-1.1,0.5c-0.3,0.3-0.7,0.8-1.1,1.3c-0.5,0.7-1,1.3-1.5,1.7
			c-0.8,0.7-1.8,2.4-2.7,4.7c-0.9,2.3-1.6,4.6-1.7,5.8l-0.1,1.2c-0.5-1.3-1.8-4.3-3-5.5c-0.5-0.5-1-0.9-1.4-1.3
			c-0.8-0.7-1.4-1.4-2.4-2.4c-0.4-0.4-0.9-0.9-1.4-1.4c-1.2-1.1-2.5-2.3-3-3.5c-0.7-1.5-1.5-2.6-2.6-3.4c-0.6-0.4-1-0.5-1.3-0.3
			c-0.4,0.2-0.6,0.7-0.7,1.5c-0.2,1.8,0.8,8.2,1.3,9.9c0.1,0.4,0.3,0.9,0.4,1.4c0.6,1.7,1.2,3.9,1.8,4.7c0.4,0.6,1,1.6,1.5,2.4
			l0.1,0.2l0,0c-0.7-0.1-1.5,0-2.1,0.5c-0.6,0.4-1,1.1-1,1.8c0,0.2,0,0.5,0,0.7c-0.2-0.1-0.3-0.3-0.5-0.5c-0.6-0.6-1.4-1.2-2-1.9
			c-0.8-0.9-2.8-3.5-4.5-5.8c-0.6-0.8-1.2-1.6-1.7-2.3c-0.8-1-1.5-1.9-2.2-2.7c-1-1.1-1.9-2.1-2.6-3.3l-0.5-0.8
			c-1.3-2.1-3-4.9-4.3-6.2c-0.7-0.7-1.6-1.5-2.5-2.3c-0.8-0.7-1.7-1.5-2.4-2.2L255,22c-1-1-1.4-1.4-1.9-1.9
			c-0.3-0.3-0.6-0.3-0.8-0.2c-0.4,0.2-0.7,0.8-0.8,1.7c-0.1,0.7,0.1,1.7,0.2,2.6c0.1,0.7,0.2,1.4,0.1,1.8c-0.1,0.9,1.3,4.2,1.7,5
			c0.4,0.7,2.2,4,3.6,5.3c0.7,0.7,1.6,1.5,2.6,2.3c0.2,0.2,0.4,0.4,0.6,0.6c-0.2-0.1-0.5-0.2-0.7-0.4c-0.4-0.2-0.9-0.6-1.5-1
			c-1-0.7-2.1-1.4-3-1.9c-1.4-0.8-6.2-3.1-9.1-3.9c-2.7-0.7-7.4-1-8.9-0.5c-0.4,0.1-0.9,0.2-1.5,0.3c-1.5,0.3-3.1,0.6-3.2,1.4
			c-0.1,0.7,0.6,1.1,1.8,1.6c0.6,0.3,1.3,0.7,2.1,1.2c1,0.6,1.8,1.1,2.4,1.4c0.9,0.5,1.6,0.9,2.5,1.6c1.2,0.9,3.7,2.2,4.9,2.9
			l-0.2,0.1c-1.3,0.5-2.4,0.9-3,1.4c-0.9,0.7-1.8,1.7-1.8,1.7c-1.1,1-1.5,1.7-1.4,2.3c0.1,0.3,0.5,0.6,1,0.7
			c0.7,0.1,1.7,0.1,2.7,0.1c1.6,0,3.2,0,3.7,0.6c1,1,5.2,1.1,7.2,0.9c0.7,0,1.5,0,2.3,0c1.6,0,3.1,0.1,4-0.4c1.4-0.7,2.3-1,6-0.3
			c3.4,0.7,7,1.5,8.5,2.8c0.6,0.5,2.1,1.6,3.8,2.8c2.4,1.7,5.2,3.6,6.2,4.6c1.7,1.7,8,8.1,9.2,9.5c0.6,0.8,1,1.3,1.2,1.7
			c0.1,0.1,0.1,0.2,0.2,0.3c0,0,0,0-0.1,0c-0.3-0.2-0.7-0.5-1.1-0.8c-1.4-1.1-6.5-4.2-8.6-5.2c-2.2-1-5.2-1.8-6.3-2.1
			c-0.8-0.2-1.8-0.3-2.8-0.4c-0.6-0.1-1.1-0.1-1.6-0.2c-0.8-0.1-1.8-0.1-2.2,0.4c-0.2,0.3-0.2,0.6-0.1,1c0.2,0.6,1,1.5,1.9,2.5
			c0.7,0.8,1.4,1.5,1.7,2.1c0.7,1.3,3.7,3.6,5.3,4.3c1.5,0.7,5.1,2.8,6.5,4.2c1.5,1.4,6.1,4.2,8.3,4.2c2.2-0.1,3.3,0.4,4.3,1.2
			c0.7,0.5,1.2,1.1,1.5,1.5c0,0.6-0.1,2-0.2,2.9c-0.1,0.5-0.3,2.4,0,3.8c0.2,1.2,0.1,3.9-0.1,5.3c-0.3,1.4-0.3,1.7-0.2,2.6
			c0.1,0.5,0.5,1.5,1,2.6c0.4,1,0.9,2,1,2.6c0.2,0.8,1,2.8,1.6,4.2c-0.2-0.3-0.5-0.6-0.8-0.9c-1-1-3.4-3-4.9-4.1s-4.9-1.9-6.1-2.1
			c-0.5-0.1-1.3,0-2,0.1s-1.4,0.1-1.9,0.1h-0.2c-1-0.2-2.3-0.4-3.6-0.3c-0.6,0-0.9,0.2-1,0.4c-0.1,0.3,0.2,0.7,0.6,1.1
			c0.4,0.4,0.8,1.1,1.2,1.7c0.4,0.6,0.8,1.1,1.1,1.6c0.3,0.3,0.6,0.8,0.9,1.2c0.5,0.7,1,1.5,1.5,2c0.3,0.3,0.9,0.7,1.6,1.2
			c0.9,0.7,2,1.4,2.3,1.9c0.6,0.9,1,1.3,2.4,2.7c1.5,1.6,4.5,3,5.6,3.5c1.8,0.8,2.3,1.2,3.1,2c0.7,0.7,2.1,1.6,3.7,2.5l0.6,0.4
			c0,0.9-0.1,5.6,1.3,7.9c0.5,0.8,1.1,1.7,1.6,2.5c1.2,1.8,2.5,3.7,2.7,4.7c0.2,1.2,0.2,3.7,0.1,4.9c-0.4-0.4-0.8-0.9-1.2-1.3
			c-0.9-0.9-1.6-1.7-2-2.2c-0.5-0.7-3-4.4-5.5-5.7c-0.3-0.1-0.6-0.3-0.8-0.4c-1.8-0.9-3.5-1.8-6.3-2.2c-1-0.1-1.9-0.3-2.6-0.5
			c-1.8-0.4-3.2-0.7-4.7-0.2c-0.3,0.1-0.5,0.2-0.8,0.2c-1.4,0.4-2.7,0.8-3,1.4c-0.1,0.2-0.1,0.4,0,0.6c0.2,0.6,1,1.1,1.9,1.8
			c0.7,0.5,1.4,0.9,1.9,1.5c1.4,1.4,3.5,5.4,3.8,5.9c0.8,1.5,3.6,3.4,5.4,4.2c1.1,0.5,2.6,2,4,3.4c0.9,0.8,1.7,1.7,2.3,2.1
			c1.1,0.8,3.6,2.2,5.7,3.4l0.8,0.4c0,1.1-0.2,4.4-0.5,6.8c-0.2,2.3-0.4,4.8-0.5,5.9c-0.5-0.4-1.1-0.7-1.7-0.8
			c-1.4-0.2-2.8,0.4-3.5,1.7c-0.1-0.5-0.2-1.2-0.3-1.9c-0.2-1.1-0.4-2.4-0.6-3.9c-0.3-2.4-0.4-2.7-0.9-4.9c-0.1-0.6-0.3-1.2-0.5-2.1
			c-0.9-3.8-3.3-6.3-4.5-7.5c-0.2-0.2-0.3-0.3-0.4-0.5c-0.2-0.2-0.4-0.3-0.6-0.3c-0.4,0.1-0.7,0.7-0.9,1.9c-0.1,0.4-0.3,0.8-0.5,1.3
			c-0.3,0.7-0.8,1.5-1,2.6c-0.5,2-0.9,4.1-1,5c0,0,0,0,0,0.1c-0.1-0.1-0.2-0.4-0.4-0.6c-0.2-0.4-0.4-0.8-0.7-1.2
			c-0.7-1-3.1-2.8-4.2-3.7l-0.2-0.2c-0.5-0.4-1.3-1.4-2-2.4c-0.6-0.8-1.1-1.5-1.5-1.8c-0.3-0.3-0.6-0.4-0.9-0.4
			c-0.5,0.1-1,0.6-1.3,1.2c-0.5,0.9-0.9,3.1-0.7,4.9c0.1,1.2,0.6,2,1,2.7c0.2,0.3,0.4,0.6,0.4,0.8c0.2,0.6,0.2,1.6,0.1,2.7
			c0,0.3,0,0.6,0,0.9c0,1.5,1.4,3.6,2.5,5.3c1.2,1.7,1.9,3.5,1.9,4.3c0,0.9,0.8,3.2,1.5,5.2c0.4,1.1,1.3,2.6,2.3,4.1
			c0.7,1.1,1.4,2.2,1.9,3.2c1.1,2.1,1,5,0.9,6.5v0.2c-0.1,1.8-0.2,4.9-0.8,6.3c-0.2,0.6-0.7,1.5-1.1,2.4c-0.8,1.7-1.3,2.7-1.3,3.1
			c0,0.3,0.1,0.6,0.1,0.8c0.1,0.3,0.2,0.6,0,0.8s-0.4,0.4-0.6,0.5c-0.5-1.1-1.5-1.9-2.7-2.1c-0.9-0.2-1.8,0.1-2.5,0.6
			s-1.2,1.3-1.3,2.2c-0.2,1.4,0.5,2.8,1.8,3.5c-0.4,0.4-1.3,1.2-2.3,1.9c-0.7,0.5-2.4,1.7-4,2.9s-3.2,2.3-3.8,2.8
			c-1.3,1-5.4,3.6-7.4,4.7c-1.8,1.1-3.5,1.7-4.6,2.1c-0.2,0.1-0.3,0.1-0.5,0.2l0,0c0.2-0.2,0.5-0.6,0.8-0.9c0.2-0.2,0.5-0.5,0.7-0.7
			c1-1.1,3.3-3.4,4.4-4.3c0.3-0.3,0.9-0.8,1.6-1.4c1.5-1.3,3.5-3.1,4.4-3.9c1.6-1.4,4.3-5.1,4.6-5.6c0.6-0.9,1.4-2.8,2.2-4.6
			c0.4-1,0.9-2.1,1.3-3c1.1-2.3,2.3-5.4,3.1-7.6c0.7-2,0.5-4,0.3-6.2c0-0.3-0.1-0.5-0.1-0.8c-0.2-2,0.3-4.7,0.5-6.2
			c0.1-0.3,0.1-0.6,0.1-0.8c0.1-0.6-0.1-0.9-0.3-1c-0.4-0.3-1-0.2-1.6,0.1s-1.2,0.9-1.9,1.5c-0.3,0.3-0.7,0.7-1.1,1
			c-1.1,1-2.4,2.4-3.9,4.5c-0.9,1.2-1.4,2.5-2,3.9c-0.5,1.2-1,2.4-1.8,3.7c-1.6,2.8-1.6,5.6-1.7,6.8c0,0.1,0,0.2,0,0.3
			c0,1-0.4,1.8-0.8,2.4c-0.2,0.3-0.4,0.7-0.7,1.1c-0.4,0.5-0.8,1.2-1.4,2.2c-0.9,1.4-1.2,3.2-1.7,5.6c-0.1,0.7-0.3,1.4-0.4,2.2
			c-0.8,3.6-3.1,6.4-3.8,7.2c-0.8,0.8-2.8,2.6-4.1,3.6c-1.3,1-2.3,3.1-2.6,3.9c-0.3,0.8-1,1-1.8,1.2c-0.4,0.1-1.1,0.4-1.9,0.6
			c-0.7,0.3-1.6,0.6-2.3,0.8c-0.9,0.3-3.3,1.3-5.2,2.2c-1.1,0.5-2,0.9-2.4,1.1c-1.2,0.5-4.6,1.5-5.8,1.8h-0.2
			c-1.2,0.3-4.5,1.1-5.3,1.1l0,0c-0.2,0-0.2,0-0.2-0.1s0.3-0.5,0.9-0.9c0.8-0.5,2.1-1,3.4-1.5l0.3-0.1c0.3-0.1,0.8-0.3,1.3-0.5
			c1.7-0.7,4-1.6,5.5-2.1c2-0.6,4.3-1.8,5.2-2.5c0.2-0.2,0.4-0.4,0.6-0.6c0.7-0.6,1.4-1.3,2.4-1.7c1.3-0.5,1.8-1.4,2.2-2.3
			c0.3-0.8,0.5-1.1,1-1.9l0.1-0.1c0.4-0.6,1.4-1.5,2.4-2.4c0.4-0.4,0.9-0.8,1.2-1.1c1.1-1,1.4-2.5,1.9-4.3l0.1-0.5
			c0.4-1.4,0.7-1.9,1.1-2.5c0.2-0.3,0.4-0.7,0.7-1.1c0.6-1.1,2-2.4,2.7-3.1c0.1-0.1,0.2-0.2,0.3-0.3c0.4-0.4,0.6-1.4,0.4-2
			c-0.1-0.3-0.2-0.5-0.4-0.6c-0.5-0.2-1.6,0.4-2.8,1c-1,0.6-2.4,1.2-3,1.3c-0.7,0.1-2.4,0.8-3.7,1.5c-0.8,0.5-2.5,2-5.1,4.7
			c-0.5,0.5-0.9,0.5-1.1,0.4V211c0-0.4,0-0.7,0.1-0.9c0-0.3,0.6-1.9,1.2-3.2l0.1-0.4c0.5-1.1,1-2.4,1.1-2.9c0-0.3,0-0.9-0.3-1.1
			c-0.2-0.2-0.6-0.1-0.9,0.1c-0.9,0.5-3.1,2-4,2.9s-3,2.4-3.8,2.9c-1.2,0.8-2.2,1.8-2.5,2.4c-0.4,0.8-1.7,3-2.6,3.8
			c-0.3,0.2-0.5,0.4-0.8,0.6c-0.5,0.4-1,0.7-1.5,1.4c-0.7,1-2.5,4.1-3.5,6.1l-0.5,1c-1,2-2.4,4.7-3.2,5.9c-0.1,0.2-0.2,0.4-0.4,0.6
			c-0.9,1.5-2.2,3.5-4.8,4.7c-3,1.3-4.5,1.6-7,1.9s-8.2,0.6-13.3,0.6h-1c-5.4,0-14.5-0.1-23.4,1.6c-2.3,0.4-4.9,1.1-7.4,1.8
			c-2.5-0.7-5.1-1.3-7.4-1.8c-8.9-1.7-18-1.6-23.4-1.6h-1c-5.1,0-10.8-0.3-13.3-0.6c-2.5-0.3-4-0.6-7-1.9c-2.6-1.2-3.9-3.2-4.8-4.7
			c-0.1-0.2-0.2-0.4-0.4-0.6c-0.8-1.2-2.2-4-3.2-6l-0.5-0.9c-1-2-2.8-5.1-3.5-6.1c-0.5-0.7-1-1-1.5-1.4c-0.2-0.2-0.5-0.3-0.8-0.6
			c-0.9-0.7-2.2-3-2.6-3.8c-0.3-0.7-1.3-1.6-2.5-2.4c-1.3-0.9-3-2.1-3.8-2.9c-0.9-0.9-3.1-2.4-4-2.9c-0.4-0.2-0.7-0.3-0.9-0.1
			c-0.3,0.2-0.4,0.8-0.3,1.1c0.1,0.5,0.6,1.7,1.1,2.9l0.1,0.4c0.6,1.3,1.2,2.9,1.2,3.2c0,0.1,0,0.5,0.1,0.9v0.1
			c-0.2,0.1-0.6,0.1-1.1-0.5c-2.5-2.7-4.2-4.2-5.1-4.7c-1.3-0.7-3-1.3-3.7-1.5c-0.7-0.1-2-0.8-3-1.3c-1.2-0.7-2.3-1.2-2.8-1
			c-0.2,0.1-0.3,0.3-0.4,0.6c-0.1,0.6,0,1.6,0.4,2c0.1,0.1,0.2,0.2,0.3,0.3c0.8,0.7,2.2,2,2.7,3.1c0.2,0.5,0.4,0.8,0.7,1.1
			c0.4,0.6,0.8,1.2,1.1,2.5l0.1,0.5c0.5,1.8,0.8,3.3,1.9,4.3c0.3,0.3,0.8,0.7,1.2,1.1c1,0.9,2,1.8,2.4,2.4l0.1,0.1
			c0.5,0.8,0.7,1.1,1,1.9c0.4,0.9,0.8,1.8,2.2,2.3c0.9,0.4,1.7,1.1,2.4,1.7c0.2,0.2,0.4,0.4,0.6,0.6c0.9,0.7,3.2,1.8,5.2,2.5
			c1.5,0.5,3.8,1.4,5.5,2.1c0.5,0.2,1,0.4,1.3,0.5l0.3,0.1c1.3,0.5,2.6,1,3.4,1.5c0.7,0.4,0.9,0.8,0.9,0.9c0,0-0.1,0.1-0.2,0.1l0,0
			c-0.8,0-4-0.8-5.3-1.1h-0.2c-1.2-0.3-4.6-1.3-5.8-1.8c-0.4-0.2-1.4-0.6-2.4-1.1c-1.9-0.8-4.2-1.9-5.2-2.2
			c-0.7-0.2-1.6-0.5-2.3-0.8c-0.8-0.3-1.5-0.5-1.9-0.6c-0.7-0.2-1.5-0.4-1.8-1.2c-0.3-0.7-1.2-2.9-2.6-3.9c-1.3-1-3.4-2.8-4.1-3.6
			c-0.7-0.8-3.1-3.6-3.8-7.2c-0.2-0.8-0.3-1.5-0.4-2.2c-0.5-2.5-0.8-4.3-1.7-5.6c-0.6-1-1.1-1.7-1.4-2.2c-0.3-0.4-0.5-0.7-0.7-1.1
			c-0.4-0.7-0.8-1.4-0.8-2.4c0-0.1,0-0.2,0-0.3c0-1.2-0.1-4-1.7-6.8c-0.8-1.3-1.3-2.6-1.8-3.7c-0.6-1.4-1.1-2.7-2-3.9
			c-1.6-2.1-2.8-3.5-3.9-4.5c-0.4-0.3-0.7-0.7-1.1-1c-0.7-0.6-1.3-1.2-1.9-1.5c-0.6-0.3-1.2-0.3-1.6-0.1c-0.2,0.1-0.4,0.4-0.3,1
			c0,0.2,0.1,0.5,0.1,0.8c0.3,1.5,0.7,4.2,0.5,6.2c0,0.3-0.1,0.5-0.1,0.8c-0.2,2.1-0.4,4.2,0.3,6.2c0.8,2.2,2,5.3,3.1,7.6
			c0.4,0.8,0.9,1.9,1.3,3c0.8,1.8,1.6,3.7,2.2,4.6c0.3,0.4,2.9,4.2,4.6,5.6c1,0.8,3,2.6,4.5,3.9c0.7,0.6,1.3,1.1,1.6,1.4
			c1,0.9,3.3,3.2,4.4,4.3c0.2,0.2,0.5,0.5,0.7,0.7c0.3,0.3,0.6,0.7,0.8,0.9l0,0c-0.1,0-0.3-0.1-0.5-0.2c-1.1-0.4-2.8-1-4.6-2.1
			c-1.9-1.2-6-3.7-7.4-4.7c-0.6-0.5-2.2-1.6-3.8-2.8c-1.6-1.2-3.3-2.4-4-2.9c-0.9-0.7-1.8-1.5-2.3-1.9c1.2-0.7,1.9-2.1,1.8-3.5
			c-0.1-0.9-0.6-1.7-1.3-2.2s-1.6-0.7-2.5-0.6c-1.2,0.2-2.2,1-2.7,2.1c-0.2-0.1-0.4-0.3-0.6-0.5c-0.1-0.2-0.1-0.5,0-0.8
			s0.2-0.5,0.1-0.8c0-0.4-0.5-1.4-1.3-3.1c-0.4-0.9-0.8-1.8-1.1-2.4c-0.6-1.4-0.7-4.6-0.8-6.3v-0.2c0-1.5-0.1-4.4,0.9-6.5
			c0.5-1,1.2-2.1,1.9-3.2c0.9-1.5,1.9-2.9,2.3-4.1c0.7-2.1,1.5-4.3,1.5-5.2c0-0.8,0.8-2.6,1.9-4.3c1.1-1.7,2.6-3.8,2.5-5.3
			c0-0.3,0-0.6,0-0.9c0-1.1,0-2.1,0.1-2.7c0.1-0.2,0.2-0.5,0.4-0.8c0.4-0.7,0.9-1.5,1-2.7c0.1-1.8-0.2-4-0.7-4.9
			c-0.4-0.6-0.8-1.2-1.3-1.2c-0.3,0-0.6,0.1-0.9,0.4c-0.4,0.4-0.9,1.1-1.5,1.8c-0.7,0.9-1.5,2-2,2.4l-0.2,0.2
			c-1.1,0.9-3.5,2.7-4.2,3.7c-0.3,0.4-0.5,0.8-0.7,1.2c-0.1,0.2-0.3,0.5-0.4,0.6c0,0,0,0,0-0.1c-0.1-0.9-0.5-3-1-5
			c-0.3-1.2-0.7-2-1-2.6c-0.2-0.5-0.5-0.9-0.5-1.3c-0.3-1.2-0.5-1.8-0.9-1.9c-0.2,0-0.4,0-0.6,0.3c-0.1,0.1-0.2,0.3-0.4,0.5
			c-1.1,1.2-3.5,3.7-4.5,7.5c-0.2,0.9-0.4,1.6-0.5,2.1c-0.6,2.2-0.6,2.5-0.9,4.9c-0.2,1.5-0.4,2.8-0.6,3.9c-0.1,0.8-0.2,1.4-0.3,1.9
			c-0.7-1.2-2-1.9-3.5-1.7c-0.6,0.1-1.2,0.4-1.7,0.8c-0.1-1.1-0.2-3.6-0.5-5.9c-0.3-2.5-0.4-5.9-0.5-6.8l0.8-0.4
			c2.1-1.2,4.7-2.6,5.7-3.4c0.6-0.5,1.4-1.3,2.3-2.1c1.4-1.4,2.9-2.9,4-3.4c1.7-0.8,4.5-2.7,5.4-4.2c0.2-0.4,2.4-4.4,3.8-5.9
			c0.5-0.5,1.2-1,1.9-1.5c0.9-0.6,1.7-1.2,1.9-1.8c0.1-0.2,0.1-0.4,0-0.6c-0.3-0.6-1.5-1-3-1.4c-0.3-0.1-0.5-0.2-0.8-0.2
			c-1.4-0.4-2.9-0.1-4.7,0.2c-0.8,0.2-1.6,0.3-2.6,0.5c-2.8,0.4-4.5,1.3-6.4,2.2c-0.3,0.1-0.6,0.3-0.8,0.4c-2.4,1.2-5,5-5.5,5.7
			c-0.4,0.5-1.1,1.3-2,2.2c-0.4,0.4-0.8,0.8-1.2,1.3c0-1.2-0.1-3.7,0.1-4.9c0.2-1.1,1.5-2.9,2.7-4.7c0.6-0.8,1.1-1.7,1.6-2.5
			c1.4-2.3,1.3-7,1.3-7.9l0.6-0.4c1.6-0.9,3-1.8,3.7-2.5c0.8-0.8,1.3-1.2,3.1-2c1.2-0.5,4.1-1.9,5.6-3.5c1.4-1.4,1.8-1.8,2.4-2.7
			c0.4-0.5,1.4-1.3,2.3-1.9c0.6-0.4,1.2-0.9,1.6-1.2c0.5-0.5,1-1.3,1.6-2c0.3-0.5,0.6-0.9,0.9-1.2c0.3-0.4,0.7-1,1.1-1.6
			c0.4-0.6,0.9-1.3,1.2-1.7c0.4-0.4,0.7-0.8,0.6-1.1c-0.1-0.2-0.4-0.4-1-0.4c-1.2-0.1-2.6,0.2-3.5,0.3h-0.2c-0.5,0.1-1.2,0-1.9-0.1
			s-1.4-0.1-2-0.1c-1.1,0.2-4.6,1-6.1,2.1s-3.9,3.1-4.9,4.1c-0.3,0.3-0.6,0.6-0.8,0.9c0.6-1.4,1.4-3.4,1.6-4.2
			c0.2-0.6,0.6-1.6,1-2.6c0.5-1.1,0.9-2.1,1-2.6c0.1-0.9,0.1-1.2-0.2-2.6c-0.3-1.4-0.4-4.1-0.1-5.3c0.3-1.4,0.1-3.2,0-3.8
			c-0.1-0.8-0.2-2.3-0.2-2.9c0.3-0.4,0.8-1,1.5-1.5c1-0.7,2.1-1.2,4.3-1.2c0,0,0,0,0.1,0c2.2,0,6.7-2.8,8.2-4.2
			c1.5-1.4,5-3.5,6.5-4.2c1.6-0.7,4.6-3,5.3-4.3c0.3-0.6,1-1.3,1.7-2.1c0.8-0.9,1.6-1.8,1.9-2.5c0.2-0.4,0.1-0.8-0.1-1
			c-0.4-0.5-1.4-0.5-2.2-0.4c-0.5,0.1-1.1,0.1-1.6,0.2c-1,0.1-2,0.2-2.8,0.4c-1.1,0.2-4.1,1-6.3,2.1c-2.1,1-7.2,4.2-8.6,5.2
			c-0.4,0.3-0.7,0.6-1.1,0.8c0,0,0,0-0.1,0c0.1-0.1,0.1-0.2,0.2-0.3c0.3-0.4,0.6-0.9,1.2-1.7c1.2-1.4,7.5-7.8,9.2-9.5
			c1-1,3.8-2.9,6.2-4.6c1.7-1.2,3.3-2.3,3.8-2.8c1.4-1.3,5.1-2.1,8.5-2.8c3.8-0.7,4.6-0.4,6,0.3c1,0.5,2.5,0.4,4,0.4
			c0.8,0,1.5,0,2.3,0c2.1,0.1,6.2,0.1,7.2-0.9c0.5-0.5,2.2-0.6,3.7-0.6c0.9,0,1.9,0,2.7-0.1c0.6-0.1,0.9-0.3,1-0.7
			c0.2-0.5-0.3-1.3-1.3-2.3c0,0-1-1-1.9-1.7c-0.6-0.5-1.7-0.9-3-1.4l-0.2-0.1c1.3-0.7,3.7-2,4.9-2.9c0.9-0.7,1.6-1.1,2.5-1.6
			c0.7-0.4,1.4-0.8,2.4-1.4c0.8-0.5,1.6-0.9,2.2-1.2c1.1-0.6,1.8-0.9,1.8-1.6c-0.1-0.8-1.6-1.1-3.2-1.4c-0.6-0.1-1.1-0.2-1.5-0.3
			c-1.6-0.4-6.2-0.2-8.9,0.5c-2.9,0.7-7.7,3.1-9.1,3.9c-1,0.5-2.1,1.3-3,1.9c-0.6,0.4-1.2,0.8-1.5,1c-0.2,0.1-0.5,0.3-0.7,0.4
			c0.2-0.2,0.4-0.4,0.6-0.6c0.9-0.8,1.9-1.7,2.6-2.3c1.4-1.3,3.2-4.6,3.6-5.3c0.4-0.8,1.8-4,1.7-5c0-0.4,0-1,0.1-1.8
			c0.1-0.9,0.2-1.8,0.2-2.6c-0.1-0.9-0.4-1.6-0.8-1.7c-0.2-0.1-0.4-0.1-0.8,0.2c-0.6,0.5-0.9,0.9-1.9,1.9l-0.6,0.7
			c-0.7,0.7-1.6,1.5-2.4,2.2c-0.9,0.8-1.8,1.5-2.5,2.3c-1.2,1.3-3,4.1-4.3,6.2l0.2,1.4c-0.7,1.2-1.6,2.2-2.6,3.3
			c-0.8,0.8-1.5,1.7-2.3,2.7c-0.5,0.6-1.1,1.4-1.7,2.3c-1.7,2.3-3.7,4.9-4.5,5.8c-0.6,0.7-1.3,1.3-2,1.9c-0.2,0.2-0.4,0.3-0.5,0.5
			c0-0.2,0-0.5,0-0.7c-0.1-0.7-0.5-1.4-1-1.8c-0.6-0.4-1.3-0.6-2.1-0.5l0,0l0.1-0.2c0.5-0.9,1.1-1.8,1.5-2.5c0.6-0.9,1.3-3,1.8-4.8
			c0.2-0.5,0.3-1,0.4-1.4c0.6-1.7,1.6-8.1,1.3-9.9c-0.1-0.9-0.3-1.4-0.7-1.5c-0.3-0.2-0.8,0-1.3,0.3c-1.1,0.8-1.9,1.8-2.6,3.4
			c-0.5,1.2-1.8,2.3-3,3.5c-0.5,0.5-1,0.9-1.4,1.4c-0.9,1-1.6,1.6-2.4,2.4c-0.4,0.4-0.8,0.8-1.4,1.3c-1.2,1.2-2.5,4.2-3,5.5
			l-0.2-1.2c-0.1-1.2-0.8-3.6-1.7-5.8c-0.9-2.3-1.9-4-2.7-4.7c-0.5-0.4-1-1.1-1.5-1.7c-0.4-0.5-0.8-1-1.1-1.3
			c-0.4-0.4-0.7-0.6-1.1-0.5c-0.3,0-0.5,0.2-0.7,0.6c-0.3,0.6-0.5,2.4-0.2,5.1c0.2,1.8,0,2.6-0.3,4.1c-0.1,0.7-0.3,1.5-0.5,2.6
			c-0.5,2.7,0.1,5.2,0.8,7.9c0.2,0.9,0.4,1.8,0.6,2.8c0.7,3.9,1.3,8.6,1.5,10.4c0.2,1.4-0.5,4.7-1,6.6c-0.5-0.9-1.6-1.5-2.8-1.3
			c-1.5,0.3-2.6,1.7-2.4,3.2c0.1,0.7,0.5,1.4,1,1.8c0.6,0.4,1.3,0.6,2.1,0.5c0.1,0,0.1,0,0.2,0c-0.2,0.3-0.3,0.5-0.4,0.7
			c-0.1,0.4-1.1,1.7-2.5,3.7h-0.1c-0.1,0-0.2,0-0.3-0.1s-0.2-0.1-0.4,0c-0.3,0.1-0.6,0.7-0.8,1.3c0,0.1-0.1,0.2-0.1,0.3
			c-0.4,0.8-1.2,2.9-1.6,3.5c-0.3,0.5-1.2,2.2-1.9,3.5c-0.3-0.2-0.7-0.6-1.2-1.1s-1-2.3-1.5-4.3c-0.4-1.6-0.8-3.2-1.3-4.4
			c-1.2-2.9-3.9-5.5-4.9-6.3c-0.8-0.6-2.3-2.6-4.4-5.5c-0.5-0.7-0.9-0.9-1.2-0.8c-0.5,0.1-0.6,1-0.7,1.7v0.4
			c-0.1,1.6-0.2,4.9,1.2,8.1c1.2,2.6,1.5,7,1.7,9.9c0.1,0.9,0.1,1.6,0.2,2.1c0.3,2.2,1.5,6.9,3.1,8.7c1,1.2,2.2,3.1,2.8,4.1
			c0,0.3,0.1,0.8,0.1,1.2c0.1,0.6,0.1,2.3,0.1,4.7c0,1.6,0,3,0.2,4.2c-0.1,0.2-0.4,0.6-0.7,1.1c-0.6,1-1.8,4.9-2.2,6.7
			c-0.3,1.1-0.3,2.9-0.4,4.6c0,1.3-0.1,2.6-0.2,3.3c-0.4,1.6-0.5,5.5-0.5,6.2c0,0.3,0,0.4,0,0.4s-0.1-0.1-0.2-0.4v-0.1
			c0-0.3,0.1-0.8,0-1.3c-0.1-0.6,0-1.5,0.2-2.4c0.1-0.6,0.2-1.2,0.2-1.8c0-0.4,0.1-1,0.2-1.7c0.2-1.6,0.5-3.7,0.3-5.4
			c-0.2-1.3-0.6-3.7-1.1-5.8c-0.4-1.8-0.7-3.5-0.8-4.3c-0.2-1.7-0.9-4.8-2-6.6c-0.4-0.7-1-2-1.5-3.3c-0.8-1.9-1.7-4-2.5-5.2
			c-0.7-1-1.4-1.5-2-1.3c-0.4,0.1-0.7,0.5-0.9,1.1c-0.3,1.1-1,5.2-1,6.6c0,0.7-0.1,2.2-0.2,3.6c-0.1,1.5-0.2,2.8-0.2,3.2
			c-0.1-0.1-0.3-0.2-0.5-0.4c-0.3-0.2-0.7-0.5-1.1-0.9c-0.4-0.3-1.2-0.9-2-1.6c-1.5-1.2-3.2-2.7-3.9-3s-1.3-0.3-1.7,0
			c-0.2,0.1-0.4,0.4-0.3,1c0.1,0.6,0.3,1.7,0.6,2.7c0.2,1,0.5,1.9,0.5,2.4c0.1,1,0.3,2.8,0.7,3.6l0,0c0.4,0.8,1.2,2.3,2,6.3
			c0.7,3.1,2.3,5,3.7,6.6c0.5,0.5,0.9,1,1.2,1.5c1.3,1.9,6.4,7.4,8.7,9.1c2.4,1.7,3.3,3.9,3.5,4.9s1,6.9,1.2,8.8
			c-1,2-1.5,3.4-1.8,4.7c-0.1,0.7-0.3,1.6-0.5,2.5c-0.5,2.2-1,4.4-1,5.1c-0.1-0.3-0.4-0.7-0.6-1.4c-0.4-1-1.1-4.8-1.7-8.5
			c-0.2-1-0.4-2-0.5-3c-0.8-4.4-3.7-8-7.9-12.1c-3-2.9-6.7-6.3-7.6-5.6c-0.5,0.4-0.2,1.7,0.1,3.1c0.1,0.5,0.2,1.1,0.3,1.5
			c0.1,0.9,0.2,2,0.2,2.8c-0.3-0.2-0.6-0.3-0.8-0.4c-0.2-0.1-0.4-0.2-0.6-0.3c-2.3-1.1-4.2-2-4.8-1.6c-0.5,0.3-0.3,0.8,0,1.5
			c0.2,0.5,0.4,1.1,0.6,1.8c0.2,1.1,0.8,2.4,1.5,3.9c0.6,1.4,1.3,3,1.9,4.7c1.2,3.6,5.5,8.1,8.1,10.3c2.6,2.1,9,7.9,10.3,9.2
			c0.7,0.6,1.4,1.5,2.2,2.4c0.9,1.1,1.8,2.1,2.6,2.9l0.5,0.4c1.2,1.1,1.9,1.7,2.9,2.3c1,0.5,1.6,2,2.4,4.8c0.8,2.6,2.6,6.6,4.6,10.9
			c1.8,3.9,6.7,10.8,7.8,12c0.5,0.6,1.7,1.9,1.6,2.2c0,0,0,0-0.1,0c-0.7,0.1-2.1-0.8-3.5-1.7c-1.2-0.8-1.5-2.2-1.8-3.6
			c-0.1-0.4-0.2-0.9-0.3-1.3c-0.2-0.8-0.9-1.7-1.8-2.9c-0.9-1.2-2-2.7-2.8-4.5c-1.7-3.4-5.6-6.9-7.5-7.6c-1-0.4-1.4-1.3-1.9-2.3
			c-0.4-0.7-0.7-1.5-1.3-2.1c-0.9-1-3.2-2.6-6.8-4.8l-0.2-0.1c-0.3-0.2-0.6-0.2-0.8-0.1c-0.3,0.2-0.3,0.9-0.2,1.6
			c0,0.2,0,0.4,0.1,0.6c0.1,1,0.2,2.5,0.9,4.2c0.6,1.4,0.7,3.4,0.8,5.3c0.1,0.9,0.1,1.7,0.2,2.5c0.3,2.5,3.2,7.5,5.2,9.1
			c1.1,0.9,2.9,2.8,4.6,4.6c1.4,1.5,2.6,2.8,3.2,3.3c1.4,1.1,5.5,1.4,6.9,1.3c0.7-0.1,1.8,0.6,3,1.2c1.1,0.6,2.3,1.3,3.4,1.5
			c0.9,0.2,1.6,0.2,2,0.2c-0.1,0.4-0.1,0.8-0.1,1.3c0.1,0.9,0.6,1.7,1.3,2.2s1.6,0.7,2.5,0.6c1.1-0.2,2-0.9,2.6-1.9
			c0.8,0.7,2.9,2.5,4.6,3.5c1,0.6,2.8,2,4.6,3.3s3.6,2.6,4.1,2.9c0.2,0.1,0.3,0.2,0.4,0.2c-0.1,0-0.4,0-0.8-0.1
			c-0.2-0.1-0.5-0.1-0.7-0.2c-0.6-0.2-1.3-0.5-2.6-0.7c-1.8-0.3-5.2-3-6.6-4.2c-1.7-1.4-6.9-2.4-8.7-2.5c-0.4,0-1.2-0.1-2.1-0.1
			c-3.2-0.2-8.7-0.7-10.6-0.2c-2.5,0.6-2.7,0.6-4.9,0.8s-3.1,0.5-4.5,1.8c-0.5,0.4-1.2,1.1-2,1.8c-1.7,1.5-3.4,3-3.7,3.5
			c-0.3,0.5-0.4,0.9-0.2,1.2c0.2,0.3,0.7,0.3,1.6-0.1c1.7-0.7,4.8-0.1,6.3,0.4c0.6,0.2,1.7,0.5,2.9,0.8c1.7,0.4,3.9,1,5.6,1.5
			c1.7,0.5,4.4,0.5,6.9,0.6c1.7,0,3.3,0,4.4,0.2c2.7,0.5,6.6-0.2,9.4-1.1c2.3-0.7,3.3-0.7,4.9-0.6c0.5,0,1,0,1.6,0
			c2.3,0,5.2,0.7,6,0.9c-0.2,0.6-0.3,1.2-0.3,1.8c0.1,0.9,0.6,1.7,1.3,2.2c0.7,0.5,1.6,0.7,2.5,0.6c0.1,0,0.1,0,0.2,0
			c0.8,1.4,2.6,2,4.1,1.3c0.8-0.3,1.5-1,1.9-1.8c1.2,0.5,7.5,3.1,9.8,4c2.6,1,8.2,3,9.4,3.3c0.5,0.1,0.9,0.2,1.3,0.2l0,0
			c-1.3,0.3-5.4,1.3-6.9,1.1c-1.6-0.2-8.1-2-9.7-2.8c-1.4-0.7-2.9-1.2-4.3-0.7c-0.7,0.2-1.7-0.1-2.7-0.4c-0.7-0.2-1.4-0.5-1.9-0.5
			c-0.2,0-0.3,0-0.5,0c-1.5,0-4.2-0.1-7.1,0.9c-1.9,0.6-3.5,0.8-5,1c-1.1,0.1-2.1,0.3-3.1,0.5c-2.2,0.7-6.8,3.8-7.8,5.1
			c-0.1,0.1-0.2,0.3-0.3,0.4c-0.6,0.8-1.1,1.3-0.8,1.7c0.1,0.3,0.5,0.3,1.3,0.3c0.3,0,0.7-0.1,1.2-0.1c2.3-0.3,5.8-0.7,7.9,0.5
			c2.3,1.4,4.9,0.7,6,0.5h0.1c-0.1,0.1-0.3,0.1-0.5,0.2c-0.9,0.3-5.2,4-6.4,5.8c-0.4,0.7-1.3,1.3-2.2,1.9c-1.3,0.9-2.7,2-3.2,3.4
			c-0.3,0.8-0.5,1.5-0.7,2c-0.3,1-0.5,1.4-0.5,1.9c0,0.2,0.1,0.4,0.3,0.5c0.1,0,0.2,0.1,0.3,0.1c0.4,0,0.9-0.2,1.6-0.6
			c1-0.6,3.7-1.5,5.7-1.6c2-0.2,5.6-2.5,6.2-3.1c0.5-0.5,2.1-1.2,3.4-1c1.5,0.3,6.4-2.1,7.2-2.9c0.3-0.3,1.5-0.8,2.7-1.2
			c1.8-0.7,3.8-1.4,4.6-2.3c0.3-0.4,0.7-0.8,1-1.2c1-1.2,2-2.5,3.2-2.7c1.7-0.3,5.4-1.8,6.1-2.2c0.3-0.1,0.5-0.1,0.9-0.1
			c0.6,0,1.4,0.1,3.2-0.2c1.7-0.3,3-0.8,4.2-1.2c0.9-0.4,1.6-0.6,2.1-0.6c0.3,0,0.7,0.1,1,0.2c0.6,0.1,1.2,0.2,1.7,0.1
			c0.4-0.1,1.8,0.3,3.3,0.8c1.3,0.4,2.7,0.8,3.8,1c0.9,0.2,5.8,0.5,12,0.9c9.4,0.7,21.1,1.5,25.5,2.1c2.7,0.4,5.2,0.6,7.4,0.9
			c-1.3,0.4-2.5,0.8-3.4,1.1c-1.3,0.4-2.2,0.7-2.6,0.9c-1.5,0.4-2.1,0.6-2.5,0.9c-0.7,0.2-1.5,0.4-2.2,0.5c-1.2,0-4,0.6-5,1
			c-0.3,0.1-0.5,0.2-0.8,0.3c-0.8,0.3-1.4,0.5-1.4,0.8c0,0.1,0,0.1,0.1,0.2c0.1,0.2,0.6,0.2,1.6,0.3c0.5,0.1,1.2,0.1,1.8,0.2
			c2.1,0.4,5.4,1.3,7.7,2.7c2.5,1.5,4.8,1,5.8,0.8h0.1c0.9-0.2,1.6-0.6,1.7-1.1c0.2-0.1,0.3-0.3,0.5-0.5c0.3-0.3,0.6-0.6,1-0.9
			c0.9-0.8,5.2-3.5,8.5-5.1c3.3,1.6,7.5,4.3,8.5,5.1c0.4,0.3,0.7,0.6,1,0.9c0.2,0.2,0.4,0.3,0.5,0.5c0.1,0.5,0.8,0.9,1.7,1.1h0.1
			c1,0.2,3.3,0.7,5.8-0.8c2.3-1.4,5.6-2.4,7.7-2.7c0.7-0.1,1.3-0.2,1.8-0.2c1-0.1,1.4-0.2,1.6-0.3c0-0.1,0.1-0.1,0.1-0.2
			c0-0.3-0.6-0.5-1.4-0.8c-0.2-0.1-0.5-0.2-0.8-0.3c-1-0.4-3.8-1-5-1c-0.6,0-1.5-0.3-2.2-0.5c-0.4-0.3-1-0.5-2.5-0.9
			c-0.4-0.1-1.3-0.4-2.6-0.9c-0.9-0.3-2.1-0.7-3.4-1.1c2.2-0.2,4.8-0.5,7.4-0.9c4.4-0.6,16.1-1.5,25.5-2.1c6.2-0.4,11.1-0.8,12-0.9
			c1.1-0.2,2.5-0.6,3.8-1c1.5-0.4,2.9-0.8,3.3-0.8c0.5,0.1,1.1,0,1.7-0.1c0.3-0.1,0.7-0.1,1-0.2c0.4,0,1.1,0.2,2.1,0.6
			c1.1,0.4,2.5,1,4.2,1.2c1.7,0.3,2.6,0.2,3.2,0.2c0.4,0,0.6,0,0.9,0.1c0.7,0.4,4.3,1.9,6.1,2.2c1.2,0.2,2.2,1.5,3.2,2.7
			c0.3,0.4,0.7,0.8,1,1.2c0.8,0.9,2.8,1.6,4.6,2.3c1.2,0.5,2.4,0.9,2.7,1.2c0.8,0.8,5.7,3.2,7.2,2.9c1.3-0.3,2.9,0.5,3.4,1
			c0.6,0.5,4.2,2.9,6.2,3.1s4.7,1.1,5.7,1.6c0.7,0.4,1.2,0.6,1.6,0.6c0.1,0,0.2,0,0.3-0.1c0.2-0.1,0.2-0.2,0.3-0.5
			c0.1-0.5-0.1-0.9-0.5-1.9c-0.2-0.5-0.4-1.1-0.7-2c-0.5-1.5-1.9-2.5-3.2-3.4c-0.9-0.6-1.7-1.3-2.2-1.9c-1.1-1.8-5.5-5.5-6.4-5.8
			c-0.2-0.1-0.4-0.1-0.5-0.2h0.1c1.1,0.3,3.7,0.9,6-0.5c2.1-1.3,5.6-0.8,7.9-0.5c0.5,0.1,0.9,0.1,1.2,0.1c0.7,0.1,1.1,0,1.3-0.3
			c0.2-0.4-0.2-0.9-0.8-1.7c-0.1-0.1-0.2-0.3-0.3-0.4c-1-1.3-5.6-4.5-7.8-5.1c-0.9-0.3-2-0.4-3-0.5c-1.5-0.2-3.2-0.4-5-1
			c-2.9-1-5.6-0.9-7.1-0.9c-0.2,0-0.4,0-0.5,0c-0.6,0-1.2,0.2-1.9,0.5c-1,0.3-2,0.7-2.7,0.4c-1.4-0.5-2.9,0-4.3,0.7
			c-1.5,0.7-8,2.5-9.7,2.8c-1.5,0.2-5.5-0.8-6.9-1.1l0,0c0.4,0,0.8-0.1,1.3-0.2c1.2-0.3,6.8-2.3,9.4-3.3c2.3-0.9,8.3-3.4,9.8-4
			c0.4,0.8,1.1,1.4,1.9,1.8c1.6,0.6,3.3,0.1,4.1-1.3c0.1,0,0.1,0,0.2,0c0.9,0.2,1.8-0.1,2.5-0.6s1.2-1.3,1.3-2.2
			c0.1-0.6,0-1.2-0.3-1.8c0.8-0.2,3.7-0.8,6-0.9c0.6,0,1.1,0,1.6,0c1.6-0.1,2.6-0.1,4.9,0.6c2.8,0.9,6.7,1.5,9.4,1.1
			c1-0.2,2.6-0.2,4.4-0.2c2.4,0,5.2,0,6.9-0.6c1.7-0.5,3.9-1.1,5.6-1.5c1.2-0.3,2.2-0.6,2.9-0.8c1.5-0.4,4.6-1.1,6.3-0.4
			c0.8,0.3,1.3,0.4,1.6,0.1c0.2-0.2,0.1-0.7-0.2-1.2c-0.3-0.5-2.1-2-3.7-3.5c-0.8-0.7-1.5-1.4-2-1.8c-1.4-1.3-2.3-1.6-4.5-1.8
			s-2.3-0.2-4.9-0.8c-2-0.4-7.4,0-10.6,0.2c-0.9,0.1-1.7,0.1-2.1,0.1c-1.8,0.1-7.1,1.1-8.7,2.5c-1.7,1.4-4.8,3.9-6.6,4.2
			c-1.3,0.2-2,0.5-2.6,0.7c-0.3,0.1-0.5,0.2-0.7,0.2c-0.4,0.1-0.7,0.1-0.8,0.1c0,0,0.2-0.1,0.4-0.2c0.6-0.3,2.3-1.5,4.1-2.9
			c1.8-1.3,3.6-2.6,4.6-3.3c1.7-1.1,3.8-2.8,4.6-3.5c0.5,1,1.5,1.7,2.6,1.9c0.9,0.2,1.8-0.1,2.5-0.6s1.2-1.3,1.3-2.2
			c0.1-0.4,0-0.9-0.1-1.3c0.4,0,1.1,0,2-0.2c1-0.2,2.2-0.9,3.4-1.5c1.2-0.7,2.3-1.3,3-1.2c1.4,0.1,5.4-0.2,6.9-1.3
			c0.6-0.5,1.8-1.8,3.2-3.2c1.6-1.7,3.4-3.7,4.6-4.6c2-1.6,4.9-6.6,5.2-9.1c0.1-0.8,0.1-1.6,0.2-2.5c0.1-1.9,0.2-3.9,0.8-5.3
			c0.7-1.7,0.8-3.3,0.9-4.3c0-0.2,0-0.4,0.1-0.6c0.1-0.8,0.1-1.4-0.2-1.6c-0.2-0.1-0.4-0.1-0.8,0.1l-0.2,0.1
			c-3.6,2.2-5.8,3.8-6.8,4.8c-0.6,0.7-1,1.4-1.3,2.1c-0.5,1-0.9,1.9-1.9,2.3c-1.9,0.8-5.8,4.2-7.5,7.6c-0.9,1.8-2,3.3-2.8,4.5
			s-1.5,2.1-1.8,2.9c-0.1,0.4-0.2,0.8-0.3,1.3c-0.3,1.4-0.6,2.8-1.8,3.6c-1.3,0.9-2.7,1.8-3.5,1.7c-0.1,0-0.1,0-0.1,0
			c-0.1-0.3,1.1-1.6,1.6-2.2c1.1-1.2,6-8,7.8-12c2-4.3,3.8-8.3,4.6-10.9c0.7-2.4,1.3-4.2,2.4-4.8c1-0.5,1.7-1.1,2.9-2.3l0.5-0.4
			c0.8-0.7,1.7-1.8,2.6-2.9c0.8-0.9,1.5-1.8,2.1-2.4c1.4-1.3,7.7-7.1,10.3-9.2c2.6-2.1,7-6.6,8.1-10.3c0.6-1.7,1.3-3.3,1.9-4.7
			c0.7-1.5,1.2-2.8,1.5-3.9c0.2-0.8,0.4-1.4,0.6-1.8C346.8,136.1,347,135.6,346.5,135.3z M9.8,131.1c0.2-0.1,0.7,0.4,1.2,0.8
			c0.3,0.3,0.7,0.6,1.1,0.8c0.5,0.4,1,0.9,1.6,1.5c0.7,0.8,1.6,1.6,2.7,2.5c1.9,1.6,2.7,2.6,4.4,5l0.3,0.3c1.6,2.2,2,3.8,2.5,5.7
			c0.1,0.3,0.2,0.7,0.3,1.1c0.6,2.1,1,5.2,1.2,6.9l0.2,1.7c-0.7-1.7-1.9-4.7-2.6-6c-0.7-1.5-3-5.9-4.9-8c-1.4-1.5-5.1-4-7.3-5.3
			c-0.1-0.5-0.1-1.3-0.2-2v-0.4c-0.1-1-0.3-2.3-0.5-3C9.6,131.9,9.6,131.1,9.8,131.1z M27.3,167c-0.8-0.9-4.3-4.5-6.2-5.9
			c-1.2-0.9-2.5-2-3.9-3.4c-0.8-0.8-1.8-1.6-2.8-2.6c-2.9-2.6-5.4-6.8-6.2-8.3c-0.6-1.2-1.9-4.9-2.7-7.4c-0.3-1-0.6-1.8-0.7-2.1
			c-0.2-0.5-0.3-0.8-0.2-0.9c0,0,0,0,0.1,0s0.2,0,0.4,0.1h0.1c0.9,0.3,2.3,0.6,6.8,3.4c4.7,2.8,7,6.3,8,7.9c1.2,1.8,3.3,6.5,4.3,9.1
			c0.5,1.4,1.3,2.8,1.8,3.6c0.1,0.2,0.2,0.5,0.3,0.7c0.3,0.7,0.7,1.9,0.8,2.9c0.1,0.7,0.4,2.4,0.5,3.3
			C27.6,167.3,27.5,167.2,27.3,167z M320.6,120.3c0.1-1.1,0.4-2.5,0.6-3.9c0.3-1.4,0.5-2.7,0.6-3.6c0.2-1.9,1.1-6,1.8-7.6
			c0.3-0.7,0.9-2,1.5-3.2c0.7-1.5,1.4-3,1.6-3.7c0.4-1.3,1.4-3.3,2-3.9c0.2-0.2,0.5-0.3,0.6-0.3s0.1,0,0.2,0
			c0.2,0.1,0.3,0.3,0.2,0.7c0,0.5,0.2,2.2,0.5,4.2c0.3,2.3,0.7,5,0.7,5.6c-0.1,0.7,0,1.5,0,2.3c0,0.2,0,0.5,0,0.7
			c-0.2,0.7-0.6,2-1.2,2.9l-0.9,1.2c-0.7,1-1.5,2-2.1,2.8c-0.4,0.5-0.7,0.9-0.9,1.2l-0.1,0.1c0-0.8-0.2-2.8,0-3.6
			c0.1-0.5,0.3-0.8,0.5-1.1s0.4-0.6,0.5-1.1c0.3-0.9,0.3-1.2,0.4-1.9v-0.2c0.1-0.7,0-0.8-0.2-0.9c-0.2,0-0.3,0.1-0.4,0.5
			c0,0.1,0,0.3-0.1,0.4c-0.1,0.6-0.2,1.4-0.6,2c-0.5,0.8-0.9,1.3-1,2.4c0,0.5,0,1.2,0,1.9c0,0.8,0,1.6,0,2c-0.1,0.5-0.2,0.9-0.4,1.5
			c-0.1,0.4-0.3,0.9-0.4,1.5c-0.3,1-0.8,2.6-1.3,4.2c-0.4,1.2-0.8,2.4-1,3.2c-0.4,1.2-0.5,1.9-0.5,2.3c-0.1-0.9-0.2-1.6-0.2-1.9
			c0-0.3-0.1-1.1-0.2-2C320.7,123.8,320.4,121.6,320.6,120.3z M312.6,86.7c0.7-1.4,2-5.8,2.4-7.6c0.4-1.9,1.7-4,3.4-5.6
			c1-1,1.8-1.9,2.5-2.6c0.6-0.7,1-1.2,1.3-1.4c0.5-0.3,0.9-0.8,1.4-1.3c0.3-0.3,0.5-0.5,0.6-0.6c0,0,0.1-0.1,0.2,0
			c0.3,0.2,0.6,0.9,0.5,1.9c-0.2,1.4-0.5,3.2-1.1,4.5c-0.6,1.4-1.4,4.5-1.6,6.3c-0.1,0.7-0.1,1.7-0.2,2.7c-0.1,1.8-0.2,3.8-0.5,5.3
			c-0.5,2.4-1.1,4.7-2,6c-1,1.3-2.9,4.2-3.3,4.9l-0.2,0.3c-0.2-0.5-0.6-1.4-0.8-2l-0.1-0.2c-0.1-0.2-0.2-0.4-0.4-0.8
			c0-0.1,0-0.3,0.1-0.5l0.1-0.7c0.1-1.2,0.4-3.1,0.5-3.7c0.1-0.6,0.7-1.6,1.2-2.4c0.2-0.2,0.3-0.5,0.4-0.7c0.6-1,0.9-2,1.1-3.1
			c0.1-0.7,0.1-1.8,0.1-2.7c0-0.5,0-0.9,0-1.1c0-0.8,0.5-1.9,0.9-2.4c0.3-0.4,0.6-1,0.8-1.5c0.2-0.3,0.3-0.6,0.4-0.7
			c0-0.1,0.3-0.5,0.1-0.7c-0.2-0.1-0.4,0.1-0.5,0.2c-0.2,0.2-0.4,0.5-0.6,0.9s-0.5,1-1,1.7c-0.7,1-0.8,2.9-0.9,4.7
			c0,0.7,0,1.3-0.1,1.7c-0.1,1-0.9,2.4-1.6,3.6c-0.4,0.8-0.9,1.5-1,2.1c-0.3,1-0.6,3.1-0.8,4.2c-0.3-0.5-0.6-1-0.8-1.4
			c-0.4-1-1.8-4.1-2.3-5.1c0-0.1-0.1-0.1-0.1-0.2C311.4,88.3,312.1,87.6,312.6,86.7z M315.8,118.2c0.1,0.3,0.3,0.6,0.3,0.8
			c0.3,0.9,0.8,3.1,0.8,3.7c0,0.3-0.1,0.4-0.2,0.5c0,0,0-0.1,0-0.2c-0.1-0.8-0.5-3.2-1.3-4.9c-0.1-0.2-0.1-0.3-0.2-0.4
			c0,0,0.1,0,0.3,0.1c0,0,0.1,0.1,0.2,0.1L315.8,118.2z M300.8,71.5c0.1-0.5,0.3-1,0.7-1.3c0.4-0.3,0.9-0.4,1.4-0.3
			c1.1,0.2,1.8,1.1,1.7,2.2c-0.1,0.5-0.3,1-0.7,1.2c-0.4,0.3-0.9,0.4-1.4,0.3s-0.9-0.3-1.2-0.7c-0.1-0.2-0.2-0.4-0.3-0.6
			C300.8,72.2,300.8,71.9,300.8,71.5z M279.6,50.6c0.1-0.5,0.3-1,0.7-1.3c0.3-0.2,0.7-0.3,1-0.3c0.1,0,0.2,0,0.3,0
			c0.1,0,0.1,0,0.2,0s0.2,0,0.2,0c0.1,0.1,0.3,0.1,0.4,0.2s0.1,0.2,0.2,0.2c0.2,0.3,0.4,0.7,0.6,1.1c0,0.2,0,0.4,0,0.6
			c-0.1,0.5-0.3,0.9-0.7,1.2c-0.4,0.3-0.9,0.4-1.4,0.3C280.1,52.5,279.4,51.7,279.6,50.6z M283.3,54.5c-0.3-0.4-0.6-0.7-0.8-0.9
			c0,0,0.1,0,0.1-0.1C282.7,53.7,283,54.1,283.3,54.5z M245.7,41.3c-0.9-0.3-2.8-1.4-5.4-3.2c-1.7-1.1-3-1.9-4.7-2.7
			c-1.3-0.6-2-1.3-2.1-1.7c0-0.1,0-0.2,0-0.2c0.3-0.3,1.9-0.5,3.2-0.7h0.3c1.4-0.2,4.4-0.2,6.1,0c1,0.2,1.8,0.4,2.8,0.7
			c0.7,0.2,1.4,0.4,2.4,0.7c2.6,0.7,8.4,4.2,9.7,5.3c1.1,0.8,3.3,1.9,4.3,2.3c0.8,0.8,2.1,1.8,3.1,2.5c-0.9-0.5-1.9-1-3-1.3
			c-2.1-0.7-4.6-1.3-7.2-1.7c-0.7-0.1-1.5-0.2-2.3-0.2c-2.1,0-4.1,0.4-5.4,0.9C247.1,41.7,246.4,41.5,245.7,41.3z M289,62.5
			c-3-3.1-6.7-5.8-9.5-7.8c-0.8-0.6-1.4-1-2-1.5c-2.5-1.9-3.7-2.8-7.4-3.7c-2.5-0.6-5.8-1.3-7.5-1.3c-0.2,0-0.4,0-0.5,0
			c-0.5,0-1,0.2-1.5,0.4c-1,0.4-2.2,0.8-4,0.7c-1.4-0.1-2.5,0-3.4,0s-1.7,0.1-2.5,0c-0.5-0.1-0.9-0.1-1.2-0.1
			c-0.8-0.1-1.2-0.1-1.9-0.6l-0.2-0.2c-0.8-0.5-0.9-0.5-2.4-0.7h-0.1c-0.8-0.1-1.4,0-1.9,0c-0.7,0.1-1.2,0.1-1.5-0.2
			c-0.1-0.1-0.2-0.3-0.2-0.4c0-0.5,0.6-1,1.5-1.8c1.1-1,4.9-2.9,7.2-3.3c2.5-0.4,5.7-0.4,7.7,0.1l0.5,0.1c2.1,0.5,5,1.3,7,2.6
			c1.2,0.9,2.1,1.1,2.9,1.3c0.6,0.2,1.1,0.3,1.6,0.6c0.7,0.5,0.9,0.5,1,0.4c0.1,0,0.1-0.1,0.1-0.2c0-0.3-0.4-0.7-0.9-1
			c-0.2-0.1-0.4-0.3-0.6-0.4c-1.5-1-4.6-3.2-6.4-4.7c-1.3-1.1-5.6-4.9-7.3-7.8l-0.3-0.5c-1.5-2.5-2.9-4.8-2.7-6.6
			c0.1-1.3,0-2.2-0.1-2.9c-0.1-0.4-0.1-0.7-0.1-1c0.1-0.7,0.2-0.9,0.3-0.9c0,0,0.2,0,0.5,0.4c0.3,0.5,1.6,1.6,3,2.8
			c1.6,1.4,3.5,3,4.1,4c0.5,0.8,1.4,2.1,2.3,3.6c1.3,2.1,2.7,4.2,3.3,5c0.4,0.5,0.9,1,1.3,1.4c0.9,0.9,1.9,1.9,2.5,3.2
			c1,2,5.4,7.4,6.9,8.6c0.3,0.3,0.7,0.6,1.1,0.9c1.3,1.1,2.7,2.3,3.7,2.8c1.3,0.7,1.6,1,1.9,1.6c0.1,0.2,0.3,0.4,0.4,0.4l0,0
			c0.1,0,0.2-0.1,0.2-0.1c0.1-0.2,0-0.5-0.2-0.9c0.8,1.1,1.9,2.4,3,3c1.4,0.8,2.8,2.5,4,4c0.5,0.6,1,1.2,1.4,1.7s0.9,1,1.4,1.4
			c1.1,1.1,2.2,2.2,2.9,3.4c0.7,1.1,1.4,1.8,1.7,1.6c0.1,0,0.2-0.2,0.1-0.6c-0.3-0.8-3.6-6.3-4.9-7.8c-0.5-0.6-1.5-1.6-2.5-2.7
			c-1.6-1.7-3.4-3.5-4-4.3c-0.3-0.4-0.5-0.8-0.8-1.2c-0.6-0.8-1-1.5-1.3-2.1c-0.1-0.2-0.3-0.5-0.5-0.8c-0.8-1.4-2-3.7-2.7-4.8
			c-0.9-1.3-2.2-4.6-2.7-6.9s-1.5-7.7-1.4-9c0.1-0.7,0.3-1.1,0.6-1.2c0.2,0,0.4,0.1,0.7,0.5c0.5,0.8,3.3,5.1,5,6.5
			c1,0.9,4.2,3.5,5.5,5.5c0.8,1.1,2,4,3,6.4c0.6,1.4,1.2,2.7,1.5,3.4c0.9,1.7,1.9,4.2,2.1,6c0.1,0.5,0.1,1.2,0.2,1.8
			c0.1,1.5,0.3,3.1,0.7,4.1c0.6,1.8,0.8,1.8,1,1.8s0.2-0.3,0.2-0.6c0-0.5-0.2-0.9-0.4-1.4c-0.2-0.5-0.4-1-0.4-1.5
			c0-0.9-0.2-4.1-0.9-6.2c-0.4-1.2-0.9-2.4-1.3-3.5c-0.3-0.8-0.6-1.4-0.7-1.9c-0.3-1-1.2-3.7-0.5-6.1c0.2-0.5,0.3-1.1,0.5-1.8
			c0.7-2.4,1.7-5.7,2.7-6.7c1.2-1,1.6-1.6,2.3-2.5c0.1-0.2,0.3-0.4,0.4-0.6c0.7-0.9,0.9-0.9,1-0.9c0,0,0.2,0.1,0.2,1.1
			c0,0.4,0,0.9,0,1.5c-0.1,2.3-0.2,5.9,0.5,7.3c0.7,1.5,0.4,4.1,0.1,5.7c0,0.2-0.1,0.4-0.1,0.6c-0.1,0.6-0.5,2.5-0.9,4.5
			c-0.5,2.4-1.1,4.9-1.2,5.9c-0.1,0.5-0.2,1.2-0.3,1.8c-0.3,1.6-0.6,3.4-0.4,4.7c0.2,1.6,0.9,6,1.3,7.3c0,0.1,0.1,0.2,0.1,0.4
			c0.1,0.6,0.3,1.2,0.8,1.7c0.6,1.3,1.4,2.5,1.9,3.2c0.7,1,1.5,2.2,1.8,2.6c0,0.1-0.1,0.1-0.1,0.2c-0.1,0.3-0.2,0.6-0.3,0.9v0.1
			c-0.6-0.6-1.7-1.8-2.1-2.5c-0.3-0.5-0.9-1.3-1.6-2.1c-0.5-0.6-1-1.2-1.4-1.7c-0.3-0.5-0.7-1.1-1.2-1.7c-0.7-1.1-1.5-2.2-2-2.9
			C295.1,69.1,293,66.6,289,62.5z M266.8,44.9L266.8,44.9c0.3,0.1,0.4,0.2,0.5,0.3c-0.1,0-0.1,0-0.2-0.1
			C267,45.1,266.9,45,266.8,44.9z M283.3,53c0.3-0.3,0.6-0.7,0.7-1.1c0.3,0.6,0.7,1.2,1,1.6c0.7,1,3.8,4.8,4.9,5.7
			c1,0.8,3.9,4.1,4.3,4.9c0.3,0.6,0.6,1.1,0.8,1.5c-0.2-0.2-0.3-0.3-0.5-0.5l-0.4-0.4c-0.9-0.8-3-2.8-3.8-4.1
			c-0.9-1.5-2.3-2.6-3.1-3.1c-0.7-0.5-2.4-1.9-2.9-2.7C284.1,54.3,283.6,53.5,283.3,53z M300.6,81.1c-0.6-0.2-2-0.5-3.3-0.7
			c-0.3-0.1-0.7-0.1-0.9-0.2c-1.2-0.2-4.9-1.9-5.7-2.6c-0.2-0.2-0.5-0.4-0.9-0.7c-0.9-0.8-2.2-1.9-3.4-2.6c-0.8-0.5-1.7-1-2.7-1.5
			s-2-1.1-2.8-1.6c-1.9-1.2-3.3-2.5-4-3.6c-0.6-0.9-1.2-1.6-1.8-2.3c-0.3-0.3-0.5-0.5-0.7-0.8c-0.4-0.4-0.4-0.8-0.2-1.1
			c0.1-0.2,0.2-0.2,0.4-0.2c0,0,0.1,0,0.2,0c0.2,0,0.5,0.1,0.9,0.1c1.8,0.3,5.7,0.8,7.2,1.4c1.9,0.7,6,2.7,7.4,3.5
			c1.4,0.9,4.3,2.9,5.3,3.7c0.8,0.6,1.5,1.5,2.3,2.3c0.3,0.3,0.6,0.7,0.9,1c0.1,0.2,0.3,0.3,0.4,0.5c0.4,0.5,1,1.1,1.1,1.3l0,0h-0.2
			c-2.7-0.3-4.5-0.9-5.4-1.8c-0.5-0.4-1-1-1.6-1.5c-1.3-1.3-2.7-2.6-3.5-3.1c-0.7-0.5-1.2-0.7-1.7-0.9c-0.3-0.1-0.5-0.2-0.9-0.4
			c-0.3-0.1-0.7-0.3-0.9-0.2c-0.1,0-0.1,0.1-0.1,0.2c0,0.2,0.4,0.5,0.8,0.6c0.8,0.4,3,1.3,4.3,2.7c0.3,0.3,0.5,0.6,0.8,0.9
			c1,1,1.9,2,2.8,2.6c1.3,0.7,3.3,1.3,4.3,1.4c0.2,0,0.3,0,0.5,0.1c0.8,0.1,1.4,0.2,1.6,0.5s1.8,2.5,2.4,3.1
			c0.2,0.2,0.4,0.3,0.5,0.4c-0.1,0.3-0.3,0.8-0.5,1c-0.1,0.1-0.2,0.2-0.3,0.2C302.1,82.1,301,81.3,300.6,81.1z M304.1,101.6
			c-0.1-0.3-0.3-0.6-0.4-0.9c-0.7-1.4-1.2-2.3-0.6-5c0.4-2.1,0.3-3.7,0.1-5.1c-0.1-0.8-0.1-1.6-0.1-2.3c0.2-2,0.4-4.4,0.9-5.3
			c0.3-0.5,0.5-1,0.6-1.3s0.2-0.6,0.3-0.8c0.2-0.2,0.6-0.3,1-0.2c0.2,0.1,0.4,0.2,0.4,0.5c0.1,0.9,2.2,5.1,2.8,5.9
			c0.6,0.7,1.9,3.4,2.5,4.9l0.2,0.4c0.2,0.3,0.4,0.8,0.7,1.3c0.9,1.7,2.4,4.3,2.7,6.5c0.4,2.8,0.6,4.9,0.3,8
			c-0.2,1.8-0.3,3.9-0.3,5.4c0,1-0.1,1.7-0.1,2c0,0.1,0,0.3,0,0.4c0,0.1-0.1,0.2-0.2,0.2s-0.2,0-0.5-0.3c-0.1-0.1-0.3-0.3-0.5-0.5
			c-0.5-0.5-2-2-3-3.2c-1-1.3-2.7-2.5-3.7-2.9c-0.1,0-0.2-0.1-0.3-0.1C306.5,107.8,304.8,103.2,304.1,101.6z M314.1,133.7
			c-0.8-0.9-2.9-4.2-3.2-6.5c-0.2-1.6-0.3-3.2-0.3-4c0.9,0.6,1.4,1,1.9,1.5c0,0.4,0,1.2,0,1.8c0,0.7,0.4,1.9,0.7,2.8
			c0.1,0.2,0.1,0.4,0.2,0.6c0.3,0.8,2.3,4.5,2.8,5.1c0.4,0.4,0.5,0.6,0.7,0.5c0.1,0,0.2-0.1,0.2-0.2c0.1-0.1,0.1-0.5,0.1-1.5
			c-0.1-1-1-3.7-1.7-5.5c-0.2-0.6-0.4-1-0.5-1.3c-0.4-1.3-3-4.2-5-5c-0.9-0.3-1.9-1.2-3-2c-1.2-0.9-2.6-2-3.9-2.6
			c-2.5-1.1-6.7-3.7-7.8-5.7c-0.7-1.2-2.3-2.4-3.6-3.4c-0.8-0.6-1.5-1.1-1.7-1.4c-0.2-0.4-0.9-1.3-1.5-2.2c-0.7-1-1.5-2.1-2-2.8
			c-0.2-0.3-0.3-0.6-0.2-0.7c0.2-0.3,1.5-0.1,1.9,0c0.2,0,0.4,0.1,0.6,0.1c0.8,0.2,1.3,0.3,2.4,0.1c1.3-0.2,2.4-0.1,4.4,0.3
			c2,0.3,6.2,3.2,7.1,4.1c1.4,1.5,3.2,3.4,3.9,4.1c0.3,0.3,0.8,0.6,1.3,0.9c0.7,0.4,1.5,0.9,2,1.5c0.4,0.4,1,1.1,1.7,1.8
			c1,1.1,2.1,2.3,2.4,2.7c0.1,0.2,0.3,0.5,0.5,0.9c0,0.2,0.1,0.4,0.2,0.5c0.4,0.9,1.2,3.8,1.4,4.9c0.1,0.5,0.2,1,0.4,1.4
			c0.2,0.5,0.4,1.1,0.5,1.8c0,0.6,0.1,0.8,0.3,0.8l0,0c0.4,0,0.6-1.4,0.6-1.8c0.1-1.5,0-4.3-0.4-5.7c-0.1-0.4-0.4-1-0.6-1.5
			c-0.4-1-1-2.2-0.9-2.8c0.1-0.5,0.1-1.6,0.2-2.6c0-0.4,0.1-0.9,0.1-1.2c0.4,0.6,1,1.6,1.3,2.7c0.1,0.4,0.3,0.9,0.4,1.3
			c0.4,1.3,0.8,2.7,0.8,4.2v0.3c0,2,0,4.3,0.3,5.5c0.2,0.7,0.2,1.9,0.2,2.9c0,0.9,0,1.7,0.1,2.2c0.2,1.1,0.3,2.1,0.1,3.3
			c-0.2,1.5-0.2,2,0,2.1s0.3-0.1,0.4-0.2c0.5-0.7,1.4-3.4,1.5-4.1c0-0.2,0.1-0.5,0.2-0.8c0.2-0.7,0.5-1.7,0.6-2.8
			c0.2-1.3,0.5-2.1,1-3.6c0.1-0.3,0.2-0.6,0.4-0.9c0.3-0.8,0.6-1.8,0.8-2.7c0.4-1.5,0.8-3.1,1.5-4c0.8-1.2,2-2.8,3.1-4.2
			c0.3-0.3,0.5-0.7,0.7-1c1.3-1.7,2-2.7,2.2-3.3c0.1-0.3,0.3-0.7,0.4-0.8c0.7-0.8,2-1.7,2.9-2.3c0.6-0.4,1.3-1,1.9-1.5
			c0.7-0.6,1.4-1.2,1.9-1.4c0.1,0,0.3-0.1,0.5-0.2c0.4-0.2,1-0.4,1.2-0.2c0,0,0,0.1,0,0.3c-0.1,0.2-0.2,0.6-0.3,1
			c-0.4,1.3-1,3.4-1.1,4.5c-0.2,1.4-0.4,2.3-1,3.4c-0.6,1.1-1,2.3-1.2,3.7c-0.2,1.5-0.9,4.1-1.6,5.1c-0.3,0.4-0.8,1-1.3,1.7
			c-0.9,1.1-1.8,2.3-2.4,3.1c-0.7,1-1.6,2.2-2.8,3.7c-0.8,0.9-3.1,3.2-4.2,4.1c-0.8,0.7-3.5,2.9-4.2,4.1c-0.7,1.1-0.9,2.4-1.2,4.3
			c-0.2,1.4-0.6,4.3-0.8,5.8c-0.2-0.4-0.4-0.8-0.6-1.2v-0.1c-0.3-0.6-0.8-1.3-1.5-2.2c0-0.9-0.1-4.9-0.1-5.8
			C316.2,136.7,314.9,134.6,314.1,133.7z M313.2,125.6c0.6,0.9,1.1,2.2,1.7,3.8c0.2,0.5,0.3,0.9,0.5,1.4c0.4,1,0.7,1.9,0.8,2.4
			c0,0.1,0,0.2,0,0.3c-0.2-0.2-0.4-0.5-0.7-1c-0.6-1.1-1.7-3.3-2-4.6C313.3,127.1,313.3,126.2,313.2,125.6z M308.7,169.7
			c0.1-0.7,0.4-1.2,0.9-1.6c0.4-0.3,0.9-0.5,1.4-0.5c0.1,0,0.3,0,0.4,0c1.4,0.2,2.4,1.6,2.2,2.9c-0.1,0.7-0.4,1.2-0.9,1.6
			c-0.5,0.4-1.2,0.6-1.9,0.4C309.5,172.4,308.5,171.1,308.7,169.7z M308.2,174.1c0-0.4,0-0.7,0-1c0-0.5,0.1-0.9,0.1-1.4
			c0.5,0.9,1.4,1.6,2.5,1.8c0.5,0.1,1,0.1,1.5-0.1c-0.2,0.6-0.5,1.5-0.8,2c-0.2,0.3-0.3,0.3-0.4,0.3c-0.2,0.1-0.4,0.2-0.4,0.7
			c-0.1,0.9-1.6,5-2.1,6.4c-0.6,1.6-3.3,6.8-3.9,7.7c-0.1,0.2-0.4,0.6-0.6,1.1c-0.9,1.5-2.3,3.8-3,4.8c-0.5,0.6-1,1.4-1.4,2
			c-0.3,0.5-0.6,1-0.9,1.3l0,0c0.1-0.2,0.1-0.3,0.1-0.4c0.1-0.3,0.1-0.6,0.6-1.3c0.4-0.6,1-1.7,1.5-2.8c0.4-0.7,0.7-1.4,1-1.9
			c0.4-0.6,0.9-1.7,1.6-3.1c0.6-1.3,1.4-2.9,2.5-4.9C307.9,181.6,308.1,176.6,308.2,174.1z M41.8,173.2c0,0.2,0,0.6,0,1
			c0.1,2.4,0.3,7.5,2.1,11.1c1,2,1.8,3.6,2.5,4.9c0.7,1.4,1.2,2.4,1.6,3.1c0.3,0.5,0.6,1.2,1,1.9c0.5,1.1,1.1,2.1,1.5,2.8
			c0.5,0.7,0.5,1,0.6,1.3c0,0.1,0,0.3,0.1,0.4l0,0c-0.2-0.3-0.5-0.8-0.9-1.3c-0.4-0.6-0.9-1.4-1.4-2c-0.8-0.9-2.1-3.2-3-4.7
			c-0.3-0.5-0.5-0.8-0.6-1.1c-0.6-1-3.3-6.1-3.9-7.7c-0.5-1.5-2-5.5-2.1-6.4c-0.1-0.5-0.2-0.6-0.4-0.7c-0.1,0-0.2-0.1-0.4-0.3
			c-0.3-0.5-0.6-1.4-0.8-2c0.5,0.1,1,0.2,1.5,0.1c1.1-0.2,2-0.8,2.5-1.8C41.7,172.2,41.8,172.7,41.8,173.2z M38.5,167.7
			c0.1,0,0.3,0,0.4,0c0.5,0,1,0.2,1.4,0.5c0.5,0.4,0.9,1,0.9,1.6c0.2,1.4-0.8,2.7-2.2,2.9c-0.7,0.1-1.3,0-1.9-0.4
			c-0.5-0.4-0.9-1-0.9-1.6C36.1,169.2,37.1,167.9,38.5,167.7z M54.8,72c1.1-0.8,3.9-2.8,5.3-3.7c1.3-0.9,5.5-2.9,7.4-3.5
			c1.5-0.6,5.3-1.1,7.2-1.4c0.4-0.1,0.7-0.1,0.9-0.1c0.3,0,0.5,0,0.6,0.2s0.1,0.6-0.2,1.1c-0.2,0.2-0.4,0.5-0.7,0.8
			c-0.6,0.6-1.2,1.4-1.8,2.3c-0.7,1.2-2.2,2.4-4,3.6c-0.9,0.5-1.9,1.1-2.8,1.6c-1,0.5-1.9,1-2.7,1.5c-1.2,0.7-2.5,1.8-3.4,2.6
			c-0.4,0.3-0.7,0.5-0.9,0.7c-0.8,0.7-4.5,2.4-5.7,2.6c-0.3,0-0.6,0.1-0.9,0.2c-1.3,0.2-2.7,0.4-3.3,0.7c-0.5,0.2-1.7,1.2-2.4,1.7
			c-0.1,0-0.2-0.1-0.3-0.2c-0.2-0.3-0.4-0.7-0.5-1c0.1-0.1,0.3-0.3,0.5-0.4c0.6-0.5,2.2-2.7,2.4-3.1c0.2-0.3,0.9-0.4,1.6-0.5
			c0.2,0,0.3,0,0.5-0.1c1-0.1,3-0.7,4.3-1.4c1-0.6,1.9-1.5,2.8-2.6c0.3-0.3,0.5-0.6,0.8-0.9c1.3-1.4,3.5-2.3,4.3-2.7
			c0.4-0.2,0.8-0.4,0.8-0.6c0-0.1,0-0.1-0.1-0.2c-0.2-0.1-0.7,0.1-0.9,0.2c-0.3,0.2-0.6,0.3-0.9,0.4c-0.5,0.2-1,0.5-1.7,0.9
			c-0.8,0.5-2.1,1.8-3.5,3.1c-0.6,0.6-1.1,1.1-1.6,1.5c-0.9,0.8-2.8,1.4-5.4,1.8h-0.2l0,0c0.1-0.2,0.7-0.9,1.1-1.3
			c0.1-0.2,0.3-0.3,0.4-0.5c0.3-0.3,0.6-0.6,0.9-1C53.2,73.5,54,72.6,54.8,72z M92,39.3c1.3-1,7.1-4.6,9.7-5.3
			c1-0.3,1.7-0.5,2.4-0.7c1.1-0.3,1.8-0.5,2.8-0.7c1.6-0.3,4.6-0.2,6.1,0h0.3c1.3,0.2,2.9,0.4,3.2,0.7c0,0,0.1,0.1,0,0.2
			c-0.1,0.4-0.7,1.1-2.1,1.7c-1.8,0.8-3,1.6-4.7,2.7c-2.7,1.8-4.5,2.9-5.4,3.2c-0.7,0.3-1.4,0.4-1.8,0.5c-1.8-0.7-5-1.2-7.7-0.7
			c-2.6,0.4-5.1,1-7.2,1.7c-1.1,0.3-2.1,0.9-3,1.3c1-0.7,2.3-1.7,3.1-2.5C88.6,41.2,90.9,40.2,92,39.3z M68.3,49
			c0.5-0.1,1,0,1.4,0.3s0.6,0.7,0.7,1.3c0.1,1.1-0.5,1.9-1.6,2.1c-0.5,0.1-1.1,0-1.4-0.3c-0.4-0.3-0.6-0.7-0.7-1.2
			c0-0.2,0-0.4,0-0.6c0.2-0.4,0.5-0.8,0.6-1.1c0-0.1,0.1-0.2,0.2-0.2c0.1-0.1,0.3-0.2,0.4-0.2s0.1,0,0.2,0C68.2,49,68.3,49,68.3,49z
			 M67.5,53.5c-0.2,0.2-0.5,0.6-0.8,1c0.3-0.5,0.6-0.8,0.7-1C67.4,53.5,67.5,53.5,67.5,53.5z M47.5,73.8c-0.5,0.1-1,0-1.4-0.3
			s-0.6-0.7-0.7-1.2c-0.1-1.1,0.6-2,1.7-2.2c0.1,0,0.2,0,0.4,0c0.4,0,0.8,0.1,1.1,0.3c0.4,0.3,0.6,0.7,0.7,1.3c0,0.3,0,0.6-0.1,0.9
			c-0.1,0.2-0.2,0.4-0.3,0.6C48.5,73.4,48,73.7,47.5,73.8z M47.4,76.9c0.5-0.7,1.3-1.9,1.9-3.2c0.4-0.5,0.7-1.1,0.8-1.7
			c0.1-0.1,0.1-0.3,0.1-0.4c0.4-1.2,1.1-5.6,1.3-7.3c0.1-1.2-0.2-3.1-0.4-4.7c-0.1-0.7-0.2-1.3-0.3-1.8c-0.1-1-0.7-3.5-1.2-5.9
			c-0.4-2-0.8-3.9-0.9-4.5c0-0.2,0-0.3-0.1-0.5c-0.2-1.6-0.6-4.2,0.1-5.7c0.7-1.4,0.6-4.9,0.5-7.3c0-0.6,0-1.2,0-1.5
			c0-0.9,0.2-1,0.2-1.1c0.1,0,0.3,0.1,1,0.9c0.2,0.2,0.3,0.4,0.4,0.6c0.7,0.9,1.1,1.5,2.3,2.5c1.1,0.9,2,4.3,2.7,6.7
			c0.2,0.6,0.4,1.3,0.5,1.8c0.8,2.4-0.1,5-0.5,6.1c-0.2,0.5-0.4,1.2-0.7,1.9c-0.4,1.1-0.9,2.3-1.3,3.5c-0.6,2.1-0.9,5.3-0.9,6.2
			c0,0.5-0.2,1-0.4,1.5s-0.4,1-0.4,1.4c0,0.2,0,0.5,0.2,0.6c0.1,0,0.3,0.1,1-1.8c0.4-1,0.5-2.7,0.7-4.1c0.1-0.7,0.1-1.3,0.2-1.8
			c0.3-1.8,1.3-4.3,2.1-6c0.4-0.7,0.9-1.9,1.5-3.4c1-2.3,2.3-5.2,3-6.4c1.3-1.9,4.5-4.6,5.5-5.5c1.7-1.4,4.4-5.7,5-6.5
			c0.2-0.4,0.5-0.5,0.7-0.5c0.3,0.1,0.5,0.5,0.6,1.2c0.2,1.3-0.8,6.8-1.4,9c-0.5,2.2-1.9,5.5-2.7,6.9c-0.7,1.1-2,3.4-2.7,4.8
			c-0.2,0.4-0.4,0.7-0.5,0.8c-0.3,0.4-0.8,1.2-1.3,2c-0.3,0.4-0.5,0.8-0.8,1.2c-0.5,0.8-2.3,2.7-4,4.3c-1,1.1-2,2.1-2.5,2.7
			c-1.3,1.5-4.6,7-4.9,7.8c-0.1,0.4,0,0.5,0.1,0.6c0.4,0.2,1.1-0.5,1.7-1.6c0.7-1.2,1.8-2.3,2.9-3.3c0.5-0.5,0.9-0.9,1.4-1.4
			c0.4-0.5,0.9-1.1,1.4-1.7c1.2-1.5,2.6-3.3,4-4c1.1-0.6,2.2-1.9,3-3C66,55.5,66,55.8,66,56c0,0.1,0.1,0.1,0.2,0.1l0,0
			c0.1,0,0.3-0.1,0.4-0.4c0.3-0.5,0.7-0.8,1.9-1.6c1-0.6,2.4-1.8,3.7-2.9c0.4-0.3,0.8-0.6,1.1-0.9c1.4-1.2,5.8-6.6,6.9-8.6
			c0.7-1.3,1.6-2.2,2.5-3.2c0.5-0.5,0.9-1,1.3-1.4c0.7-0.8,2-3,3.3-5c0.9-1.5,1.8-2.9,2.3-3.6c0.7-1,2.5-2.6,4.1-4
			c1.4-1.2,2.6-2.3,3-2.8c0.3-0.5,0.4-0.5,0.5-0.4c0.1,0,0.2,0.2,0.3,0.9c0,0.2,0,0.6-0.1,1c-0.1,0.7-0.2,1.7-0.1,2.9
			c0.2,1.8-1.2,4.1-2.7,6.6l-0.3,0.5c-1.7,2.9-6,6.7-7.3,7.8c-1.7,1.5-4.9,3.6-6.4,4.6c-0.3,0.2-0.5,0.3-0.6,0.4
			c-0.4,0.3-0.9,0.7-0.9,1c0,0.1,0.1,0.2,0.1,0.2c0.1,0.1,0.3,0.1,1-0.4c0.5-0.3,1-0.5,1.6-0.6c0.8-0.2,1.7-0.5,2.9-1.3
			c2-1.4,4.8-2.1,7-2.6l0.5-0.1c2-0.5,5.2-0.5,7.7-0.1c2.3,0.4,6.1,2.3,7.2,3.3c0.9,0.7,1.5,1.3,1.5,1.8c0,0.1-0.1,0.3-0.2,0.4
			c-0.3,0.3-0.8,0.3-1.5,0.2c-0.5,0-1.2-0.1-1.9,0h-0.1c-1.6,0.2-1.6,0.2-2.4,0.7l-0.2,0.2c-0.8,0.5-1.1,0.5-1.9,0.6
			c-0.3,0-0.7,0-1.2,0.1c-0.8,0.1-1.6,0.1-2.5,0c-0.9,0-2-0.1-3.4,0c-1.7,0.1-3-0.3-4-0.7c-0.6-0.2-1.1-0.4-1.5-0.4
			c-1.6-0.2-5.2,0.6-8,1.2c-3.7,0.9-5,1.8-7.4,3.7c-0.6,0.4-1.2,0.9-2,1.5c-2.7,2-6.5,4.7-9.5,7.8c-4,4.1-6,6.7-6.7,7.5
			c-0.6,0.7-1.3,1.8-2,2.9c-0.4,0.6-0.8,1.2-1.2,1.7s-0.9,1.1-1.4,1.7c-0.7,0.8-1.3,1.5-1.6,2.1c-0.4,0.7-1.5,1.8-2.1,2.5v-0.1
			c-0.1-0.3-0.2-0.7-0.3-1c0-0.1-0.1-0.2-0.1-0.2C45.9,79,46.6,77.9,47.4,76.9z M66.7,53c-0.3,0.5-0.8,1.3-1.2,1.9
			c-0.5,0.8-2.2,2.2-2.9,2.7c-0.8,0.5-2.2,1.6-3.1,3.1c-0.8,1.3-2.9,3.3-3.8,4.1l-0.4,0.4c-0.1,0.1-0.3,0.3-0.5,0.5
			c0.2-0.4,0.5-1,0.8-1.5c0.5-0.9,3.3-4.1,4.3-4.9c1.1-0.9,4.2-4.7,4.9-5.7c0.3-0.4,0.6-1,1-1.6C66.1,52.4,66.3,52.7,66.7,53z
			 M83.2,44.9C83.1,45,83,45,82.9,45.1c-0.1,0.1-0.2,0.1-0.2,0.1C82.8,45.1,82.9,45,83.2,44.9L83.2,44.9z M40.9,87.1
			c0.7-0.8,2.7-5,2.8-5.9c0-0.3,0.2-0.4,0.4-0.5c0.4-0.1,0.8,0,1,0.2c0.1,0.2,0.2,0.4,0.3,0.8s0.3,0.8,0.6,1.3
			c0.6,1,0.8,3.4,0.9,5.3c0.1,0.7,0,1.5-0.1,2.3c-0.1,1.4-0.3,3,0.1,5.1c0.5,2.7,0,3.6-0.6,5c-0.1,0.3-0.3,0.6-0.4,0.9
			c-0.7,1.6-2.4,6.2-3,7.6c-0.1,0-0.2,0.1-0.3,0.1c-1,0.4-2.7,1.6-3.7,2.9c-1,1.2-2.5,2.7-3,3.2c-0.2,0.2-0.3,0.4-0.5,0.5
			c-0.2,0.3-0.3,0.4-0.5,0.3c-0.1,0-0.1-0.1-0.2-0.2c0-0.2,0-0.3,0-0.4c0-0.3-0.1-1.1-0.1-2c-0.1-1.5-0.2-3.6-0.3-5.4
			c-0.3-3.1-0.1-5.2,0.3-8c0.3-2.2,1.8-4.8,2.7-6.5c0.3-0.5,0.5-1,0.7-1.3l0.2-0.4C39,90.6,40.3,87.8,40.9,87.1z M34.8,117.8
			c-0.1,0.1-0.1,0.3-0.2,0.4c-0.7,1.7-1.2,4.1-1.3,4.9c0,0.1,0,0.2,0,0.2c-0.1-0.1-0.1-0.3-0.2-0.5c-0.1-0.6,0.5-2.9,0.8-3.7
			c0.1-0.2,0.2-0.5,0.3-0.8l0.1-0.2c0.1-0.1,0.1-0.1,0.2-0.1C34.6,117.8,34.7,117.8,34.8,117.8z M30.4,94.2c-0.9-1.2-1.5-3.6-2-6
			c-0.3-1.5-0.4-3.5-0.5-5.3c-0.1-1-0.1-2-0.2-2.7c-0.2-1.9-1-5-1.6-6.3s-0.9-3.1-1.1-4.5c-0.1-1,0.2-1.7,0.5-1.9h0.1h0.1
			c0.2,0.1,0.4,0.4,0.6,0.6c0.4,0.4,0.9,1,1.4,1.3c0.3,0.2,0.8,0.7,1.3,1.4c0.6,0.7,1.4,1.7,2.4,2.6c1.7,1.6,3,3.7,3.4,5.6
			c0.4,1.7,1.7,6.2,2.4,7.6c0.5,1,1.2,1.6,1.6,1.9c0,0.1-0.1,0.1-0.1,0.2c-0.5,1-1.9,4.1-2.3,5.1c-0.2,0.4-0.4,0.9-0.8,1.4
			C35.5,94,35.2,92,34.8,91c-0.2-0.6-0.6-1.3-1-2.1c-0.7-1.2-1.4-2.6-1.6-3.6c-0.1-0.5-0.1-1.1-0.1-1.7c-0.1-1.8-0.1-3.7-0.9-4.7
			c-0.5-0.7-0.8-1.2-1-1.7c-0.2-0.4-0.3-0.7-0.5-0.9c-0.1-0.1-0.3-0.3-0.5-0.2c-0.2,0.2,0.1,0.6,0.1,0.7c0.1,0.1,0.2,0.4,0.4,0.7
			c0.2,0.5,0.6,1.1,0.8,1.5c0.4,0.5,0.8,1.6,0.9,2.4c0,0.3,0,0.7,0,1.1c0,0.9,0,2.1,0.1,2.7c0.1,1,0.5,2.1,1.1,3.1
			c0.1,0.2,0.3,0.4,0.4,0.7c0.5,0.8,1.1,1.8,1.2,2.4c0.1,0.6,0.4,2.6,0.5,3.8l0.1,0.7c0,0.2,0,0.4,0.1,0.5c-0.2,0.4-0.3,0.6-0.4,0.8
			l-0.1,0.2c-0.2,0.5-0.5,1.5-0.8,1.9L33.4,99C33.3,98.4,31.3,95.5,30.4,94.2z M19.1,104.6c-0.1-0.7,0.3-3.3,0.7-5.7
			c0.3-2,0.6-3.8,0.5-4.2c0-0.4,0.1-0.6,0.2-0.7c0.2-0.1,0.5,0,0.8,0.3c0.6,0.5,1.6,2.6,2,3.9c0.2,0.7,0.9,2.2,1.6,3.7
			c0.6,1.2,1.2,2.5,1.5,3.2c0.6,1.6,1.5,5.7,1.8,7.6c0.1,0.9,0.4,2.2,0.6,3.6c0.3,1.4,0.5,2.9,0.6,3.9c0.2,1.3-0.1,3.5-0.3,5.1
			c-0.1,0.9-0.2,1.7-0.2,2s0,1-0.2,1.9c-0.1-0.5-0.2-1.1-0.5-2.3c-0.2-0.8-0.6-2-1-3.2c-0.5-1.6-1.1-3.2-1.3-4.2
			c-0.2-0.7-0.3-1.1-0.4-1.5c-0.2-0.7-0.3-1-0.4-1.5c-0.1-0.4-0.1-1.2,0-2c0-0.7,0-1.4,0-1.9c-0.1-1.1-0.4-1.6-1-2.4
			c-0.4-0.6-0.6-1.4-0.6-2c0-0.2,0-0.3-0.1-0.4c-0.1-0.4-0.2-0.5-0.3-0.5l0,0c-0.1,0-0.3,0.1-0.2,0.9v0.2c0.1,0.7,0.1,1,0.4,1.9
			c0.2,0.5,0.4,0.8,0.5,1.1c0.2,0.3,0.4,0.6,0.5,1.1c0.2,0.8,0.1,2.8,0,3.6l-0.1-0.1c-0.2-0.3-0.5-0.7-0.9-1.2
			c-0.6-0.8-1.4-1.9-2.1-2.9l-0.9-1.2c-0.6-0.9-1-2.2-1.2-2.9c0-0.2,0-0.4,0-0.7C19.1,106.2,19.2,105.3,19.1,104.6z M30.6,141.3
			c-0.3-2-0.6-3.2-1.2-4.3c-0.7-1.2-3.4-3.5-4.2-4.1c-1.1-0.9-3.5-3.2-4.2-4.1c-1.2-1.4-2.1-2.6-2.8-3.7c-0.6-0.8-1.5-2-2.4-3.1
			c-0.5-0.6-1-1.3-1.3-1.7c-0.7-1-1.4-3.7-1.6-5.1c-0.2-1.3-0.6-2.6-1.2-3.7c-0.6-1.1-0.8-2-1-3.4c-0.1-1.1-0.7-3.1-1.1-4.5
			c-0.1-0.4-0.2-0.8-0.3-1c0-0.1,0-0.2,0-0.3h0.1c0.2,0,0.7,0.2,1,0.3c0.2,0.1,0.3,0.1,0.5,0.2c0.5,0.2,1.2,0.8,1.9,1.4
			c0.6,0.5,1.2,1.1,1.9,1.5c1,0.6,2.3,1.5,2.9,2.3c0.1,0.2,0.3,0.6,0.4,0.9c0.2,0.5,1,1.6,2.2,3.3c0.2,0.3,0.5,0.6,0.7,0.9
			c1.1,1.4,2.3,3,3.1,4.2c0.6,0.9,1,2.5,1.5,4c0.3,0.9,0.5,1.9,0.8,2.7c0.1,0.3,0.2,0.6,0.4,0.9c0.6,1.5,0.9,2.2,1,3.6
			c0.2,1.1,0.4,2.1,0.6,2.8c0.1,0.3,0.2,0.6,0.2,0.8c0.2,0.7,1,3.4,1.5,4.1c0.1,0.1,0.2,0.3,0.4,0.2c0.2-0.1,0.2-0.5,0-2.1
			c-0.1-1.2-0.1-2.2,0.1-3.3c0.1-0.5,0.1-1.3,0.1-2.2c0-1,0-2.2,0.2-2.9c0.3-1.2,0.3-3.5,0.3-5.5V120c0-1.5,0.4-2.9,0.8-4.2
			c0.1-0.5,0.3-0.9,0.4-1.3c0.3-1.1,0.9-2.1,1.3-2.7c0,0.4,0.1,0.8,0.1,1.3c0.1,1,0.1,2,0.2,2.5c0.1,0.6-0.4,1.8-0.9,2.8
			c-0.2,0.5-0.5,1.1-0.6,1.5c-0.4,1.3-0.5,4.2-0.4,5.7c0,0.4,0.1,1.8,0.6,1.8l0,0c0.2,0,0.3-0.3,0.3-0.8c0-0.7,0.2-1.3,0.5-1.8
			c0.2-0.4,0.3-0.9,0.4-1.4c0.2-1.1,1.1-4,1.4-4.9c0.1-0.2,0.1-0.4,0.1-0.5c0.2-0.4,0.4-0.8,0.5-1c0.2-0.3,1.4-1.6,2.4-2.7
			c0.7-0.7,1.3-1.4,1.7-1.8c0.5-0.6,1.3-1.1,2-1.5c0.5-0.3,1-0.6,1.3-0.9c0.7-0.6,2.5-2.6,3.9-4.1c0.8-0.9,5.1-3.8,7.1-4.1
			s3.1-0.5,4.4-0.3c1.1,0.2,1.7,0.1,2.4-0.1c0.2,0,0.4-0.1,0.6-0.1c0.4-0.1,1.7-0.4,1.9,0c0.1,0.1,0,0.4-0.2,0.7
			c-0.4,0.7-1.2,1.8-1.9,2.8c-0.6,0.9-1.3,1.7-1.5,2.2c-0.2,0.3-0.9,0.8-1.7,1.4c-1.3,1-2.9,2.1-3.6,3.4c-1.1,2-5.2,4.6-7.8,5.7
			c-1.4,0.6-2.7,1.7-3.9,2.6c-1.1,0.9-2.1,1.7-3,2c-2,0.8-4.5,3.6-5,5c-0.1,0.3-0.3,0.8-0.5,1.3c-0.6,1.8-1.6,4.5-1.7,5.5
			c-0.1,1,0,1.4,0.1,1.5c0,0.1,0.1,0.2,0.2,0.2c0.2,0,0.3-0.1,0.7-0.5c0.5-0.6,2.5-4.3,2.8-5.1c0-0.2,0.1-0.3,0.2-0.6
			c0.3-0.9,0.7-2.1,0.7-2.8c0-0.6,0-1.4,0-1.8c0.5-0.5,1-0.9,1.9-1.5c0,0.7-0.1,2.3-0.3,4c-0.2,2.3-2.3,5.6-3.2,6.5
			c-0.8,0.9-2.1,3-2.2,4.1c0,0.6-0.1,2.6-0.1,5.8c-0.7,0.8-1.2,1.6-1.5,2.2v0.1c-0.2,0.4-0.4,0.8-0.6,1.2
			C31.2,145.7,30.8,142.8,30.6,141.3z M36.8,125.6c0,0.6-0.1,1.5-0.3,2.2c-0.4,1.3-1.4,3.5-2,4.6c-0.3,0.5-0.5,0.8-0.7,1
			c0-0.1,0-0.2,0-0.3c0-0.5,0.4-1.4,0.7-2.4c0.2-0.5,0.4-0.9,0.5-1.4C35.6,127.8,36.1,126.5,36.8,125.6z M52.1,207.8
			c-0.5,0-1.8,0.1-2.8-0.2c-1.4-0.4-2.6-1.2-3.6-1.9c-0.7-0.5-1.2-0.5-2-0.5c-0.3,0-0.6,0-1,0c-1.4-0.1-2.4-0.2-4.3-0.5
			c-1.5-0.3-2.2-1.1-2.8-1.9c-0.1-0.1-0.2-0.3-0.4-0.4c-0.2-0.2-0.5-0.5-0.7-0.8c-0.7-0.7-1.4-1.6-2-2.4c-0.9-1.1-2.4-2.5-3.7-3.5
			c-0.8-0.5-1.2-1.2-1.7-2.2c-0.3-0.5-0.7-1.2-1.2-1.9c-1.2-1.8-1.5-3.8-1.6-5v-0.2c-0.1-0.6-0.2-1.7-0.2-2.7
			c-0.1-0.9-0.1-1.8-0.2-2.2s-0.3-1.5-0.6-2.6c-0.3-1.2-0.6-2.6-0.7-3.3c-0.1-0.5,0-0.6,0.1-0.6c0,0,0,0,0.1,0c0.2,0,0.6,0.2,1,0.5
			c0.1,0.1,0.3,0.2,0.4,0.2c0.8,0.4,2,1.3,3.1,2c0.4,0.3,0.8,0.5,1.1,0.8c0.9,0.6,1.5,1.9,1.9,3c0.2,0.4,0.3,0.7,0.5,1
			c0.4,0.8,1,1.2,2.1,1.8c0.5,0.3,1.1,0.7,1.8,1.1c1.9,1.3,3.1,3.3,4.1,5l0.3,0.5c1.1,1.9,2.7,4.4,3.9,5.7c1.1,1.3,1.4,2.7,1.6,4.1
			c0.2,1.3,1.6,3.2,2.7,3.9c1,0.7,2.9,1.3,4.3,1c0.6-0.1,0.9-0.2,0.9-0.4c0.1-0.2-0.2-0.4-0.5-0.7l-0.2-0.1c-0.5-0.4-2-2.3-3.5-4.1
			c-0.4-0.5-0.8-1-1.1-1.4c-1.4-1.8-2.7-4-3.8-5.9c-0.2-0.4-0.4-0.7-0.6-1.1c-0.7-1.2-1.7-3.4-2.6-5.3c-0.7-1.5-1.3-2.9-1.7-3.6
			c-0.6-1.2-1.1-3-1.5-4.4c-0.2-0.7-0.3-1.3-0.5-1.7c-0.5-1.5-1.6-2.9-2.7-3.3c-0.7-0.3-1.7-1.3-2.6-2.2c-0.3-0.3-0.5-0.5-0.8-0.8
			c-0.4-0.4-0.8-0.8-1.3-1.4c-0.3-0.8-0.7-2.3-0.8-3.1c-0.1-1.2-0.1-3.9,0.1-5.4c0.1-1.6,2.2-9.7,3.2-11.8s3.5-5.5,4.6-6.8
			c0.4-0.5,0.8-0.9,1.2-1.2c0.7-0.7,1.4-1.4,2-2.4c0.8-1.4,2.8-3.1,3.8-4l0.3-0.2c0.7-0.6,2.9-1.7,4.3-2.1c1.1-0.3,4.1-0.8,6.2-1.1
			c0.7-0.1,1.3-0.2,1.7-0.3c1.2-0.2,2.7,0.4,3.9,0.9c0.3,0.1,0.6,0.3,0.9,0.4c0.3,0.1,0.3,0.2,0.3,0.2c0,0.1-0.6,0.5-1,0.7
			c-0.6,0.4-1.4,0.9-2.2,1.5c-0.2,0.2-0.4,0.3-0.5,0.5c-1.3,1.2-1.6,1.5-2.9,4.1c-1.3,2.7-3.2,4-5,5.2l-0.3,0.2
			c-0.6,0.4-1,0.6-1.5,0.9c-1.1,0.6-2,1.1-3.2,2.6s-3,2.7-4.6,3.7c-0.6,0.4-1.1,0.7-1.6,1c-0.7,0.5-1.5,0.9-2.3,1.4
			c-1.5,0.8-3,1.6-3.8,2.7c-1,1.2-1,1.3-1.4,3c-0.1,0.5-0.2,1.2-0.4,2.2c-0.7,3.2-0.1,4.6,0.3,5.8c0.1,0.3,0.2,0.6,0.3,0.9
			c0.1,0.4,0.3,0.7,0.6,0.9c0.1,0.1,0.2,0.2,0.4,0.4c0.4,0.4,1,0.6,1.6,0.6c0.2,0,0.4-0.1,0.5-0.2c0.2-0.2,0.2-0.6,0.1-0.9
			c0-0.2-0.1-0.7-0.2-1.3c-0.1-0.9-0.3-2-0.4-2.7c-0.1-1-0.6-5.2-0.8-7.7c0.6-0.8,1.2-1.5,1.6-1.7c0.1-0.1,0.4-0.2,0.7-0.4
			c0.1,1.2,0.2,3.8,0.4,6.6c0.3,3.2,0.4,5.9,0.5,6.7c-0.3,0.6-0.5,1.4-0.4,2.1c0.1,0.9,0.6,1.7,1.3,2.2c0.2,0.8,1,3.2,1.9,5.3
			c0.3,0.6,0.6,1.4,1,2.3c1.2,2.9,2.8,6.8,4.1,9c1.8,3,4.5,7.2,5.6,8.7c0.2,0.3,0.5,0.7,0.7,1c0.9,1.3,1.5,2.2,2.1,1.9
			c0.7-0.5,0.9-1.1-1.7-5.7c-4-6.9-6.1-11.8-6.6-14.9c-0.1-0.8-0.3-1.5-0.4-2.2c-0.5-2.7-0.9-4.9-0.4-9.6c0.6-5.9,1-8.6,1.3-10
			c0.3-1.5,1.2-4.3,1.8-5.6c0.6-1.2,1.4-2.3,2.4-3.3l0.1-0.1c0.4-0.5,0.9-0.9,1.1-0.9c0.1,0,0.2,0.2,0.3,0.4c0.1,0.4,0.4,1,0.7,1.7
			c0.4,0.9,0.8,2,1.1,2.9c0.4,1.4,0.9,4.4,0.7,6.5c-0.1,1.1-0.2,2.5-0.2,3.9c0,1.1-0.1,2.2-0.2,3c-0.1,0.8-0.4,1.6-0.7,2.4
			c-0.4,1.1-0.9,2.2-0.9,3.5c0,0.8,0.1,1.9,0.1,3.2c0.1,2.1,0.3,4.7-0.1,5.2c-0.9,0.9-0.9,4.8-0.8,5.9l0.4,3.5
			c0.1,0.5,0.3,0.9,0.5,1c0.1,0.1,0.3,0,0.4-0.1c0.2-0.2,0.3-0.5,0.2-1c-0.6-3.9-0.8-6.6-0.5-7.5c0.5-1.4,1-3.2,0.8-4.9
			c-0.1-0.8-0.1-1.5-0.1-2.3c0-0.7,0-1.4-0.1-2.1c-0.1-1,0.4-2.5,0.8-3.8c0.1-0.4,0.2-0.7,0.3-1c0.2-0.8,0.3-2.7,0.5-4.5
			c0.1-1.5,0.2-2.9,0.3-3.6c0.3-1.3,0.7-2.4,1.8-3.9c1-1.4,3.2-3,4.4-3.8c1-0.7,1.5-1.4,2.3-2.5l0.1-0.2c0.5-0.8,1-1.5,1.5-1.5
			c0.2,0,0.3,0.1,0.5,0.2c0.7,0.7,1.6,4.1,0.6,5.6s-1.5,3.4-1.3,4.5s-0.3,3-0.9,4.2c-0.2,0.5-0.7,1.2-1.2,2c-1,1.5-2,3.1-2.2,4.1
			c-0.1,0.5-0.7,4.7-1.9,6.3c-0.6,0.8-1.1,1.8-1.7,2.8c-0.5,0.9-1,1.8-1.4,2.4c-0.9,1.2-1.9,5.1-1.7,6.8c0.1,0.9,0.2,2.5,0.3,3.9
			c0.1,1.1,0.1,2.2,0.2,2.7c0.1,0.7,0.9,2.9,1.6,4.6c0.4,1,0.7,1.8,0.8,2.1c0.1,0.6,0.1,0.7,0,1c0,0.1-0.1,0.2-0.1,0.2
			c-0.1,0.2-0.1,0.3-0.2,0.4c-0.2,0.3-0.1,0.4,0.2,0.7c0.3,0.4,0.9,0.7,1.3,0.9c0,0.3,0,0.6,0,0.9c0,0.1,0,0.2,0.1,0.3
			c-0.4-0.1-0.8-0.1-1.3,0C53.5,206.3,52.6,206.9,52.1,207.8z M31.9,158.6c0.2,1.9,0.7,6,0.8,7.1c0.2,1.4,0.1,2.9-0.1,3.3
			c-0.1,0-0.2,0-0.4,0c-0.6,0.1-0.6-0.1-0.8-0.8c-0.1-0.3-0.2-0.6-0.3-1c-0.4-1-0.2-2.7-0.1-4.3c0-0.7,0.1-1.3,0.1-1.9
			C31,160.5,31.3,159.6,31.9,158.6z M55.3,212c-0.7,0.1-1.3,0-1.9-0.4c-0.5-0.4-0.9-1-0.9-1.6c-0.2-1.4,0.8-2.7,2.2-2.9
			c0.6-0.1,1.2,0,1.7,0.3c0.2,0.3,0.5,0.6,0.8,0.8c0.2,0.3,0.3,0.6,0.3,1C57.6,210.5,56.7,211.8,55.3,212z M57.6,207.3
			c-0.5-0.4-0.9-1-0.9-1.6c-0.2-1.4,0.8-2.7,2.2-2.9c0.1,0,0.3,0,0.4,0c0.5,0,1,0.2,1.4,0.5c0.5,0.4,0.9,1,0.9,1.6
			c0.2,1.4-0.8,2.7-2.2,2.9C58.8,207.9,58.1,207.7,57.6,207.3z M77.1,228.3c-0.7,0.1-1.3,0-1.9-0.4c-0.5-0.4-0.9-1-0.9-1.6
			c-0.2-1.4,0.8-2.7,2.2-2.9c0.1,0,0.3,0,0.4,0c0.5,0,1,0.2,1.4,0.5c0.5,0.4,0.9,1,0.9,1.6C79.4,226.7,78.4,228,77.1,228.3z
			 M81.2,229.6c-1.1,0.4-2.3,0.1-2.9-0.8c1.3-0.7,2.1-2.2,1.9-3.6c0-0.1,0-0.3-0.1-0.4c1.1-0.2,2.2,0.4,2.6,1.5
			C83.2,227.6,82.5,229.1,81.2,229.6z M98,240.2c-0.1,0-0.4,0.2-0.8,0.3c-0.9,0.4-2.2,1-3.1,1.1l-0.4,0.1c-1.2,0.2-2.3,0.4-3.3,1.7
			c-1,1.4-2.5,3.2-3.7,3.7c-0.4,0.2-1,0.4-1.7,0.6c-1.6,0.6-3.6,1.3-4.2,1.8c-0.7,0.7-4.1,2.5-5.3,2.7c-0.7,0.1-1.2,0.1-1.6,0
			c-0.3,0-0.6-0.1-0.8,0c-0.7,0.1-2.2,0.7-3.4,1.7c-1.2,1-3.5,2.2-4.2,2.3c-0.5,0.1-1.2,0.2-1.8,0.4c-0.4,0.1-0.7,0.1-1.1,0.2
			c-0.7,0.1-2.5,0.5-3.5,1.1c-0.8,0.5-1.6,0.7-1.7,0.5c0,0,0-0.1,0.1-0.4c0.2-0.4,0.4-1,0.5-1.5c0.2-0.9,0.4-1.9,1.2-2.6
			c0.6-0.6,1.4-1.2,2.1-1.7c0.9-0.7,1.7-1.3,1.9-1.7c0.4-0.6,3.3-4,5.2-5.2c1.2-0.7,1.9-1.1,2.3-1.4l0,0l0.1-0.1
			c0.1-0.1,0.2-0.2,0.3-0.3l0,0c0.4-0.4,0.8-0.6,1-0.6c0.5-0.1,1.7,0,2.7,0.3c0.8,0.2,2.1,0.3,3.3,0.4c0.5,0,1,0.1,1.4,0.1
			c0.5,0,0.9,0.1,1.3,0.1c-1.2,0.5-2.6,1.2-3.4,1.9c-0.6,0.5-1,0.9-1.4,1.2c-0.8,0.7-1.5,1.3-2.5,1.9c-0.6,0.3-0.9,0.5-1.1,0.6
			c-0.3,0.2-0.3,0.2-0.8,0.4c-0.7,0.3-0.8,0.4-0.7,0.5c0.1,0.1,0.1,0.2,1.1-0.1c1.1-0.4,3.2-1.6,4.1-2.5s2.3-1.9,3.3-2.4
			c0.7-0.3,1.9-0.8,2.9-1.2c0.6-0.2,1.1-0.4,1.5-0.6c1.2-0.5,4.9-1.8,5.9-2.1c0.2-0.1,0.4-0.1,0.7-0.2c1-0.3,2.5-0.7,3.5-0.9
			c0.7-0.1,1.9-0.2,2.9-0.3c0.6,0,1.1-0.1,1.3-0.1c0.1,0,0.1,0,0.2,0C98.2,240.1,98.1,240.2,98,240.2z M147.5,241.5
			c-3.9-0.4-9.7-0.7-14.4-1c-3.2-0.2-5.9-0.4-7.4-0.5c-3.6-0.3-7.5-0.7-9.7-1.4c-1.8-0.6-4.6-1.2-6.1-1.2c-0.3,0-0.5,0-0.7,0.1
			c-0.3,0.1-0.8,0.2-1.4,0.5c-1.5,0.5-3.4,1.2-5.1,1.3c-0.6,0-1.3,0.1-2.2,0.1c-2.6,0.1-5.9,0.2-7.6,0.6c-1.4,0.3-3.2,0.9-4.8,1.5
			c-1,0.4-2,0.7-2.7,0.9c-0.6,0.2-1.4,0.4-2.2,0.7c-0.3,0-0.9,0.1-1.7,0.2c-0.7,0.1-1.7-0.1-2.6-0.2c-0.6-0.1-1.2-0.2-1.7-0.2
			c-0.6,0-1.3-0.1-2.1-0.3c-1-0.1-2-0.3-2.8-0.3l0,0c-1.5,0-2.7,0.7-2.8,0.7l0,0c-0.9,0.3-2.2,0.6-3.4,0.2c-0.5-0.2-1.1-0.4-1.6-0.6
			c-1.2-0.5-2.4-1-3.7-0.9c-1.8,0.1-3.2,0.1-4.6,0.3h-0.1c-0.6,0.1-1.4,0.2-1.5,0c0,0,0-0.1,0.2-0.4c0.7-0.9,2.4-2.6,4.2-3.7
			c1.9-1.2,3.3-2,4.4-2.2c0.3-0.1,0.9-0.1,1.5-0.2c1.5-0.1,3.5-0.3,4.7-0.7c1.9-0.6,4-1,5.9-1.1c2.2-0.1,3.8,0.1,5,0.5
			c1.3,0.5,1.9,0.4,2.8,0.2c1-0.2,2.4,0,3.1,0.4c0.1,0.1,0.3,0.1,0.5,0.2c1.1,0.6,2.9,1.5,3.9,1.6c0.6,0.1,1.5,0.3,2.3,0.6
			c0.6,0.2,1.2,0.3,1.5,0.4c0.5,0.1,0.7,0.2,0.8,0.3c0,0-0.1,0.1-0.8,0.3c-0.4,0.1-0.8,0.2-1.4,0.3c-1.8,0.4-4.4,0.9-6.3,0.7
			c-1-0.1-2.1-0.1-3.1-0.2c-1.4,0-2.6-0.1-3.3-0.4c-1.2-0.6-5.3-1.3-6.3-1.4c-1.1-0.2-2.9-0.2-3.5-0.1c-0.2,0-0.5,0.1-0.5,0.3
			c0,0.2,0.2,0.3,1,0.3h0.5c1.4,0.1,4.2,0.2,5.8,0.6c0.8,0.2,1.4,0.4,1.9,0.6c0.8,0.3,1.4,0.5,2,0.5c0.4,0.1,0.9,0.1,1.5,0.1
			c0.8,0,1.8,0,3.1,0.2c2,0.2,2.7,0.1,3.8-0.1c0.2,0,0.3-0.1,0.5-0.1c0.5-0.1,1.1-0.2,1.9-0.3c1.3-0.2,2.9-0.4,3.6-0.6
			c1.1-0.3,4.3-0.9,5.9-1.2c1.6-0.3,3-0.7,3.6-1.2c0.1,0,0.2-0.2,0.2-0.4c-0.1-0.3-0.5-0.3-1.2-0.5c-0.2,0-0.4-0.1-0.7-0.1
			c-1.1-0.2-6.1-1.9-7.5-2.4c-1.5-0.6-5.7-2.3-7.7-3c-1.6-0.6-3.9-1.6-4.8-1.9c0.2-0.7,0.1-1.3-0.1-2c-0.6-1.6-2.2-2.4-3.8-2
			c-0.7-1.2-2-1.8-3.4-1.6c-0.9,0.2-1.7,0.7-2.3,1.4c-2.8-0.5-4.9-0.8-6.1-0.9c-2.1-0.3-5.9-0.2-7,0.5c-0.8,0.5-3,0.8-4.7,1.1
			c-0.5,0.1-0.9,0.1-1.2,0.2c-0.9,0.2-2.7,0-4.4-0.2c-1-0.1-2-0.2-2.7-0.2c-0.4,0-0.9,0-1.4,0c-1.8,0-4-0.1-4.9-0.3
			c-1.1-0.2-5.6-1.4-7.1-1.9c-1.4-0.5-5-1.1-6.1-1.2c-0.9-0.1-2.6,0.1-3.3,0.4c0.2-0.2,0.5-0.6,0.9-0.9s1.2-1.1,2.1-1.9
			c1-0.9,2-1.8,2.6-2.3c1-0.8,2.9-1.7,4.3-1.8c1-0.1,2.3-0.3,3.6-0.6c0.5-0.1,1-0.2,1.4-0.3c1.5-0.3,6,0,7.9,0.1
			c3.4,0.2,5.7,0.4,6.9,0.7h0.1c1.4,0.4,4.4,1.1,5.2,1.6c0.4,0.3,1.1,0.8,1.9,1.4c0.7,0.6,1.5,1.2,2.1,1.6c1.6,1.1,3.5,1.6,4.2,1.8
			c0.5,0.1,1,0.3,1.5,0.5c0.7,0.2,1.4,0.5,2,0.5c0.7,0.1,1.2-0.1,1.3-0.5c0.1-0.3-0.1-0.5-0.4-0.7c-0.4-0.2-1.1-0.7-1.9-1.3
			c-0.5-0.4-1-0.8-1.5-1.1c-0.6-0.4-1.7-1.2-3-2.1c-1.4-1-2.9-2.1-3.4-2.5c-0.9-0.6-3.8-2.9-4.6-3.6c0.1-0.4,0.1-0.9,0.1-1.3
			c0-0.1,0-0.2-0.1-0.3c0.4,0.1,0.8,0.1,1.3,0c0.1,0,0.2,0,0.3-0.1c0.9,0.8,4.8,4.3,8.5,6.7c4.6,3,10.4,6.7,12.6,7.7
			c0.1,0.1,3.6,1.7,4,1c0.2-0.2-0.1-0.5-0.3-0.8c-0.2-0.2-0.4-0.4-0.7-0.7c-1.8-1.9-5.5-5.8-8.3-8c-3.1-2.4-6.5-6.2-8.4-9.4
			c-1.7-2.9-6-13.7-6.4-15c-0.3-0.9-0.1-2.5,0-4c0-0.4,0.1-0.9,0.1-1.3c0.1-1.7,0-4.8-0.4-6.5c-0.3-1.3-0.2-1.6-0.1-1.7
			c0.1-0.1,0.3,0,0.6,0.1c0.9,0.5,5.3,4.7,6.1,6.3c3.1,5.9,5,10.1,5.3,11.7c0.2,0.9,0.2,1.8,0.2,2.6c0,1.3,0,2.5,0.9,3.3
			c1.2,1.2,3.4,5.8,3.7,8.2c0.3,2.5,1.6,6.7,2.7,7.9c1,1.1,3,3.1,4.4,4.3c1.4,1.1,2.9,2.5,3.4,3.7c0.1,0.3,0.2,0.5,0.2,0.8
			c0.2,0.9,0.4,1.7,2.2,2c1,0.2,4,1.4,7.2,2.7c3.5,1.4,7.1,2.9,8.3,3.1c0.9,0.2,2,0.4,3.2,0.7c2.2,0.5,4.4,1.1,5.3,1
			c0.7-0.1,0.9-0.3,0.9-0.6c0.1-0.5-0.4-1.1-1.5-1.7c-1.5-0.8-10-4.3-11.9-4.9s-3.2-1.4-4.7-2.8c-0.9-0.9-2-1.4-2.7-1.8
			c-0.3-0.2-0.6-0.3-0.7-0.4s-0.2-0.3-0.4-0.7c-0.6-1.1-1.7-3.2-2.8-4c-1.4-1-2.6-2.5-3.3-4c-0.2-0.5-0.4-1.1-0.6-1.8
			c-0.4-1.5-0.9-3.3-2.2-5c-0.8-1.1-1.4-1.9-1.9-2.5c-0.6-0.8-1-1.3-1.1-1.5c0-0.1-0.1-0.3-0.1-0.3s0.1,0,0.4,0
			c0.3,0.1,1,0.4,1.8,0.8c1.1,0.5,2.3,1.1,2.9,1.2c1,0.2,3.6,1.3,5.5,3.2c0.6,0.6,1,1.1,1.5,1.5c1,1,1.6,1.7,2.1,2.1
			c0.4,0.3,0.9,0.5,1.1,0.6c0,0.1,0,0.2,0,0.3c0.1,0.8,0.4,2.3,0.9,3.1c0.5,0.8,2.2,3,3.4,3.9c0.8,0.6,2,2.4,2.8,3.7
			c0.2,0.4,0.4,0.7,0.6,0.9c-0.2-0.1-0.6-0.4-1.1-0.8l-0.4-0.3c-1-0.7-2.6-2-3-2.4c-0.2-0.3-0.5-0.3-0.7-0.2c-0.1,0-0.2,0.1-0.3,0.3
			c0,0.1,0,0.4,0.4,0.7c0.3,0.2,0.6,0.4,0.9,0.8c0.7,0.6,1.6,1.4,2.6,1.9c1.2,0.6,2.4,1.9,3.1,2.7c0.2,0.2,0.3,0.3,0.4,0.4
			c0.8,0.8,2.1,1.4,3.2,1.8c0.8,0.3,2.6,1.6,4.1,2.7c0.5,0.4,1,0.7,1.4,1c0.8,0.5,2.2,1.6,3.3,2.5c0.8,0.6,1.4,1.1,1.6,1.3
			c0.4,0.3,0.6,0.1,0.7,0.1c0.1-0.2,0-0.5-0.3-0.8c-0.2-0.2-0.6-0.5-1.1-0.8c-0.7-0.5-1.6-1.2-2.5-2c-1.5-1.3-4.5-3.2-6.7-4.4
			c-2.1-1.1-2.9-1.9-4.2-3.8c-1.4-2-4.8-6.5-6.7-8.2c-1.6-1.4-1.8-4.1-1.9-5.6c0-0.3,0-0.5-0.1-0.7c-0.1-0.6-0.6-1.8-1.1-3.1
			c-0.4-1.1-0.9-2.2-1-2.8s-0.1-0.7,0-0.7s0.4,0.1,0.7,0.3c0.1,0,0.2,0.1,0.3,0.2c0.7,0.3,1.9,1.3,3,2.2c0.5,0.4,1.1,0.9,1.5,1.2
			c0.2,0.2,0.5,0.4,0.8,0.6c1.3,0.9,2.9,2.1,3.3,2.9c0.4,0.9,2.4,4.1,3.8,5c1.2,0.8,2.5,3,3.8,5.4l0.4,0.7c0.5,0.8,1,1.8,1.5,2.8
			c1.2,2.2,2.5,4.7,3.7,6.6c1.8,2.9,5.1,4.7,10.2,5.7c4,0.8,16.4,0.9,23.8,1c2.2,0,4,0.1,4.8,0.1c2.6,0.1,10.8,1.4,16.6,2.7
			c-2.6,0.7-5.1,1.5-7.3,2.2C160,242.8,151.7,241.9,147.5,241.5z M163.7,252.7c-0.5,0.3-2.8,1.1-3.8,0.7c-0.8-0.3-2.2-1-3.4-1.5
			c-0.4-0.2-0.7-0.3-1-0.5l-0.2-0.1c-1.1-0.5-3.1-1.4-4.2-1.5c-0.8-0.1-1.9-0.2-2.5-0.3c0.1,0,0.2-0.1,0.3-0.1
			c0.2-0.1,0.4-0.1,0.7-0.2c1.4-0.5,3.3-1,4.1-0.8c0.5,0.1,0.9,0.2,1.3,0.2c0.3,0.1,0.6,0.1,0.9,0.2l0,0c0.4,0.1,0.8,0.2,1,0.3
			c0.3,0,0.8,0.1,1.4,0.1c0.6,0.1,1.3,0.1,2,0.2c0.3,0.1,0.8,0.4,1.2,0.6c0.6,0.4,1,1.1,1.2,1.6c0.1,0.1,0.2,0.3,0.3,0.3
			c0.3-0.1,0-0.8-0.1-1.1c-0.1-0.2-0.2-0.4-0.3-0.6c0.6,0.5,1.2,1.2,1.3,1.5c0,0.1,0,0.2,0.1,0.3C164,252.3,163.9,252.6,163.7,252.7
			z M166.3,250.3c-0.5,0.4-1,0.8-1.3,1.2c-0.4-0.7-1-1.7-1.5-2s-1.9-1.1-2.8-1.1h-0.1c-0.8,0.1-2,0-2.6-0.1s-1-0.2-1.1-0.3
			c0,0,0,0,0.1,0s0.5-0.2,1.2-0.4c1.7-0.7,5-1.9,8.3-3.1c2.8,0.3,5.3,0.7,7,1.4c0.1,0,0.2,0.1,0.2,0.1
			C170.6,247.5,167.1,249.7,166.3,250.3z M172.9,244.6c-0.7-0.2-2.5-0.4-4.7-0.7c2.1-0.7,4.1-1.4,5.6-1.8c0.4-0.1,0.8-0.2,1.2-0.3
			c0.4,0.1,0.8,0.2,1.2,0.3c1.6,0.4,3.6,1.1,5.6,1.8c-2.3,0.3-4,0.6-4.7,0.7c-0.6,0.1-1.3,0.4-2.1,0.7
			C174.2,244.9,173.5,244.7,172.9,244.6z M194.1,248.8c0.3-0.1,0.6-0.1,0.9-0.2c0.4-0.1,0.8-0.1,1.3-0.2c0.8-0.1,2.7,0.4,4.1,0.8
			c0.3,0.1,0.5,0.2,0.7,0.2c0.1,0,0.2,0.1,0.3,0.1c-0.6,0.1-1.7,0.2-2.5,0.3c-1.1,0.1-3.1,1-4.2,1.5l-0.2,0.1
			c-0.3,0.1-0.6,0.3-1,0.5c-1.1,0.5-2.6,1.2-3.4,1.5c-1,0.4-3.4-0.4-3.8-0.7c-0.1-0.1-0.2-0.4-0.2-0.8c0-0.1,0-0.2,0.1-0.3
			c0-0.2,0.6-0.9,1.3-1.5c-0.1,0.2-0.3,0.4-0.3,0.6c-0.1,0.3-0.3,1-0.1,1.1s0.3-0.1,0.3-0.3c0.3-0.5,0.7-1.2,1.2-1.6
			c0.4-0.3,0.9-0.5,1.2-0.6c0.6-0.1,1.3-0.1,2-0.2c0.6-0.1,1.1-0.1,1.4-0.1C193.3,249,193.7,248.9,194.1,248.8L194.1,248.8z
			 M191.9,247.6c0.6,0.2,1,0.4,1.1,0.4h0.1c-0.1,0.1-0.4,0.2-1.1,0.3c-0.6,0.1-1.8,0.1-2.6,0.1c-0.9-0.1-2.3,0.8-2.9,1.1
			c-0.5,0.3-1.1,1.3-1.5,2c-0.3-0.4-0.8-0.9-1.3-1.2c-0.8-0.6-4.4-2.8-7.4-4.4c0.1,0,0.2-0.1,0.2-0.1c1.8-0.7,4.2-1,7-1.4
			C187,245.7,190.2,247,191.9,247.6z M281.4,245.4c2,1.2,4.8,4.6,5.2,5.2c0.2,0.4,1,1,1.9,1.7c0.7,0.5,1.5,1.2,2.1,1.7
			c0.8,0.8,1,1.7,1.2,2.6c0.1,0.6,0.3,1.1,0.5,1.5c0.1,0.3,0.1,0.4,0.1,0.4c-0.1,0.1-0.9-0.1-1.7-0.5c-1-0.6-2.8-1-3.5-1.1
			c-0.3-0.1-0.7-0.1-1.1-0.2c-0.7-0.1-1.3-0.3-1.8-0.4c-0.7-0.1-3.1-1.4-4.2-2.3c-1.2-1-2.7-1.6-3.4-1.7c-0.1,0-0.2,0-0.2,0
			c-0.2,0-0.4,0-0.6,0.1c-0.4,0.1-0.9,0.1-1.6,0c-1.2-0.2-4.6-2-5.3-2.7c-0.5-0.5-2.5-1.3-4.2-1.8c-0.7-0.3-1.3-0.5-1.7-0.6
			c-1.1-0.5-2.7-2.3-3.7-3.7c-0.9-1.3-2-1.5-3.3-1.7l-0.4-0.1c-1-0.2-2.3-0.8-3.1-1.1c-0.4-0.2-0.7-0.3-0.8-0.3s-0.2-0.1-0.3-0.1
			c0,0,0.1,0,0.2,0c0.2,0,0.7,0.1,1.3,0.1c0.9,0.1,2.1,0.1,2.9,0.3c1,0.1,2.4,0.6,3.5,0.9c0.2,0.1,0.5,0.1,0.7,0.2
			c1,0.3,4.8,1.6,5.9,2.1c0.4,0.2,0.9,0.4,1.5,0.6c1,0.4,2.2,0.8,2.9,1.2c1,0.5,2.4,1.5,3.3,2.4s3,2.1,4.1,2.5
			c1,0.3,1.1,0.3,1.1,0.1c0.1-0.2,0-0.3-0.7-0.5c-0.5-0.2-0.5-0.2-0.8-0.4c-0.2-0.1-0.5-0.3-1.1-0.6c-1-0.6-1.7-1.1-2.5-1.9
			c-0.4-0.4-0.9-0.8-1.4-1.2c-0.9-0.7-2.2-1.4-3.4-1.9c0.4,0,0.8-0.1,1.3-0.1c0.4,0,0.9-0.1,1.4-0.1c1.2-0.1,2.5-0.2,3.3-0.4
			c1.1-0.3,2.3-0.4,2.7-0.3c0.2,0,0.6,0.3,1,0.6c0,0,0,0,0.1,0.1s0.2,0.2,0.3,0.3l0.1,0.1l0,0C279.5,244.2,280.2,244.6,281.4,245.4z
			 M268.8,229.6c-1.3-0.5-2-2-1.5-3.3c0.4-1,1.2-1.6,2.2-1.6c0.1,0,0.3,0,0.4,0c0,0.1-0.1,0.3-0.1,0.4c-0.2,1.5,0.6,2.9,1.9,3.6
			C271.1,229.7,269.9,230.1,268.8,229.6z M275.7,226.2c-0.1,0.7-0.4,1.2-0.9,1.6s-1.2,0.6-1.9,0.4c-1.4-0.2-2.4-1.6-2.2-2.9
			c0.1-0.7,0.4-1.2,0.9-1.6c0.4-0.3,0.9-0.5,1.4-0.5c0.1,0,0.3,0,0.4,0C274.9,223.5,275.9,224.8,275.7,226.2z M287.2,213.8
			c-0.6,0.4-2,1.4-3.4,2.4c-1.2,0.9-2.4,1.7-3,2.1c-0.5,0.3-1,0.7-1.5,1.1c-0.8,0.6-1.5,1.1-1.9,1.3c-0.3,0.2-0.5,0.4-0.4,0.7
			c0.1,0.4,0.6,0.6,1.3,0.5c0.6-0.1,1.3-0.3,2-0.5c0.5-0.2,1.1-0.3,1.5-0.5c0.7-0.2,2.6-0.7,4.2-1.8c0.6-0.5,1.4-1.1,2.2-1.6
			c0.8-0.6,1.5-1.2,1.9-1.4c0.8-0.5,3.8-1.3,5.2-1.6h0.1c1.1-0.3,3.5-0.5,6.9-0.7c1.9-0.1,6.4-0.3,7.9-0.1c0.4,0.1,0.9,0.2,1.4,0.3
			c1.2,0.2,2.6,0.5,3.6,0.6c1.4,0.1,3.3,1,4.3,1.8c0.6,0.4,1.6,1.4,2.6,2.3c0.9,0.8,1.7,1.6,2.1,1.9s0.7,0.7,0.9,0.9
			c-0.7-0.3-2.4-0.5-3.3-0.4c-1.1,0.1-4.7,0.7-6.1,1.2c-1.5,0.5-5.9,1.6-7.1,1.9c-0.9,0.2-3.1,0.2-4.9,0.3c-0.5,0-1,0-1.4,0
			c-0.7,0-1.7,0.1-2.7,0.2c-1.7,0.2-3.5,0.4-4.4,0.2c-0.3-0.1-0.7-0.1-1.2-0.2c-1.6-0.2-3.9-0.6-4.7-1.1c-1.1-0.7-4.9-0.8-7-0.5
			c-1.2,0.2-3.4,0.5-6.1,0.9c-0.6-0.8-1.4-1.3-2.3-1.4c-1.4-0.2-2.7,0.4-3.4,1.6c-1.6-0.4-3.3,0.5-3.8,2c-0.2,0.6-0.3,1.3-0.1,2
			c-1,0.4-3.3,1.4-4.8,1.9c-1.9,0.7-6.1,2.4-7.7,3c-1.4,0.6-6.4,2.2-7.5,2.4c-0.2,0-0.5,0.1-0.7,0.1c-0.7,0.1-1.2,0.2-1.2,0.5
			c0,0.2,0.1,0.3,0.2,0.4c0.6,0.5,2,0.9,3.6,1.2c1.6,0.3,4.8,0.9,5.9,1.2c0.7,0.2,2.2,0.4,3.6,0.6c0.7,0.1,1.4,0.2,1.9,0.3
			c0.2,0,0.4,0.1,0.5,0.1c1.1,0.2,1.8,0.3,3.8,0.1c1.3-0.1,2.3-0.1,3.1-0.2c0.6,0,1.1,0,1.5-0.1c0.6-0.1,1.2-0.3,2-0.5
			c0.5-0.2,1.2-0.4,1.9-0.6c1.6-0.4,4.5-0.6,5.8-0.6h0.5c0.8,0,1-0.2,1-0.3c0-0.2-0.3-0.3-0.5-0.3c-0.6-0.1-2.4-0.1-3.5,0.1
			c-1,0.1-5.1,0.8-6.3,1.4c-0.6,0.3-1.9,0.3-3.3,0.4c-1,0-2.1,0-3.1,0.2c-1.9,0.2-4.4-0.3-6.3-0.7c-0.5-0.1-1-0.2-1.4-0.3
			c-0.7-0.1-0.8-0.2-0.8-0.2c0-0.1,0.3-0.2,0.8-0.3c0.3-0.1,0.9-0.2,1.5-0.4c0.8-0.2,1.7-0.5,2.3-0.6c1-0.1,2.8-1.1,3.9-1.6
			c0.2-0.1,0.3-0.2,0.5-0.2c0.8-0.4,2.2-0.6,3.1-0.4c1,0.2,1.5,0.2,2.8-0.2c1.2-0.4,2.8-0.6,5-0.5c1.9,0.1,4,0.5,5.9,1.1
			c1.3,0.4,3.3,0.6,4.7,0.7c0.6,0.1,1.2,0.1,1.5,0.2c1.1,0.2,2.5,1,4.4,2.2c1.7,1.1,3.5,2.8,4.2,3.7c0.2,0.3,0.2,0.4,0.2,0.4
			c-0.1,0.1-0.9,0-1.5,0H294c-1.3-0.2-2.8-0.2-4.6-0.3c-0.1,0-0.1,0-0.2,0c-1.2,0-2.3,0.5-3.5,0.9c-0.5,0.2-1.1,0.4-1.6,0.6
			c-1.2,0.4-2.4,0.1-3.4-0.2l0,0c-0.1,0-1.3-0.7-2.8-0.7l0,0c-0.8,0-1.8,0.2-2.8,0.3c-0.8,0.1-1.6,0.2-2.1,0.3
			c-0.5,0-1.1,0.1-1.7,0.2c-0.9,0.1-1.9,0.3-2.6,0.2c-0.7-0.1-1.3-0.2-1.6-0.2c-0.8-0.3-1.6-0.5-2.2-0.7c-0.7-0.2-1.6-0.5-2.7-0.9
			c-1.6-0.6-3.5-1.2-4.8-1.5c-1.7-0.3-5-0.5-7.6-0.6c-0.8,0-1.6-0.1-2.2-0.1c-1.7-0.1-3.7-0.8-5.1-1.3c-0.6-0.2-1.1-0.4-1.4-0.5
			c-1.2-0.3-4.8,0.5-6.8,1.1c-2.2,0.7-6.1,1.1-9.7,1.4c-1.5,0.1-4.3,0.3-7.4,0.5c-4.7,0.3-10.5,0.6-14.4,1
			c-4.2,0.4-12.6,1.3-18.6,2.1c-2.2-0.7-4.7-1.5-7.3-2.2c5.8-1.3,14-2.6,16.6-2.7c0.8,0,2.5-0.1,4.8-0.1c7.4-0.1,19.7-0.3,23.8-1
			c5-1,8.4-2.8,10.2-5.7c1.2-1.9,2.5-4.4,3.7-6.6c0.5-1,1.1-2,1.5-2.8l0.4-0.7c1.3-2.4,2.5-4.6,3.8-5.4c1.4-0.9,3.4-4.1,3.8-5
			c0.3-0.8,2-1.9,3.3-2.9c0.3-0.2,0.6-0.4,0.8-0.6c0.4-0.3,1-0.7,1.5-1.2c1.1-0.9,2.3-1.8,3-2.2c0.1-0.1,0.2-0.1,0.3-0.2
			c0.3-0.2,0.7-0.3,0.7-0.3s0.1,0.1,0,0.7c-0.1,0.6-0.6,1.7-1,2.8c-0.5,1.3-1,2.5-1.1,3.1c0,0.2,0,0.4-0.1,0.7
			c-0.1,1.5-0.3,4.2-1.9,5.6c-1.9,1.6-5.3,6.1-6.7,8.2c-1.3,1.9-2.1,2.7-4.2,3.8c-2.3,1.2-5.3,3.1-6.7,4.4c-0.9,0.8-1.8,1.4-2.5,2
			c-0.5,0.4-0.8,0.6-1.1,0.8c-0.4,0.3-0.5,0.6-0.3,0.8c0.1,0.1,0.2,0.2,0.7-0.1c0.2-0.2,0.9-0.7,1.6-1.3c1.1-0.9,2.5-2,3.3-2.5
			c0.4-0.2,0.8-0.6,1.4-1c1.5-1,3.3-2.3,4.1-2.7c1-0.4,2.3-1,3.2-1.8c0.1-0.1,0.3-0.3,0.4-0.4c0.8-0.8,1.9-2,3.1-2.7
			c1-0.5,1.9-1.3,2.7-1.9c0.4-0.3,0.7-0.6,0.9-0.8c0.4-0.3,0.4-0.5,0.4-0.7c0-0.1-0.1-0.2-0.3-0.3c-0.2,0-0.4,0-0.7,0.2
			c-0.4,0.4-2,1.7-3,2.4l-0.4,0.3c-0.5,0.4-0.9,0.6-1.1,0.8c0.2-0.2,0.4-0.5,0.6-0.9c0.8-1.2,2-3.1,2.8-3.7c1.2-0.9,2.9-3,3.4-3.9
			c0.5-0.8,0.8-2.3,0.9-3.1c0-0.1,0-0.2,0-0.3c0.2-0.1,0.7-0.2,1.1-0.6c0.4-0.3,1.1-1,2.1-2.1c0.4-0.4,0.9-0.9,1.5-1.5
			c1.8-1.9,4.5-3,5.5-3.2c0.6-0.1,1.8-0.7,2.9-1.2c0.8-0.3,1.5-0.7,1.7-0.7c0.3-0.1,0.4,0,0.4,0c0,0.1-0.1,0.3-0.1,0.4
			c-0.1,0.2-0.5,0.7-1.1,1.5c-0.5,0.6-1.1,1.5-1.9,2.5c-1.3,1.7-1.8,3.5-2.2,5c-0.2,0.7-0.4,1.3-0.6,1.8c-0.7,1.5-1.9,3-3.3,4
			c-1.2,0.8-2.2,2.9-2.8,4c-0.2,0.3-0.3,0.6-0.4,0.7s-0.3,0.2-0.7,0.4c-0.7,0.3-1.7,0.9-2.7,1.8c-1.5,1.4-2.8,2.2-4.7,2.8
			c-1.9,0.6-10.4,4-11.9,4.9c-1,0.6-1.6,1.2-1.5,1.7c0,0.2,0.2,0.5,0.9,0.6c0.9,0.1,3.2-0.5,5.3-1c1.2-0.3,2.3-0.6,3.2-0.7
			c1.3-0.2,4.9-1.7,8.3-3.1c3.2-1.3,6.2-2.5,7.2-2.7c1.8-0.4,2-1.1,2.2-2c0.1-0.3,0.1-0.5,0.2-0.8c0.5-1.3,2-2.6,3.4-3.7
			c1.4-1.2,3.4-3.1,4.4-4.3c1.1-1.2,2.4-5.4,2.7-7.9c0.3-2.4,2.5-7.1,3.7-8.2c0.9-0.8,0.9-2,0.9-3.3c0-0.8,0-1.7,0.2-2.6
			c0.3-1.6,2.2-5.8,5.3-11.7c0.8-1.6,5.2-5.8,6.1-6.3c0.3-0.2,0.5-0.2,0.6-0.1c0.1,0.1,0.2,0.4-0.1,1.7c-0.4,1.7-0.5,4.7-0.4,6.5
			c0,0.4,0.1,0.8,0.1,1.3c0.1,1.5,0.3,3,0,4c-0.4,1.2-4.7,12-6.4,15c-1.8,3.1-5.3,7-8.4,9.4c-2.8,2.2-6.6,6.1-8.3,8
			c-0.3,0.3-0.5,0.5-0.7,0.7s-0.5,0.5-0.3,0.8c0.5,0.6,3.9-0.9,4-1c2.1-1,8-4.7,12.6-7.7c3.7-2.4,7.6-5.9,8.5-6.7
			c0.1,0,0.2,0,0.3,0.1c0.4,0.1,0.9,0.1,1.3,0c0,0.1,0,0.2-0.1,0.3c-0.1,0.4,0,0.9,0.1,1.3C291,210.8,288.1,213.2,287.2,213.8z
			 M292.4,207.3c-0.5,0.4-1.2,0.5-1.9,0.4c-1.4-0.2-2.4-1.6-2.2-2.9c0.1-0.7,0.4-1.2,0.9-1.6c0.4-0.3,0.9-0.5,1.4-0.5
			c0.1,0,0.3,0,0.4,0c1.4,0.2,2.4,1.6,2.2,2.9C293.2,206.4,292.9,206.9,292.4,207.3z M297.5,209.9c-0.1,0.7-0.4,1.2-0.9,1.6
			c-0.5,0.4-1.2,0.5-1.9,0.4c-1.4-0.2-2.4-1.6-2.2-2.9c0-0.3,0.2-0.7,0.3-1c0.3-0.2,0.6-0.5,0.8-0.8c0.5-0.3,1.1-0.4,1.7-0.3
			C296.7,207.2,297.7,208.6,297.5,209.9z M321.7,166c-0.1,0.8-0.5,2.3-0.8,3.1c-0.5,0.6-0.9,1.1-1.3,1.4c-0.3,0.2-0.5,0.5-0.8,0.8
			c-0.9,0.9-1.9,1.8-2.6,2.2c-1,0.5-2.2,1.9-2.7,3.3c-0.2,0.5-0.3,1.1-0.5,1.7c-0.4,1.4-0.9,3.2-1.5,4.4c-0.4,0.8-1,2.2-1.7,3.6
			c-0.9,1.9-1.9,4.1-2.6,5.3c-0.2,0.3-0.4,0.7-0.6,1.1c-1.1,1.9-2.3,4.1-3.8,5.9c-0.4,0.4-0.7,0.9-1.1,1.4c-1.5,1.8-3,3.7-3.5,4.1
			l-0.2,0.1c-0.3,0.3-0.6,0.5-0.5,0.7s0.3,0.3,0.9,0.4c1.4,0.2,3.2-0.3,4.3-1c1.1-0.8,2.5-2.6,2.7-3.9c0.2-1.4,0.4-2.8,1.6-4.1
			s2.8-3.9,3.9-5.7l0.3-0.5c1-1.7,2.2-3.7,4.1-5c0.7-0.5,1.3-0.8,1.8-1.1c1-0.6,1.7-1,2.1-1.8c0.2-0.3,0.3-0.7,0.5-1
			c0.4-1,1-2.3,1.9-3c0.3-0.2,0.7-0.5,1.1-0.8c1.1-0.7,2.3-1.6,3.1-2c0.1-0.1,0.3-0.2,0.4-0.2c0.5-0.3,1-0.5,1.1-0.4
			c0,0,0.1,0.1,0.1,0.6c-0.1,0.7-0.4,2.1-0.7,3.4c-0.3,1.1-0.5,2.1-0.6,2.5s-0.1,1.3-0.2,2.2c-0.1,1-0.2,2.1-0.2,2.7v0.3
			c-0.1,1.2-0.4,3.2-1.6,5c-0.5,0.7-0.8,1.3-1.2,1.9c-0.5,1-0.9,1.6-1.7,2.2c-1.3,1-2.9,2.4-3.7,3.5c-0.6,0.8-1.4,1.7-2,2.4
			c-0.2,0.3-0.5,0.5-0.7,0.8c-0.1,0.1-0.2,0.3-0.4,0.4c-0.6,0.8-1.3,1.6-2.8,1.9c-2,0.3-2.9,0.4-4.3,0.5c-0.4,0-0.7,0-1,0
			c-0.8,0-1.3,0-2,0.5c-1,0.7-2.3,1.5-3.6,1.9c-1.1,0.3-2.4,0.3-2.8,0.2c-0.5-0.9-1.4-1.5-2.5-1.7c-0.4-0.1-0.9-0.1-1.3,0
			c0-0.1,0-0.2,0.1-0.3c0-0.3,0-0.6,0-0.9c0.4-0.2,1-0.5,1.3-0.9s0.4-0.5,0.2-0.7c-0.1-0.1-0.1-0.2-0.2-0.4c0-0.1-0.1-0.2-0.1-0.2
			c-0.2-0.4-0.2-0.5,0-1.1c0.1-0.3,0.4-1.1,0.8-2.1c0.7-1.7,1.5-3.8,1.6-4.5c0.1-0.5,0.1-1.5,0.2-2.7c0.1-1.4,0.2-3,0.3-3.9
			c0.2-1.7-0.8-5.7-1.7-6.8c-0.4-0.5-0.9-1.4-1.4-2.4c-0.6-1-1.1-2.1-1.7-2.8c-1.2-1.7-1.9-5.9-1.9-6.3c-0.1-1-1.2-2.7-2.2-4.1
			c-0.5-0.8-1-1.6-1.2-2c-0.6-1.3-1.1-3.1-0.9-4.2c0.2-1.1-0.3-3-1.3-4.5c-0.9-1.5-0.1-4.9,0.6-5.6c0.1-0.2,0.3-0.2,0.4-0.2l0,0
			c0.4,0,0.9,0.8,1.5,1.5l0.1,0.2c0.8,1.1,1.3,1.8,2.3,2.5c1.2,0.8,3.3,2.4,4.4,3.8c1.1,1.5,1.5,2.6,1.8,3.9
			c0.1,0.6,0.2,2.1,0.3,3.6c0.1,1.8,0.2,3.7,0.5,4.5c0.1,0.3,0.2,0.7,0.3,1c0.4,1.3,0.9,2.7,0.8,3.8c-0.1,0.7-0.1,1.4-0.1,2.1
			c0,0.7-0.1,1.5-0.1,2.3c-0.2,1.7,0.3,3.5,0.8,4.9c0.3,0.9,0.1,3.6-0.5,7.5c-0.1,0.5,0,0.8,0.2,1c0.1,0.1,0.2,0.1,0.4,0.1
			c0.3-0.1,0.5-0.5,0.5-1l0.4-3.5c0.1-1.2,0.1-5-0.8-5.9c-0.5-0.5-0.3-3.1-0.1-5.2c0.1-1.2,0.2-2.4,0.1-3.2c0-1.3-0.5-2.4-0.9-3.5
			c-0.3-0.9-0.6-1.7-0.7-2.4c-0.1-0.8-0.1-1.9-0.2-3c0-1.4-0.1-2.8-0.2-3.9c-0.2-2,0.3-5.1,0.7-6.5c0.2-0.9,0.7-2,1.1-2.9
			c0.3-0.7,0.5-1.3,0.7-1.7c0-0.2,0.1-0.4,0.3-0.4c0.2-0.1,0.7,0.4,1.1,0.9l0.1,0.1c1,1,1.8,2.1,2.4,3.3c0.7,1.3,1.5,4.1,1.8,5.6
			c0.3,1.4,0.7,4.1,1.3,10c0.5,4.7,0.1,6.9-0.4,9.6c-0.1,0.7-0.3,1.4-0.4,2.2c-0.5,3.2-2.7,8.1-6.6,14.9c-2.6,4.6-2.4,5.2-1.7,5.7
			c0.6,0.4,1.2-0.6,2.1-1.9c0.2-0.3,0.4-0.6,0.7-1c1.1-1.5,3.8-5.7,5.6-8.7c1.3-2.3,2.9-6.2,4.1-9c0.4-0.9,0.7-1.7,1-2.3
			c0.9-2.1,1.7-4.5,1.9-5.3c0.7-0.5,1.2-1.3,1.3-2.2c0.1-0.7,0-1.4-0.4-2.1c0-0.8,0.2-3.5,0.5-6.7c0.2-2.8,0.4-5.4,0.4-6.6
			c0.3,0.2,0.6,0.3,0.7,0.4c0.4,0.3,1,0.9,1.6,1.7c-0.2,1.6-0.7,6.6-0.8,7.7c-0.1,0.8-0.2,1.8-0.4,2.7c-0.1,0.6-0.2,1.1-0.2,1.3
			c0,0.4-0.1,0.7,0.1,0.9c0.1,0.1,0.3,0.2,0.5,0.2c0.6,0,1.1-0.2,1.6-0.6c0.2-0.2,0.3-0.3,0.4-0.3c0.3-0.2,0.5-0.5,0.6-0.9
			c0.1-0.3,0.2-0.6,0.3-0.9c0.4-1.2,1-2.6,0.3-5.8c-0.2-0.9-0.3-1.6-0.4-2.2c-0.3-1.8-0.4-1.8-1.4-3c-0.8-1-2.3-1.9-3.8-2.7
			c-0.9-0.5-1.7-0.9-2.3-1.4c-0.5-0.3-1-0.7-1.6-1c-1.6-1-3.4-2.2-4.6-3.7s-2.1-2-3.2-2.6c-0.5-0.3-0.9-0.5-1.5-0.9l-0.3-0.2
			c-1.8-1.2-3.7-2.5-5-5.2c-1.3-2.6-1.6-2.9-2.9-4.1c-0.2-0.1-0.3-0.3-0.5-0.5c-0.7-0.7-1.5-1.1-2.2-1.5c-0.4-0.2-1-0.6-1-0.7
			c0,0,0-0.1,0.3-0.2c0.3-0.1,0.6-0.2,0.9-0.4c1.2-0.5,2.7-1.1,3.9-0.9c0.4,0.1,1,0.2,1.7,0.3c2,0.3,5.1,0.8,6.2,1.1
			c1.4,0.5,3.6,1.5,4.3,2.1l0.3,0.2c1,0.9,3.1,2.6,3.8,4c0.6,1,1.3,1.7,2,2.4c0.4,0.4,0.8,0.8,1.2,1.2c1.1,1.3,3.6,4.7,4.6,6.8
			s3.1,10.2,3.2,11.8C321.8,162.1,321.9,164.8,321.7,166z M318.1,158.6c0.5,1,0.8,1.8,0.8,2.5c0,0.5,0,1.2,0.1,1.9
			c0.1,1.6,0.2,3.4-0.1,4.3c-0.1,0.4-0.2,0.7-0.3,1c-0.2,0.7-0.2,0.8-0.8,0.8c-0.1,0-0.3,0-0.4,0c-0.2-0.4-0.3-1.9-0.1-3.3
			C317.5,164.6,317.9,160.5,318.1,158.6z M324.8,155.7c0.2-1.7,0.6-4.8,1.2-6.9c0.1-0.4,0.2-0.7,0.3-1.1c0.5-1.9,1-3.5,2.5-5.7
			l0.2-0.3c1.7-2.4,2.5-3.4,4.4-5c1.1-0.9,2-1.8,2.7-2.5c0.6-0.6,1.1-1.2,1.6-1.5c0.4-0.3,0.7-0.6,1.1-0.8c0.4-0.4,1-0.8,1.2-0.8
			l0,0c0.2,0.1,0.2,0.8,0,1.7c-0.2,0.7-0.4,2-0.5,3v0.4c-0.1,0.7-0.2,1.5-0.2,2c-2.2,1.3-5.9,3.8-7.3,5.3c-1.9,2.1-4.2,6.5-4.9,8
			c-0.6,1.3-1.9,4.4-2.6,6L324.8,155.7z M345.2,137.5c-0.1,0.3-0.4,1.1-0.7,2.1c-0.9,2.5-2.1,6.2-2.7,7.4c-0.7,1.4-3.2,5.7-6.2,8.3
			c-1,0.9-2,1.8-2.8,2.6c-1.5,1.4-2.7,2.5-3.9,3.4c-1.9,1.3-5.4,4.9-6.2,5.9c-0.1,0.1-0.3,0.3-0.4,0.5c0.1-1,0.4-2.7,0.5-3.3
			c0.2-0.9,0.5-2.2,0.8-2.9c0.1-0.2,0.2-0.4,0.3-0.6c0.6-0.9,1.3-2.2,1.8-3.6c0.9-2.6,3.1-7.2,4.3-9.1c1.1-1.6,3.3-5.1,8-7.9
			c4.5-2.7,5.9-3.1,6.8-3.4h0.1c0.2-0.1,0.4-0.1,0.4-0.1c0.1,0,0.1,0,0.1,0C345.5,136.7,345.4,137,345.2,137.5z"/>
		<path class="st0" d="M316.2,151.7c-1.2-1.3-2.4-2.4-3.4-3.2c-0.9-0.7-1.5-1.3-1.8-1.7c-0.1-0.2-0.2-0.4-0.3-0.6
			c-0.6-1-1.4-2.4-3-4.2c-1.8-2-2.9-2.5-4.1-3.1l-0.2-0.1c-0.7-0.3-1.2-0.5-1.7-0.7c-0.4-0.2-0.8-0.3-0.9-0.4
			c-0.3-0.3-0.7-0.5-0.8-0.5c-0.1-0.2-0.6-0.7-0.9-0.5c-0.2,0.2,0,0.5,0.1,0.7c0.5,0.7,2.4,1.7,3.8,2.2c1.4,0.4,4.3,2.6,5.3,4.7
			c1.1,2.1,2.3,3.4,4.3,5.1c1.9,1.6,3.8,3.8,4.9,5.3c0.2,0.3,0.5,0.6,0.7,0.9c0.8,1,1.4,1.9,1.6,2.7c0.2,0.6,0.4,0.7,0.4,0.7
			s0,0,0.1,0s0.1,0,0.2-0.1c0.1-0.2,0.1-0.6-0.1-1.1C320,156.6,318.4,154.1,316.2,151.7z"/>
		<path class="st0" d="M235.8,230c0.2,0,0.4-0.2,0.7-0.5c0.2-0.2,0.4-0.6,0.7-1.1c0.9-1.5,2.2-3.7,4-5c2.4-1.6,3.8-2.8,4.8-4.8
			c0.9-1.7,1.8-3.5,2.2-4.4c0.2-0.5,0.3-0.9,0.1-1c-0.1-0.1-0.3,0-0.6,0.5c-0.2,0.3-0.6,1-1.1,1.9c-0.7,1.2-1.4,2.6-1.8,3.3
			c-0.7,1.1-2.4,2.7-3.9,3.7c-1.5,1.1-2.2,1.9-3,3.1c-0.9,1.3-1.9,3-1.9,3l0,0C235.7,229.2,235.5,229.8,235.8,230
			C235.7,230,235.7,230,235.8,230z"/>
		<path class="st0" d="M307.3,203.8c0.1,0,0.3-0.1,0.4-0.2c0.2-0.1,0.6-0.5,1.2-1c0.9-0.8,2.1-1.8,3.4-2.6c2.4-1.4,4.1-3.2,5.1-5.1
			c1.2-2.5,2.9-5.5,4-6.7c1.2-1.3,1.7-3.8,1.8-4.7c0-0.3,0.1-0.8-0.2-0.8l0,0c-0.3,0-0.4,0.5-0.4,0.6c-0.1,0.6-0.7,3.2-1.7,4.3
			c-0.7,0.8-1.3,1.7-1.8,2.6c-0.3,0.4-0.5,0.9-0.8,1.3c-0.5,0.7-0.7,1.3-1,1.8c-0.2,0.5-0.4,1-0.8,1.5c-0.2,0.3-0.4,0.6-0.5,0.9
			c-0.4,0.7-0.7,1.3-2,2.3c-0.8,0.6-1.5,1.1-2.1,1.5c-0.7,0.5-1.2,0.8-1.9,1.4c-1.1,0.9-2.4,2-2.4,2c-0.1,0-0.7,0.5-0.5,0.8
			C307.1,203.8,307.2,203.8,307.3,203.8z"/>
		<path class="st0" d="M260.6,45.9c-0.7-0.1-2.1-0.4-3.5-0.7c-0.8-0.2-1.7-0.4-2.5-0.6c-2.3-0.5-6.3,0.9-7.4,1.3l0,0
			c-0.1,0.1-0.3,0.2-0.2,0.4c0.1,0.2,0.3,0.2,0.6,0.1c0.8-0.1,1.9-0.5,3-0.9s2.8-0.5,4.1-0.3c0.6,0.1,1.5,0.3,2.5,0.5
			c1.3,0.3,2.7,0.6,3.3,0.7c0.2,0,0.4,0,0.5,0c0.4,0,0.5-0.1,0.5-0.2S261.4,46,260.6,45.9z"/>
		<path class="st0" d="M298.2,39.9c0-0.1,0-0.3,0-0.4c0-0.2,0-0.4-0.2-0.4s-0.2,0.1-0.3,1.2c0,0.2-0.1,0.7-0.1,1.2
			c-0.1,1.1-0.1,2.7-0.4,3.2c-0.1,0.2-0.2,0.3-0.3,0.5c-0.3,0.7-0.8,1.5-0.9,2.3c-0.1,0.7-0.3,1.3-0.4,1.6V49l-0.1,0.4
			c-0.1,0.4,0,0.7,0.2,0.9c0.1,0,0.1,0.1,0.2,0.1h0.1c0.2-0.1,0.3-0.4,0.4-0.8c0.1-1.1,0.5-2.7,1.1-3.6c0.6-0.8,0.7-2.1,0.7-3.3
			c0-0.2,0-0.5,0-0.7C298.3,41,298.3,40.4,298.2,39.9z"/>
		<path class="st0" d="M291.9,53.4c-0.4-0.9-1.6-2.9-2.4-3.5c-0.7-0.5-2.5-2.3-3.6-4.2c-1-1.8-2.7-4.7-2.8-4.8
			c-0.2-0.3-0.4-0.5-0.6-0.5c-0.1,0-0.2,0-0.3,0.1c-0.1,0.2-0.1,0.4,0.1,0.7l3.8,6.7c0.5,0.9,1.5,1.6,2.2,2.1c0.4,0.3,0.8,0.5,1,0.8
			c0.7,0.7,2,3,2.7,4.8c0.8,2,1.2,3.2,1.3,3.7c0,0.1,0.1,0.5,0.3,0.5l0,0c0.1,0,0.3-0.1,0.2-0.8C294,58.3,292.3,54.2,291.9,53.4z"/>
		<path class="st0" d="M307.7,98.5c0.4,0.9,1.1,2.2,1.8,3.3c0.5,0.9,1,1.7,1.1,2.1c0.4,0.9,0.7,2.4,0.8,4c0.1,1.6,1,4.7,1.3,5.3
			c0.2,0.4,0.3,0.6,0.5,0.6c0,0,0,0,0.1,0s0.2-0.1,0.1-0.4c0-0.2-0.1-0.3-0.2-0.5c-0.2-0.3-0.4-0.8-0.5-1.5
			c-0.1-0.3-0.1-0.7-0.2-1.1c-0.2-1.1-0.5-2.7-0.6-4.4c-0.1-1.9-1.2-3.8-2.1-5.4c-0.3-0.5-0.5-0.9-0.7-1.3c-1-1.9-2.2-5-2.4-6.3
			c-0.2-1.4-0.3-4.5-0.3-5.5c0.1-0.7-0.1-0.8-0.3-0.9l0,0c-0.2,0-0.4,0.3-0.4,0.8l0,0c0,0,0,2.8,0.2,5.2c0.1,2.1,1,3.9,1.6,5.4
			C307.5,98,307.6,98.3,307.7,98.5z"/>
		<path class="st0" d="M250.6,40c0.1,0,0.4,0,0.4-0.2c0-0.1,0.1-0.2-0.6-0.5l0,0c-1.1-0.2-1.9-0.6-3.1-1.5c-0.4-0.3-0.9-0.7-1.2-1
			c-1-0.8-1.2-0.9-1.3-0.8s-0.1,0.3,0,0.3c0.3,0.6,1.8,2,2.7,2.6C247.8,39.2,249.5,40,250.6,40C250.5,40,250.5,40,250.6,40z"/>
		<path class="st0" d="M295.3,164.5c-0.6-1.7-1.7-3.6-2.4-4.5c-0.7-0.8-1.8-2.1-2.1-3.2c-0.3-1.1-0.5-1.8-0.5-1.8l0,0
			c-0.2-0.5-0.4-0.7-0.6-0.6c-0.2,0.1-0.2,0.4-0.1,0.8c0.1,0.1,0.1,0.4,0.2,0.7c0.3,1.1,0.8,2.8,1.6,3.5c1,0.9,2.3,2.6,3.1,5.1
			c0.7,2.3,1.7,5.5,2,6.8c0.1,0.7,0.3,0.8,0.4,0.8c0,0,0,0,0.1,0c0,0,0.1,0,0.1-0.1c0.2-0.1,0.1-0.6,0.1-1
			C296.8,170.3,295.8,166.2,295.3,164.5z"/>
		<path class="st0" d="M302,159.4c0,0.3,0,0.6,0,1c0,1-0.1,2.3-0.2,3c-0.1,0.8-0.1,2.1,0.3,3.1c0.3,0.8,1,2.8,0.8,4.5
			c0,0.4-0.1,0.7-0.1,1c-0.2,1.2-0.3,2.1,0,3.4c0.1,0.4,0.2,0.8,0.3,1.2c0.3,1.2,0.6,2.5,0.5,3.3c0,0.2,0,0.4,0,0.6
			c0,0.9-0.1,2-0.5,3.2c-0.5,1.5-1.1,2.8-1.1,2.8l0,0c-0.3,0.9-0.2,1.1,0,1.1h0.1c0.2,0,0.3-0.2,0.6-0.6c0.5-0.9,1.5-4.3,1.6-6.1
			c0.1-1-0.2-2.6-0.5-4c-0.2-1-0.4-2-0.4-2.4c0.1-0.5,0.1-1.1,0.2-1.8s0.1-1.5,0.2-2.2c0.1-0.6-0.2-1.8-0.6-3
			c-0.4-1.3-0.7-2.7-0.7-3.5c0.2-1.5,0.5-3.7,0.1-6c-0.2-1.5-0.4-2.3-0.6-2.9c-0.1-0.3-0.1-0.6-0.2-0.8c-0.1-0.3-0.2-0.4-0.3-0.5
			c-0.1,0-0.2,0-0.3,0.1c-0.1,0.2-0.2,0.5,0,0.9C301.4,155.5,302,158.4,302,159.4z"/>
		<path class="st0" d="M323.3,132.2c0.2,0,0.4-0.2,0.7-0.4c0.6-0.7,2.8-4.6,3.2-6.8c0.1-0.3,0.1-0.6,0.2-1c0.4-1.9,0.7-3.9,2.1-5.4
			l0.4-0.4c1.8-1.9,5-5.5,5.6-6.8c0.5-1.3,1-2.3,1.7-3.2c0.3-0.4,0.4-0.6,0.3-0.8c0-0.1-0.1-0.1-0.2-0.2c-0.2,0-0.6,0.2-0.8,0.6
			c-0.4,0.6-1,1.8-1.4,2.6c-0.1,0.3-0.2,0.5-0.3,0.6c-0.3,0.5-2.3,3.7-3.7,4.9c-1.4,1.1-3.1,3.1-3.7,4.8c-0.3,0.8-0.4,1.6-0.5,2.5
			c-0.2,1-0.3,2-0.6,2.6c-0.2,0.5-0.5,1-0.7,1.6c-0.4,0.9-0.7,1.7-1.1,2.2c-0.6,0.8-1.2,1.8-1.2,1.8c-0.4,0.5-0.3,0.7-0.2,0.8
			C323.2,132.1,323.2,132.2,323.3,132.2z"/>
	</g>
	<g>
		<path class="st0" d="M209.4,4.1c0-0.3-0.1-0.6-0.3-1c-0.2-0.2-0.4-0.5-0.7-0.7c-0.3-0.2-0.7-0.5-1.1-0.7l0,0
			c-1.2-0.6-3.1-1.1-5.7-1.1c-2.7-0.1-6.3,0.4-10.5,2.2h0l0,0c-2.1,0.9-3.3,1.6-4.1,2.2c-0.5,0.3-0.8,0.6-1.1,0.8l0,0l0,0
			c-0.9,0.7-1.6,1.1-3.1,2.6v0l0,0c-0.7,0.8-3.2,3.4-3.8,4.2l0,0c0.3-0.3,2.9-2.2,3.7-2.7l0,0c1.1-0.7,3.4-1.8,5.7-2.5
			c2.3-0.6,5.3-1,9.2-0.8c2.9,0.2,5.1,0.3,6.7,0.3c1.6,0,2.7-0.2,3.5-0.5l0,0c0,0,0,0,0,0v0c0.3-0.1,0.6-0.3,0.8-0.4
			c0.4-0.2,0.6-0.5,0.8-0.8C209.3,5,209.4,4.7,209.4,4.1L209.4,4.1L209.4,4.1L209.4,4.1L209.4,4.1L209.4,4.1L209.4,4.1z"/>
		<path class="st0" d="M234.9,0.2c-1,2.5-3,6.4-4.8,8.3l0,0c-3.3,3.1-5.1,3.3-7.3,4.1c-1.1,0.3-2.4,0.6-4.3,0.8
			c-1.9,0.1-4.5,0.1-8-0.5c-4.6-0.8-8.6-2.1-12.1-3.2c-3.5-1-6.6-1.8-9.5-1.7v0c-1.4,0-2.6,0.2-3.8,0.5c-3.4,0.9-5.5,3-6.4,4.3
			c-0.9,1.3-1.4,2.1-1.7,2.7c-0.1,0.3-0.2,0.5-0.3,0.6c0,0.1,0,0.2,0,0.3c0,0.1,0.1,0.1,0.1,0.1l0.1,0c0,0,0,0,0.1,0
			c0,0,0.1,0,0.1,0c0.1,0,0.1-0.1,0.3-0.1c0.3-0.2,1-0.8,2.3-2.3c1.1-1.1,2.7-2.8,5.7-3.6c0.1,0,0.2-0.1,0.3-0.1
			c1.6-0.4,3.7-0.4,6-0.2c2.4,0.3,5,1,8.1,1.8c8.9,2.6,16.5,3.2,22,1.7l0,0c0.1,0,0.2,0,0.2-0.1c5.4-1.4,8.4-4.4,9.9-6.7
			c1.4-2.3,1.8-3.3,2.3-4.5C234.6,1.4,234.8,0.7,234.9,0.2L234.9,0.2z"/>
		<path class="st0" d="M141.2,4.1c0-0.3,0.1-0.6,0.3-1c0.2-0.2,0.4-0.5,0.7-0.7c0.3-0.2,0.7-0.5,1.1-0.7l0,0
			c1.2-0.6,3.1-1.1,5.7-1.1c2.7-0.1,6.3,0.4,10.5,2.2h0l0,0c2.1,0.9,3.3,1.6,4.1,2.2c0.5,0.3,0.8,0.6,1.1,0.8l0,0l0,0
			c0.9,0.7,1.6,1.1,3.1,2.6l0,0l0,0c0.7,0.8,3.2,3.4,3.8,4.2l0,0c-0.3-0.3-2.9-2.2-3.7-2.7l0,0c-1.1-0.7-3.4-1.8-5.7-2.5
			c-2.3-0.6-5.3-1-9.2-0.8c-2.9,0.2-5.1,0.3-6.7,0.3c-1.6,0-2.7-0.2-3.5-0.5l0,0c0,0,0,0,0,0v0c-0.3-0.1-0.6-0.3-0.8-0.4
			c-0.4-0.2-0.6-0.5-0.8-0.8C141.4,5,141.2,4.7,141.2,4.1L141.2,4.1L141.2,4.1L141.2,4.1L141.2,4.1L141.2,4.1L141.2,4.1z"/>
		<path class="st0" d="M115.8,0.2c1,2.5,3,6.4,4.8,8.3l0,0c3.3,3.1,5.1,3.3,7.3,4.1c1.1,0.3,2.4,0.6,4.3,0.8c1.9,0.1,4.5,0.1,8-0.5
			c4.6-0.8,8.6-2.1,12.1-3.2c3.5-1,6.6-1.8,9.5-1.7v0c1.4,0,2.6,0.2,3.7,0.5c3.4,0.9,5.5,3,6.4,4.3c0.9,1.3,1.4,2.1,1.7,2.7
			c0.1,0.3,0.2,0.5,0.2,0.6c0,0.1,0,0.2,0,0.3c0,0.1-0.1,0.1-0.1,0.1l0,0c0,0,0,0-0.1,0c0,0-0.1,0-0.1,0c-0.1,0-0.1-0.1-0.3-0.1
			c-0.3-0.2-1-0.8-2.3-2.3c-1.1-1.1-2.7-2.8-5.7-3.6c-0.1,0-0.2-0.1-0.3-0.1c-1.6-0.4-3.7-0.4-6-0.2c-2.4,0.3-5,1-8.1,1.8
			c-8.9,2.6-16.5,3.2-22,1.7l0,0c-0.1,0-0.2,0-0.2-0.1c-5.4-1.4-8.4-4.4-9.9-6.7c-1.4-2.3-1.8-3.3-2.3-4.5
			C116,1.4,115.9,0.7,115.8,0.2L115.8,0.2z"/>
	</g>
	<g>
		<path class="st0" d="M132.5,36.7c0.2,0.1,0.4,0.3,0.5,0.6c0,0,0.1,0.1,0.1,0.1l1.7,2.7h0.1h0.2c0.4,0,0.7,0.1,0.9,0.3
			c0.2,0.2,0.3,0.5,0.3,0.8c0,0.4-0.1,0.7-0.3,0.9s-0.5,0.3-1,0.3h-1.3c-0.5,0-0.8-0.2-1.1-0.6l0,0l-2.6-4c-0.1-0.2-0.2-0.3-0.3-0.4
			c-0.1-0.1-0.3-0.1-0.4-0.1h-1v2.8h0.2c0.4,0,0.7,0.1,0.9,0.3c0.2,0.2,0.3,0.5,0.3,0.8c0,0.4-0.1,0.7-0.3,0.9s-0.5,0.3-1,0.3h-2.7
			c-0.5,0-0.8-0.1-1-0.3s-0.3-0.5-0.3-0.9c0-0.4,0.1-0.7,0.3-0.8c0.2-0.2,0.5-0.3,0.8-0.3h0.2v-7.8h-0.2c-0.4,0-0.6-0.1-0.8-0.3
			c-0.2-0.2-0.3-0.5-0.3-0.9c0-0.4,0.1-0.7,0.3-0.9c0.2-0.2,0.5-0.3,1-0.3h4.8c1.5,0,2.6,0.3,3.4,0.9c0.8,0.6,1.1,1.4,1.1,2.6
			c0,0.8-0.2,1.5-0.6,2C133.9,36,133.3,36.4,132.5,36.7z M128.2,32.2v3h1.4c0.9,0,1.5-0.1,1.8-0.3s0.5-0.6,0.5-1.1
			c0-0.5-0.2-0.9-0.5-1.1c-0.3-0.2-0.8-0.4-1.5-0.4H128.2z"/>
		<path class="st0" d="M145.8,32.2h-4.9v2.7h1.8v-0.1c0-0.4,0.1-0.7,0.3-0.9c0.2-0.2,0.4-0.3,0.8-0.3c0.3,0,0.6,0.1,0.8,0.3
			s0.3,0.4,0.3,0.7c0,0,0,0.1,0,0.1c0,0.1,0,0.2,0,0.2V37c0,0.5-0.1,0.8-0.3,1c-0.2,0.2-0.4,0.3-0.8,0.3c-0.4,0-0.6-0.1-0.8-0.3
			c-0.2-0.2-0.3-0.5-0.3-0.8V37h-1.8v3.1h4.9v-1.2c0-0.5,0.1-0.8,0.3-1s0.5-0.3,0.9-0.3c0.4,0,0.7,0.1,0.9,0.3
			c0.2,0.2,0.3,0.5,0.3,1v2.5c0,0.4-0.1,0.6-0.2,0.8c-0.1,0.1-0.4,0.2-0.9,0.2h-8.6c-0.5,0-0.8-0.1-1-0.3c-0.2-0.2-0.3-0.5-0.3-0.9
			c0-0.4,0.1-0.7,0.3-0.8c0.2-0.2,0.5-0.3,0.8-0.3h0.2v-7.8h-0.2c-0.4,0-0.6-0.1-0.8-0.3c-0.2-0.2-0.3-0.5-0.3-0.9
			c0-0.4,0.1-0.7,0.3-0.9s0.5-0.3,1-0.3h8.6c0.4,0,0.7,0.1,0.9,0.2c0.1,0.1,0.2,0.4,0.2,0.8v2.3c0,0.5-0.1,0.8-0.3,1
			s-0.5,0.3-0.8,0.3c-0.4,0-0.7-0.1-0.9-0.3s-0.3-0.5-0.3-1V32.2z"/>
		<path class="st0" d="M158.8,30.3c0.1-0.3,0.3-0.4,0.4-0.5s0.3-0.2,0.6-0.2c0.3,0,0.6,0.1,0.7,0.3c0.1,0.2,0.2,0.5,0.2,0.9l0,2.7
			c0,0.5-0.1,0.8-0.2,1c-0.2,0.2-0.4,0.3-0.9,0.3c-0.3,0-0.5-0.1-0.7-0.2c-0.2-0.1-0.3-0.4-0.4-0.8c-0.2-0.7-0.5-1.2-0.9-1.4
			c-0.4-0.3-0.9-0.4-1.6-0.4c-1.1,0-1.9,0.4-2.5,1.1c-0.6,0.7-0.9,1.8-0.9,3.2s0.3,2.4,0.9,3.2c0.6,0.8,1.4,1.1,2.5,1.1
			c0.3,0,0.5,0,0.9-0.1c0.3-0.1,0.7-0.2,1.1-0.3v-1.7H157c-0.5,0-0.8-0.1-1-0.3c-0.2-0.2-0.3-0.5-0.3-0.9c0-0.4,0.1-0.7,0.3-0.9
			s0.5-0.3,1-0.3h3.8c0.5,0,0.8,0.1,1,0.3c0.2,0.2,0.3,0.5,0.3,0.9c0,0.4-0.1,0.7-0.3,0.9s-0.5,0.3-0.9,0.3h-0.2v2.5v0.1
			c0,0.2,0,0.4-0.1,0.5s-0.1,0.2-0.3,0.3c-0.4,0.2-1,0.4-1.9,0.6c-0.9,0.2-1.7,0.3-2.6,0.3c-1.8,0-3.3-0.6-4.4-1.8
			c-1.1-1.2-1.7-2.8-1.7-4.7c0-1.9,0.6-3.4,1.7-4.7s2.6-1.9,4.4-1.9c0.5,0,1,0.1,1.5,0.2C157.8,29.9,158.3,30.1,158.8,30.3z"/>
		<path class="st0" d="M169.9,32.3v7.8h1.8c0.5,0,0.8,0.1,1,0.3s0.3,0.5,0.3,0.9c0,0.4-0.1,0.7-0.3,0.9c-0.2,0.2-0.5,0.3-1,0.3h-6.2
			c-0.5,0-0.8-0.1-1-0.3s-0.3-0.5-0.3-0.9c0-0.4,0.1-0.7,0.3-0.9c0.2-0.2,0.5-0.3,1-0.3h1.8v-7.8h-1.8c-0.5,0-0.8-0.1-1-0.3
			c-0.2-0.2-0.3-0.5-0.3-0.9c0-0.4,0.1-0.7,0.3-0.9s0.5-0.3,1-0.3h6.2c0.5,0,0.8,0.1,1,0.3c0.2,0.2,0.3,0.5,0.3,0.9
			c0,0.4-0.1,0.7-0.3,0.9c-0.2,0.2-0.5,0.3-1,0.3H169.9z"/>
		<path class="st0" d="M184,30.2c0.1-0.2,0.2-0.4,0.4-0.5c0.1-0.1,0.3-0.1,0.6-0.1c0.4,0,0.7,0.1,0.8,0.2c0.1,0.2,0.2,0.4,0.2,0.9
			l0,2v0.1c0,0.4-0.1,0.7-0.2,0.9s-0.4,0.2-0.8,0.2c-0.5,0-0.9-0.3-1.1-0.8c0-0.1-0.1-0.1-0.1-0.2c-0.2-0.4-0.5-0.8-0.9-1
			c-0.4-0.2-0.8-0.3-1.3-0.3c-0.6,0-1.1,0.1-1.5,0.4c-0.4,0.3-0.6,0.7-0.6,1.1c0,0.6,0.9,1.1,2.7,1.5c0.3,0.1,0.5,0.1,0.7,0.1
			c1.3,0.3,2.3,0.7,2.9,1.3s0.9,1.4,0.9,2.5c0,1.3-0.4,2.3-1.3,3c-0.9,0.7-2.1,1-3.8,1c-0.6,0-1.2,0-1.7-0.1c-0.5-0.1-1-0.2-1.5-0.4
			c-0.1,0.2-0.2,0.3-0.4,0.4c-0.1,0.1-0.3,0.1-0.6,0.1c-0.4,0-0.7-0.1-0.9-0.3c-0.2-0.2-0.3-0.5-0.3-0.9l0-2.5V39
			c0-0.5,0.1-0.8,0.3-1c0.2-0.2,0.5-0.3,0.9-0.3c0.5,0,0.8,0.3,1.1,1c0.1,0.2,0.1,0.3,0.2,0.4c0.3,0.5,0.7,0.9,1.1,1.2
			c0.5,0.3,1.1,0.4,1.8,0.4c0.6,0,1.1-0.1,1.5-0.4c0.4-0.3,0.5-0.6,0.5-1.1c0-0.7-0.8-1.3-2.4-1.7c-0.5-0.1-0.9-0.2-1.1-0.3
			c-1.4-0.4-2.3-0.8-2.8-1.3c-0.5-0.5-0.8-1.3-0.8-2.2c0-1.2,0.4-2.2,1.3-2.9c0.9-0.8,2.1-1.1,3.5-1.1c0.5,0,0.9,0,1.4,0.1
			C183.1,29.8,183.6,30,184,30.2z"/>
		<path class="st0" d="M197.8,32.2h-2.2v7.8h1.8c0.5,0,0.8,0.1,1,0.3c0.2,0.2,0.3,0.5,0.3,0.9c0,0.4-0.1,0.7-0.3,0.9
			c-0.2,0.2-0.5,0.3-1,0.3h-6.2c-0.5,0-0.8-0.1-1-0.3c-0.2-0.2-0.3-0.5-0.3-0.9c0-0.4,0.1-0.7,0.3-0.9s0.5-0.3,1-0.3h1.8v-7.8h-2.2
			l-0.1,2.1v0.3c0,0.3-0.1,0.6-0.3,0.8c-0.2,0.2-0.4,0.3-0.8,0.3c-0.4,0-0.7-0.1-0.9-0.3s-0.3-0.5-0.3-0.9v-0.1l0.1-3.1
			c0-0.6,0.1-1,0.3-1.1c0.2-0.1,0.5-0.2,0.9-0.2h9c0.5,0,0.8,0.1,0.9,0.2c0.1,0.1,0.2,0.5,0.3,1.1l0.1,3.1v0.1c0,0.4-0.1,0.8-0.3,1
			c-0.2,0.2-0.5,0.3-0.8,0.3c-0.4,0-0.6-0.1-0.8-0.3c-0.2-0.2-0.3-0.5-0.3-1L197.8,32.2z"/>
		<path class="st0" d="M210.2,32.2h-4.9v2.7h1.8v-0.1c0-0.4,0.1-0.7,0.3-0.9c0.2-0.2,0.4-0.3,0.8-0.3c0.3,0,0.6,0.1,0.8,0.3
			s0.3,0.4,0.3,0.7c0,0,0,0.1,0,0.1c0,0.1,0,0.2,0,0.2V37c0,0.5-0.1,0.8-0.3,1c-0.2,0.2-0.4,0.3-0.8,0.3c-0.4,0-0.6-0.1-0.8-0.3
			c-0.2-0.2-0.3-0.5-0.3-0.8V37h-1.8v3.1h4.9v-1.2c0-0.5,0.1-0.8,0.3-1s0.5-0.3,0.9-0.3c0.4,0,0.7,0.1,0.9,0.3
			c0.2,0.2,0.3,0.5,0.3,1v2.5c0,0.4-0.1,0.6-0.2,0.8c-0.1,0.1-0.4,0.2-0.9,0.2h-8.6c-0.5,0-0.8-0.1-1-0.3c-0.2-0.2-0.3-0.5-0.3-0.9
			c0-0.4,0.1-0.7,0.3-0.8c0.2-0.2,0.5-0.3,0.8-0.3h0.2v-7.8h-0.2c-0.4,0-0.6-0.1-0.8-0.3c-0.2-0.2-0.3-0.5-0.3-0.9
			c0-0.4,0.1-0.7,0.3-0.9s0.5-0.3,1-0.3h8.6c0.4,0,0.7,0.1,0.9,0.2c0.1,0.1,0.2,0.4,0.2,0.8v2.3c0,0.5-0.1,0.8-0.3,1
			c-0.2,0.2-0.5,0.3-0.8,0.3c-0.4,0-0.7-0.1-0.9-0.3s-0.3-0.5-0.3-1V32.2z"/>
		<path class="st0" d="M222.7,36.7c0.2,0.1,0.4,0.3,0.5,0.6c0,0,0.1,0.1,0.1,0.1l1.7,2.7h0.1h0.2c0.4,0,0.7,0.1,0.9,0.3
			c0.2,0.2,0.3,0.5,0.3,0.8c0,0.4-0.1,0.7-0.3,0.9c-0.2,0.2-0.5,0.3-1,0.3h-1.3c-0.5,0-0.8-0.2-1.1-0.6l0,0l-2.6-4
			c-0.1-0.2-0.2-0.3-0.3-0.4c-0.1-0.1-0.3-0.1-0.4-0.1h-1v2.8h0.2c0.4,0,0.7,0.1,0.9,0.3c0.2,0.2,0.3,0.5,0.3,0.8
			c0,0.4-0.1,0.7-0.3,0.9s-0.5,0.3-1,0.3h-2.7c-0.5,0-0.8-0.1-1-0.3c-0.2-0.2-0.3-0.5-0.3-0.9c0-0.4,0.1-0.7,0.3-0.8
			c0.2-0.2,0.5-0.3,0.8-0.3h0.2v-7.8h-0.2c-0.4,0-0.6-0.1-0.8-0.3s-0.3-0.5-0.3-0.9c0-0.4,0.1-0.7,0.3-0.9c0.2-0.2,0.5-0.3,1-0.3
			h4.8c1.5,0,2.6,0.3,3.4,0.9c0.8,0.6,1.1,1.4,1.1,2.6c0,0.8-0.2,1.5-0.6,2C224.1,36,223.5,36.4,222.7,36.7z M218.4,32.2v3h1.4
			c0.9,0,1.5-0.1,1.8-0.3s0.5-0.6,0.5-1.1c0-0.5-0.2-0.9-0.5-1.1c-0.3-0.2-0.8-0.4-1.5-0.4H218.4z"/>
	</g>
	<g>
		<path class="st1" d="M235.1,100.2l7.7-7.7c5.1-5.1,5.1-13.5,0-18.6l-0.7-0.7c-5.1-5.1-13.5-5.1-18.6,0l-7.7,7.7L235.1,100.2z"/>
	</g>
	<g>
		<polygon class="st1" points="206.4,90.5 145.1,151.8 145.1,170.3 164.3,171 225.6,109.7 		"/>
	</g>
	<g>
		<path class="st0" d="M230.7,196.8h-99.2c-8.1,0-14.6-6.6-14.6-14.6V83c0-8.1,6.6-14.6,14.6-14.6h73c2.2,0,4,1.8,4,4s-1.8,4-4,4
			h-73c-3.7,0-6.6,3-6.6,6.6v99.2c0,3.7,3,6.6,6.6,6.6h99.2c3.7,0,6.6-3,6.6-6.6v-70.6c0-2.2,1.8-4,4-4s4,1.8,4,4v70.6
			C245.3,190.3,238.7,196.8,230.7,196.8z"/>
	</g>
</g>
</svg>
